<svg fill="white" width="67" height="67" xmlns="http://www.w3.org/2000/svg" xmlns:xlink="http://www.w3.org/1999/xlink" overflow="hidden"><defs><clipPath id="clip0"><rect x="606" y="326" width="67" height="67"/></clipPath></defs><g clip-path="url(#clip0)" transform="translate(-606 -326)"><path d="M639.495 326C620.999 326 606 340.999 606 359.495 606 377.991 620.999 392.99 639.495 392.99 657.991 392.99 672.99 377.991 672.99 359.495 672.99 340.999 658.001 326 639.495 326ZM661.868 381.868 651.066 378.851C647.689 380.879 643.732 382.038 639.505 382.038 627.054 382.038 616.962 371.946 616.962 359.495 616.962 347.044 627.054 336.952 639.505 336.952 651.956 336.952 662.048 347.044 662.048 359.495 662.048 363.772 660.859 367.779 658.781 371.186L661.868 381.868Z"/><path d="M639.495 344.566C631.251 344.566 624.566 351.251 624.566 359.495 624.566 362.323 625.356 364.961 626.715 367.219L624.666 374.274 631.791 372.285C634.039 373.644 636.677 374.424 639.505 374.424 647.749 374.424 654.434 367.739 654.434 359.495 654.434 351.251 647.749 344.566 639.495 344.566ZM639.495 367.139C635.268 367.139 631.851 363.712 631.851 359.495 631.851 355.278 635.278 351.851 639.495 351.851 643.722 351.851 647.139 355.278 647.139 359.495 647.139 363.712 643.722 367.139 639.495 367.139Z"/></g></svg>