<?xml version="1.0" encoding="utf-8"?>
<!-- Generator: Adobe Illustrator 26.0.3, SVG Export Plug-In . SVG Version: 6.00 Build 0)  -->
<svg version="1.1" id="레이어_1" xmlns="http://www.w3.org/2000/svg" xmlns:xlink="http://www.w3.org/1999/xlink" x="0px"
	 y="0px" viewBox="0 0 595.28 841.89" style="enable-background:new 0 0 595.28 841.89;" xml:space="preserve">
<style type="text/css">
	.st0{fill:#FFFFFF;}
</style>
<g>
	<path class="st0" d="M189.24,506.25c-0.08-0.04-0.23-0.08-0.23-0.12c-0.02-0.32-0.01-0.64-0.01-0.96c0-56.76,0-113.52,0-170.28
		c72.56,0,145.12,0,217.68,0c0,56.76,0,113.52-0.01,170.28c0,0.36-0.15,0.72-0.23,1.08c0-6.21,0-12.42,0-18.62
		c-72.47,0-144.79,0-217.2,0C189.24,493.89,189.24,500.07,189.24,506.25z M298.44,478.25c25.85,0,51.7,0,77.54,0
		c13.43,0,24.39-10.8,24.41-24.23c0.05-31.51,0.05-63.02-0.01-94.54c-0.02-7.47-3.04-13.7-8.75-18.56
		c-4.74-4.03-10.31-5.76-16.48-5.75c-50.74,0.01-101.47,0-152.21,0.01c-1.04,0-2.08,0.03-3.11,0.08
		c-13.05,0.68-23.17,11.25-23.18,24.33c-0.03,31.43-0.03,62.86,0,94.3c0.01,13.61,10.88,24.36,24.49,24.36
		C246.9,478.25,272.67,478.25,298.44,478.25z"/>
	<path d="M189.24,506.25c0-6.18,0-12.36,0-18.62c72.41,0,144.73,0,217.2,0c0,6.2,0,12.41,0,18.62
		C334.04,506.25,261.64,506.25,189.24,506.25z"/>
	<path d="M298.44,478.25c-25.77,0-51.54,0-77.3,0c-13.61,0-24.48-10.75-24.49-24.36c-0.03-31.43-0.03-62.86,0-94.3
		c0.01-13.08,10.14-23.65,23.18-24.33c1.04-0.05,2.07-0.08,3.11-0.08c50.74,0,101.47,0,152.21-0.01c6.17,0,11.74,1.72,16.48,5.75
		c5.71,4.86,8.73,11.09,8.75,18.56c0.07,31.51,0.06,63.02,0.01,94.54c-0.02,13.42-10.98,24.23-24.41,24.23
		C350.14,478.25,324.29,478.25,298.44,478.25z M298.46,467.23c21.77,0,43.55,0,65.32,0c4.07,0,8.15,0.03,12.22-0.01
		c7.52-0.07,13.3-5.94,13.3-13.46c0-31.35,0-62.7-0.01-94.06c0-0.87-0.05-1.76-0.22-2.62c-1.28-6.45-6.68-10.82-13.34-10.82
		c-51.5,0-102.99,0-154.49,0c-0.16,0-0.32,0-0.48,0c-7.18,0.1-13.07,6.04-13.07,13.22c0,31.47,0,62.94,0,94.42c0,0.6,0,1.2,0.1,1.79
		c1.08,6.89,6.54,11.53,13.59,11.53C247.08,467.23,272.77,467.23,298.46,467.23z"/>
	<path class="st0" d="M298.46,467.23c-25.69,0-51.38,0-77.07,0c-7.05,0-12.51-4.64-13.59-11.53c-0.09-0.59-0.1-1.19-0.1-1.79
		c0-31.47,0-62.94,0-94.42c0-7.18,5.89-13.12,13.07-13.22c0.16,0,0.32,0,0.48,0c51.5,0,102.99,0,154.49,0
		c6.66,0,12.06,4.37,13.34,10.82c0.17,0.85,0.22,1.74,0.22,2.62c0.01,31.35,0.01,62.7,0.01,94.06c0,7.52-5.78,13.39-13.3,13.46
		c-4.07,0.04-8.15,0.01-12.22,0.01C342,467.23,320.23,467.23,298.46,467.23z M309.63,365.39c0,5.17,0,10.12,0,15.09
		c-0.34,0.08-0.52,0.14-0.71,0.16c-6.3,0.68-12.42,2.15-18.33,4.4c-13.59,5.17-24.46,13.62-31.66,26.44
		c-4.33,7.73-6.77,16.07-7.82,24.82c-0.44,3.7-0.63,7.43-0.93,11.16c0.3,0,0.37,0.01,0.38,0c0.09-0.18,0.18-0.36,0.25-0.54
		c3.53-8.69,9.07-15.91,16.28-21.85c8.64-7.13,18.62-11.33,29.6-13.21c4.22-0.72,8.51-1.05,12.95-1.58c0,6.36,0,12.35,0,18.55
		c12.46-10.66,24.72-21.16,37.07-31.72C334.33,386.53,322.09,376.05,309.63,365.39z"/>
	<path d="M309.63,365.39c12.45,10.66,24.7,21.14,37.07,31.72c-12.34,10.56-24.61,21.06-37.07,31.72c0-6.2,0-12.19,0-18.55
		c-4.44,0.53-8.73,0.86-12.95,1.58c-10.97,1.88-20.96,6.08-29.6,13.21c-7.2,5.94-12.74,13.16-16.28,21.85
		c-0.08,0.18-0.16,0.36-0.25,0.54c-0.01,0.02-0.08,0-0.38,0c0.3-3.73,0.48-7.46,0.93-11.16c1.05-8.75,3.48-17.1,7.82-24.82
		c7.19-12.83,18.07-21.27,31.66-26.44c5.92-2.25,12.03-3.72,18.33-4.4c0.19-0.02,0.38-0.08,0.71-0.16
		C309.63,375.51,309.63,370.56,309.63,365.39z"/>
</g>
</svg>
