<svg xmlns="http://www.w3.org/2000/svg" xmlns:xlink="http://www.w3.org/1999/xlink" viewBox="0 0 118.71 71.25"><defs><style>.cls-1{fill:none;}.cls-2{fill:#eb7172;}.cls-3{fill:#50aed0;}.cls-4{fill:#f4c25e;}.cls-5{clip-path:url(#clip-path);}.cls-6{fill:#71beab;}.cls-7{fill:#72bfaa;}.cls-8{fill:#73bfa9;}.cls-9{fill:#74c0a8;}.cls-10{fill:#75c0a7;}.cls-11{fill:#76c1a6;}.cls-12{fill:#77c1a5;}.cls-13{fill:#78c1a4;}.cls-14{fill:#79c2a3;}.cls-15{fill:#7ac2a2;}.cls-16{fill:#7bc3a1;}.cls-17{fill:#7bc3a0;}.cls-18{fill:#7cc49f;}.cls-19{fill:#7dc49e;}.cls-20{fill:#7ec59d;}.cls-21{fill:#7fc59c;}.cls-22{fill:#80c69b;}.cls-23{fill:#81c69a;}.cls-24{fill:#82c699;}.cls-25{fill:#83c699;}.cls-26{fill:#84c698;}.cls-27{fill:#85c698;}.cls-28{fill:#86c697;}.cls-29{fill:#87c697;}.cls-30{fill:#88c696;}.cls-31{fill:#89c696;}.cls-32{fill:#8ac695;}.cls-33{fill:#8bc695;}.cls-34{fill:#8cc694;}.cls-35{fill:#8dc694;}.cls-36{fill:#8ec693;}.cls-37{fill:#8fc693;}.cls-38{fill:#90c592;}.cls-39{fill:#91c592;}.cls-40{fill:#92c591;}.cls-41{fill:#93c591;}.cls-42{fill:#94c590;}.cls-43{fill:#95c58f;}.cls-44{fill:#96c58f;}.cls-45{fill:#97c58e;}.cls-46{fill:#98c58e;}.cls-47{fill:#99c58d;}.cls-48{fill:#9ac58d;}.cls-49{fill:#9bc58c;}.cls-50{fill:#9cc58c;}.cls-51{fill:#9dc58b;}.cls-52{fill:#9ec58b;}.cls-53{fill:#9fc58a;}.cls-54{fill:#a0c58a;}.cls-55{fill:#a1c589;}.cls-56{fill:#a2c589;}.cls-57{fill:#a3c588;}.cls-58{fill:#a4c588;}.cls-59{fill:#a5c587;}.cls-60{fill:#a6c587;}.cls-61{fill:#a7c586;}.cls-62{fill:#a8c585;}.cls-63{fill:#a9c585;}.cls-64{fill:#aac584;}.cls-65{fill:#abc584;}.cls-66{fill:#acc483;}.cls-67{fill:#adc483;}.cls-68{fill:#aec482;}.cls-69{fill:#afc482;}.cls-70{fill:#b0c481;}.cls-71{fill:#b1c481;}.cls-72{fill:#b2c480;}.cls-73{fill:#b3c480;}.cls-74{fill:#b4c47f;}.cls-75{fill:#b5c47f;}.cls-76{fill:#b6c47e;}.cls-77{fill:#b7c47e;}.cls-78{fill:#b8c47d;}.cls-79{fill:#b9c47d;}.cls-80{fill:#bbc47c;}.cls-81{fill:#bcc47b;}.cls-82{fill:#bdc47b;}.cls-83{fill:#bec47a;}.cls-84{fill:#bfc47a;}.cls-85{fill:#c0c479;}.cls-86{fill:#c1c479;}.cls-87{fill:#c2c478;}.cls-88{fill:#c3c478;}.cls-89{fill:#c4c477;}.cls-90{fill:#c5c477;}.cls-91{fill:#c6c476;}.cls-92{fill:#c7c476;}.cls-93{fill:#c8c475;}.cls-94{fill:#c9c475;}.cls-95{fill:#cac374;}.cls-96{fill:#cbc374;}.cls-97{fill:#ccc373;}.cls-98{fill:#cdc373;}.cls-99{fill:#cec372;}.cls-100{fill:#cfc371;}.cls-101{fill:#d0c371;}.cls-102{fill:#d1c370;}.cls-103{fill:#d2c370;}.cls-104{fill:#d3c36f;}.cls-105{fill:#d4c36f;}.cls-106{fill:#d5c36e;}.cls-107{fill:#d6c36e;}.cls-108{fill:#d7c36d;}.cls-109{fill:#d8c36d;}.cls-110{fill:#d9c36c;}.cls-111{fill:#dac36c;}.cls-112{fill:#dbc36b;}.cls-113{fill:#dcc36b;}.cls-114{fill:#ddc36a;}.cls-115{fill:#dec36a;}.cls-116{fill:#dfc369;}.cls-117{fill:#e0c369;}.cls-118{fill:#e1c368;}.cls-119{fill:#e2c367;}.cls-120{fill:#e3c367;}.cls-121{fill:#e4c366;}.cls-122{fill:#e5c366;}.cls-123{fill:#e6c265;}.cls-124{fill:#e7c265;}.cls-125{fill:#e8c264;}.cls-126{fill:#e9c264;}.cls-127{fill:#eac263;}.cls-128{fill:#ebc263;}.cls-129{fill:#ecc262;}.cls-130{fill:#edc262;}.cls-131{fill:#eec261;}.cls-132{fill:#efc261;}.cls-133{fill:#f0c260;}.cls-134{fill:#f1c260;}.cls-135{fill:#f2c25f;}.cls-136{fill:#f3c25f;}.cls-137{fill:#51aecf;}.cls-138{fill:#52afce;}.cls-139{fill:#53afcd;}.cls-140{fill:#54b0cc;}.cls-141{fill:#55b0cb;}.cls-142{fill:#56b1ca;}.cls-143{fill:#56b1c9;}.cls-144{fill:#57b2c8;}.cls-145{fill:#58b2c7;}.cls-146{fill:#59b3c6;}.cls-147{fill:#5ab3c5;}.cls-148{fill:#5bb3c4;}.cls-149{fill:#5cb4c3;}.cls-150{fill:#5db4c2;}.cls-151{fill:#5eb5c1;}.cls-152{fill:#5fb5c0;}.cls-153{fill:#60b6bf;}.cls-154{fill:#61b6be;}.cls-155{fill:#62b7bd;}.cls-156{fill:#62b7bc;}.cls-157{fill:#63b8bb;}.cls-158{fill:#64b8ba;}.cls-159{fill:#65b8b9;}.cls-160{fill:#66b9b8;}.cls-161{fill:#67b9b7;}.cls-162{fill:#68bab6;}.cls-163{fill:#69bab4;}.cls-164{fill:#6abbb3;}.cls-165{fill:#6bbbb2;}.cls-166{fill:#6cbcb1;}.cls-167{fill:#6dbcb0;}.cls-168{fill:#6ebcaf;}.cls-169{fill:#6fbdae;}.cls-170{fill:#6fbdad;}.cls-171{fill:#70beac;}.cls-172{fill:#f4c15e;}.cls-173{fill:#f4c05f;}.cls-174{fill:#f4bf5f;}.cls-175{fill:#f4be5f;}.cls-176{fill:#f3bd5f;}.cls-177{fill:#f3bc60;}.cls-178{fill:#f3bb60;}.cls-179{fill:#f3ba60;}.cls-180{fill:#f3b960;}.cls-181{fill:#f3b861;}.cls-182{fill:#f3b761;}.cls-183{fill:#f3b661;}.cls-184{fill:#f3b561;}.cls-185{fill:#f2b462;}.cls-186{fill:#f2b362;}.cls-187{fill:#f2b262;}.cls-188{fill:#f2b162;}.cls-189{fill:#f2b063;}.cls-190{fill:#f2af63;}.cls-191{fill:#f2ae63;}.cls-192{fill:#f2ad63;}.cls-193{fill:#f2ac64;}.cls-194{fill:#f1ab64;}.cls-195{fill:#f1aa64;}.cls-196{fill:#f1a964;}.cls-197{fill:#f1a865;}.cls-198{fill:#f1a765;}.cls-199{fill:#f1a665;}.cls-200{fill:#f1a565;}.cls-201{fill:#f1a466;}.cls-202{fill:#f1a366;}.cls-203{fill:#f0a266;}.cls-204{fill:#f0a166;}.cls-205{fill:#f0a067;}.cls-206{fill:#f09f67;}.cls-207{fill:#f09e67;}.cls-208{fill:#f09d67;}.cls-209{fill:#f09c68;}.cls-210{fill:#f09b68;}.cls-211{fill:#f09a68;}.cls-212{fill:#ef9868;}.cls-213{fill:#ef9769;}.cls-214{fill:#ef9669;}.cls-215{fill:#ef9569;}.cls-216{fill:#ef9469;}.cls-217{fill:#ef936a;}.cls-218{fill:#ef926a;}.cls-219{fill:#ef916a;}.cls-220{fill:#ee906a;}.cls-221{fill:#ee8f6b;}.cls-222{fill:#ee8e6b;}.cls-223{fill:#ee8d6b;}.cls-224{fill:#ee8c6b;}.cls-225{fill:#ee8b6c;}.cls-226{fill:#ee8a6c;}.cls-227{fill:#ee896c;}.cls-228{fill:#ee886c;}.cls-229{fill:#ed876d;}.cls-230{fill:#ed866d;}.cls-231{fill:#ed856d;}.cls-232{fill:#ed846d;}.cls-233{fill:#ed836e;}.cls-234{fill:#ed826e;}.cls-235{fill:#ed816e;}.cls-236{fill:#ed806e;}.cls-237{fill:#ed7f6f;}.cls-238{fill:#ec7e6f;}.cls-239{fill:#ec7d6f;}.cls-240{fill:#ec7c6f;}.cls-241{fill:#ec7b70;}.cls-242{fill:#ec7a70;}.cls-243{fill:#ec7970;}.cls-244{fill:#ec7870;}.cls-245{fill:#ec7771;}.cls-246{fill:#ec7671;}.cls-247{fill:#eb7571;}.cls-248{fill:#eb7471;}.cls-249{fill:#eb7372;}.cls-250{fill:#eb7272;}.cls-251{clip-path:url(#clip-path-2);}.cls-252{fill:url(#linear-gradient);}.cls-253{fill:#fff;}.cls-254{clip-path:url(#clip-path-3);}.cls-255{fill:url(#linear-gradient-2);}</style><clipPath id="clip-path" transform="translate(0 0)"><path class="cls-1" d="M50.05,22.26a3.4,3.4,0,1,1,3.39,3.4,3.39,3.39,0,0,1-3.39-3.4m-2.28,0a5.68,5.68,0,1,0,5.67-5.67,5.67,5.67,0,0,0-5.67,5.67"/></clipPath><clipPath id="clip-path-2" transform="translate(0 0)"><path class="cls-1" d="M50.12,22.26a3.33,3.33,0,1,1,3.32,3.33,3.32,3.32,0,0,1-3.32-3.33m-.15,0a3.48,3.48,0,1,0,3.47-3.47A3.48,3.48,0,0,0,50,22.26m-2.12,0a5.6,5.6,0,1,1,5.59,5.6,5.61,5.61,0,0,1-5.59-5.6m-.15,0a5.75,5.75,0,1,0,5.74-5.74,5.76,5.76,0,0,0-5.74,5.74"/></clipPath><linearGradient id="linear-gradient" x1="244.76" y1="287.66" x2="245.76" y2="287.66" gradientTransform="matrix(11.5, 0, 0, -11.5, -2766.4, 3329.71)" gradientUnits="userSpaceOnUse"><stop offset="0" stop-color="#50aed0"/><stop offset="0.3" stop-color="#81c69a"/><stop offset="0.8" stop-color="#f4c25e"/><stop offset="1" stop-color="#eb7172"/></linearGradient><clipPath id="clip-path-3" transform="translate(0 0)"><polygon class="cls-1" points="32.17 0 32.17 35.5 0 35.5 0 35.75 32.17 35.75 32.17 71.25 32.43 71.25 32.43 35.75 118.7 35.75 118.7 35.5 32.43 35.5 32.43 0 32.17 0"/></clipPath><linearGradient id="linear-gradient-2" x1="274.92" y1="298.22" x2="275.92" y2="298.22" gradientTransform="matrix(118.71, 0, 0, -118.71, -32633.96, 35435.67)" xlink:href="#linear-gradient"/></defs><g id="Layer_2" data-name="Layer 2"><g id="Layer_1-2" data-name="Layer 1"><polygon class="cls-2" points="5.43 21.23 7.56 25.27 7.82 25.79 8.07 25.27 10.22 21.23 11.85 21.23 8.6 27.05 8.6 30.16 7.05 30.16 7.05 27.06 3.81 21.23 5.43 21.23"/><path class="cls-2" d="M18.44,26.87a3.29,3.29,0,1,1-6.58,0,3.29,3.29,0,1,1,6.58,0m-1.51,0a2,2,0,0,0-1.78-2.2,2,2,0,0,0-1.79,2.2,2,2,0,0,0,1.79,2.2,2,2,0,0,0,1.78-2.2" transform="translate(0 0)"/><path class="cls-2" d="M24.1,30.16v-.55a2.77,2.77,0,0,1-1.76.73A2.55,2.55,0,0,1,19.93,29a3.63,3.63,0,0,1-.32-1.71V23.58h1.52v3.68a3.11,3.11,0,0,0,.16,1,1.08,1.08,0,0,0,1.05.74A1.79,1.79,0,0,0,24,27.6a5.84,5.84,0,0,0,.11-1.3V23.58h1.5v6.58Z" transform="translate(0 0)"/><rect class="cls-3" x="24.02" y="40.92" width="1.58" height="9.11"/><polygon class="cls-4" points="44.29 44.41 42.64 49.85 41.36 49.85 38.53 40.92 40.1 40.92 41.82 46.58 41.98 47.27 42.15 46.58 43.83 40.92 45.12 40.92 46.8 46.58 46.97 47.27 47.13 46.58 48.84 40.92 50.42 40.92 47.59 49.85 46.31 49.85 44.66 44.41 44.48 43.69 44.29 44.41"/><path class="cls-4" d="M56.92,48.38a3.57,3.57,0,0,1-3,1.64,3.2,3.2,0,0,1-3.27-3.46,3.23,3.23,0,0,1,3.17-3.47A3.13,3.13,0,0,1,57,46.4v.72H52.24a1.79,1.79,0,0,0,1.7,1.63,2.16,2.16,0,0,0,1.88-1.21Zm-1.46-2.5a1.62,1.62,0,0,0-3.23,0Z" transform="translate(0 0)"/><g class="cls-5"><rect class="cls-6" x="50.05" y="18.87" width="0.05" height="6.79"/><rect class="cls-7" x="50.1" y="18.87" width="0.06" height="6.79"/><rect class="cls-8" x="50.17" y="18.87" width="0.06" height="6.79"/><rect class="cls-9" x="50.23" y="18.87" width="0.06" height="6.79"/><rect class="cls-10" x="50.29" y="18.87" width="0.06" height="6.79"/><rect class="cls-11" x="50.36" y="18.87" width="0.06" height="6.79"/><rect class="cls-12" x="50.42" y="18.87" width="0.06" height="6.79"/><rect class="cls-13" x="50.48" y="18.87" width="0.06" height="6.79"/><rect class="cls-14" x="50.55" y="18.87" width="0.06" height="6.79"/><rect class="cls-15" x="50.61" y="18.87" width="0.06" height="6.79"/><rect class="cls-16" x="50.67" y="18.87" width="0.06" height="6.79"/><rect class="cls-17" x="50.73" y="18.87" width="0.06" height="6.79"/><rect class="cls-18" x="50.8" y="18.87" width="0.06" height="6.79"/><rect class="cls-19" x="50.86" y="18.87" width="0.06" height="6.79"/><rect class="cls-20" x="50.92" y="18.87" width="0.06" height="6.79"/><rect class="cls-21" x="50.99" y="18.87" width="0.06" height="6.79"/><rect class="cls-22" x="51.05" y="18.87" width="0.06" height="6.79"/><rect class="cls-23" x="51.11" y="18.87" width="0.06" height="6.79"/><rect class="cls-23" x="51.18" y="18.87" width="0.05" height="6.79"/><rect class="cls-24" x="51.23" y="18.87" width="0.05" height="6.79"/><rect class="cls-25" x="51.27" y="18.87" width="0.05" height="6.79"/><rect class="cls-26" x="51.32" y="18.87" width="0.05" height="6.79"/><rect class="cls-27" x="51.37" y="18.87" width="0.05" height="6.79"/><rect class="cls-28" x="51.42" y="18.87" width="0.05" height="6.79"/><rect class="cls-29" x="51.47" y="18.87" width="0.05" height="6.79"/><rect class="cls-30" x="51.52" y="18.87" width="0.05" height="6.79"/><rect class="cls-31" x="51.57" y="18.87" width="0.05" height="6.79"/><rect class="cls-32" x="51.62" y="18.87" width="0.05" height="6.79"/><rect class="cls-33" x="51.67" y="18.87" width="0.05" height="6.79"/><rect class="cls-34" x="51.72" y="18.87" width="0.05" height="6.79"/><rect class="cls-35" x="51.77" y="18.87" width="0.05" height="6.79"/><rect class="cls-36" x="51.82" y="18.87" width="0.05" height="6.79"/><rect class="cls-37" x="51.87" y="18.87" width="0.05" height="6.79"/><rect class="cls-38" x="51.92" y="18.87" width="0.05" height="6.79"/><rect class="cls-39" x="51.97" y="18.87" width="0.05" height="6.79"/><rect class="cls-40" x="52.01" y="18.87" width="0.05" height="6.79"/><rect class="cls-41" x="52.06" y="18.87" width="0.05" height="6.79"/><rect class="cls-42" x="52.11" y="18.87" width="0.05" height="6.79"/><rect class="cls-43" x="52.16" y="18.87" width="0.05" height="6.79"/><rect class="cls-44" x="52.21" y="18.87" width="0.05" height="6.79"/><rect class="cls-45" x="52.26" y="18.87" width="0.05" height="6.79"/><rect class="cls-46" x="52.31" y="18.87" width="0.05" height="6.79"/><rect class="cls-47" x="52.36" y="18.87" width="0.05" height="6.79"/><rect class="cls-48" x="52.41" y="18.87" width="0.05" height="6.79"/><rect class="cls-49" x="52.46" y="18.87" width="0.05" height="6.79"/><rect class="cls-50" x="52.51" y="18.87" width="0.05" height="6.79"/><rect class="cls-51" x="52.56" y="18.87" width="0.05" height="6.79"/><rect class="cls-52" x="52.61" y="18.87" width="0.05" height="6.79"/><rect class="cls-53" x="52.66" y="18.87" width="0.05" height="6.79"/><rect class="cls-54" x="52.71" y="18.87" width="0.05" height="6.79"/><rect class="cls-55" x="52.76" y="18.87" width="0.05" height="6.79"/><rect class="cls-56" x="52.8" y="18.87" width="0.05" height="6.79"/><rect class="cls-57" x="52.85" y="18.87" width="0.05" height="6.79"/><rect class="cls-58" x="52.9" y="18.87" width="0.05" height="6.79"/><rect class="cls-59" x="52.95" y="18.87" width="0.05" height="6.79"/><rect class="cls-60" x="53" y="18.87" width="0.05" height="6.79"/><rect class="cls-61" x="53.05" y="18.87" width="0.05" height="6.79"/><rect class="cls-62" x="53.1" y="18.87" width="0.05" height="6.79"/><rect class="cls-63" x="53.15" y="18.87" width="0.05" height="6.79"/><rect class="cls-64" x="53.2" y="18.87" width="0.05" height="6.79"/><rect class="cls-65" x="53.25" y="18.87" width="0.05" height="6.79"/><rect class="cls-66" x="53.3" y="18.87" width="0.05" height="6.79"/><rect class="cls-67" x="53.35" y="18.87" width="0.05" height="6.79"/><rect class="cls-68" x="53.4" y="18.87" width="0.05" height="6.79"/><rect class="cls-69" x="53.45" y="18.87" width="0.05" height="6.79"/><rect class="cls-70" x="53.5" y="18.87" width="0.05" height="6.79"/><rect class="cls-71" x="53.54" y="18.87" width="0.05" height="6.79"/><rect class="cls-72" x="53.59" y="18.87" width="0.05" height="6.79"/><rect class="cls-73" x="53.64" y="18.87" width="0.05" height="6.79"/><rect class="cls-74" x="53.69" y="18.87" width="0.05" height="6.79"/><rect class="cls-75" x="53.74" y="18.87" width="0.05" height="6.79"/><rect class="cls-76" x="53.79" y="18.87" width="0.05" height="6.79"/><rect class="cls-77" x="53.84" y="18.87" width="0.05" height="6.79"/><rect class="cls-78" x="53.89" y="18.87" width="0.05" height="6.79"/><rect class="cls-79" x="53.94" y="18.87" width="0.05" height="6.79"/><rect class="cls-80" x="53.99" y="18.87" width="0.05" height="6.79"/><rect class="cls-81" x="54.04" y="18.87" width="0.05" height="6.79"/><rect class="cls-82" x="54.09" y="18.87" width="0.05" height="6.79"/><rect class="cls-83" x="54.14" y="18.87" width="0.05" height="6.79"/><rect class="cls-84" x="54.19" y="18.87" width="0.05" height="6.79"/><rect class="cls-85" x="54.24" y="18.87" width="0.05" height="6.79"/><rect class="cls-86" x="54.28" y="18.87" width="0.05" height="6.79"/><rect class="cls-87" x="54.33" y="18.87" width="0.05" height="6.79"/><rect class="cls-88" x="54.38" y="18.87" width="0.05" height="6.79"/><rect class="cls-89" x="54.43" y="18.87" width="0.05" height="6.79"/><rect class="cls-90" x="54.48" y="18.87" width="0.05" height="6.79"/><rect class="cls-91" x="54.53" y="18.87" width="0.05" height="6.79"/><rect class="cls-92" x="54.58" y="18.87" width="0.05" height="6.79"/><rect class="cls-93" x="54.63" y="18.87" width="0.05" height="6.79"/><rect class="cls-94" x="54.68" y="18.87" width="0.05" height="6.79"/><rect class="cls-95" x="54.73" y="18.87" width="0.05" height="6.79"/><rect class="cls-96" x="54.78" y="18.87" width="0.05" height="6.79"/><rect class="cls-97" x="54.83" y="18.87" width="0.05" height="6.79"/><rect class="cls-98" x="54.88" y="18.87" width="0.05" height="6.79"/><rect class="cls-99" x="54.93" y="18.87" width="0.05" height="6.79"/><rect class="cls-100" x="54.98" y="18.87" width="0.05" height="6.79"/><rect class="cls-101" x="55.02" y="18.87" width="0.05" height="6.79"/><rect class="cls-102" x="55.07" y="18.87" width="0.05" height="6.79"/><rect class="cls-103" x="55.12" y="18.87" width="0.05" height="6.79"/><rect class="cls-104" x="55.17" y="18.87" width="0.05" height="6.79"/><rect class="cls-105" x="55.22" y="18.87" width="0.05" height="6.79"/><rect class="cls-106" x="55.27" y="18.87" width="0.05" height="6.79"/><rect class="cls-107" x="55.32" y="18.87" width="0.05" height="6.79"/><rect class="cls-108" x="55.37" y="18.87" width="0.05" height="6.79"/><rect class="cls-109" x="55.42" y="18.87" width="0.05" height="6.79"/><rect class="cls-110" x="55.47" y="18.87" width="0.05" height="6.79"/><rect class="cls-111" x="55.52" y="18.87" width="0.05" height="6.79"/><rect class="cls-112" x="55.57" y="18.87" width="0.05" height="6.79"/><rect class="cls-113" x="55.62" y="18.87" width="0.05" height="6.79"/><rect class="cls-114" x="55.67" y="18.87" width="0.05" height="6.79"/><rect class="cls-115" x="55.72" y="18.87" width="0.05" height="6.79"/><rect class="cls-116" x="55.76" y="18.87" width="0.05" height="6.79"/><rect class="cls-117" x="55.81" y="18.87" width="0.05" height="6.79"/><rect class="cls-118" x="55.86" y="18.87" width="0.05" height="6.79"/><rect class="cls-119" x="55.91" y="18.87" width="0.05" height="6.79"/><rect class="cls-120" x="55.96" y="18.87" width="0.05" height="6.79"/><rect class="cls-121" x="56.01" y="18.87" width="0.05" height="6.79"/><rect class="cls-122" x="56.06" y="18.87" width="0.05" height="6.79"/><rect class="cls-123" x="56.11" y="18.87" width="0.05" height="6.79"/><rect class="cls-124" x="56.16" y="18.87" width="0.05" height="6.79"/><rect class="cls-125" x="56.21" y="18.87" width="0.05" height="6.79"/><rect class="cls-126" x="56.26" y="18.87" width="0.05" height="6.79"/><rect class="cls-127" x="56.31" y="18.87" width="0.05" height="6.79"/><rect class="cls-128" x="56.36" y="18.87" width="0.05" height="6.79"/><rect class="cls-129" x="56.41" y="18.87" width="0.05" height="6.79"/><rect class="cls-130" x="56.46" y="18.87" width="0.05" height="6.79"/><rect class="cls-131" x="56.51" y="18.87" width="0.05" height="6.79"/><rect class="cls-132" x="56.55" y="18.87" width="0.05" height="6.79"/><rect class="cls-133" x="56.6" y="18.87" width="0.05" height="6.79"/><rect class="cls-134" x="56.65" y="18.87" width="0.05" height="6.79"/><rect class="cls-135" x="56.7" y="18.87" width="0.05" height="6.79"/><rect class="cls-136" x="56.75" y="18.87" width="0.05" height="6.79"/><rect class="cls-4" x="56.8" y="18.87" width="0.04" height="6.79"/><path class="cls-3" d="M47.77,16.59v0Z" transform="translate(0 0)"/><rect class="cls-3" x="47.77" y="16.59" width="0.06" height="11.35"/><rect class="cls-137" x="47.83" y="16.59" width="0.06" height="11.35"/><rect class="cls-138" x="47.9" y="16.59" width="0.06" height="11.35"/><rect class="cls-139" x="47.96" y="16.59" width="0.06" height="11.35"/><rect class="cls-140" x="48.02" y="16.59" width="0.06" height="11.35"/><rect class="cls-141" x="48.09" y="16.59" width="0.06" height="11.35"/><rect class="cls-142" x="48.15" y="16.59" width="0.06" height="11.35"/><rect class="cls-143" x="48.21" y="16.59" width="0.06" height="11.35"/><rect class="cls-144" x="48.28" y="16.59" width="0.06" height="11.35"/><rect class="cls-145" x="48.34" y="16.59" width="0.06" height="11.35"/><rect class="cls-146" x="48.4" y="16.59" width="0.06" height="11.35"/><rect class="cls-147" x="48.46" y="16.59" width="0.06" height="11.35"/><rect class="cls-148" x="48.53" y="16.59" width="0.06" height="11.35"/><rect class="cls-149" x="48.59" y="16.59" width="0.06" height="11.35"/><rect class="cls-150" x="48.65" y="16.59" width="0.06" height="11.35"/><rect class="cls-151" x="48.72" y="16.59" width="0.06" height="11.35"/><rect class="cls-152" x="48.78" y="16.59" width="0.06" height="11.35"/><rect class="cls-153" x="48.84" y="16.59" width="0.06" height="11.35"/><rect class="cls-154" x="48.91" y="16.59" width="0.06" height="11.35"/><rect class="cls-155" x="48.97" y="16.59" width="0.06" height="11.35"/><rect class="cls-156" x="49.03" y="16.59" width="0.06" height="11.35"/><rect class="cls-157" x="49.1" y="16.59" width="0.06" height="11.35"/><rect class="cls-158" x="49.16" y="16.59" width="0.06" height="11.35"/><rect class="cls-159" x="49.22" y="16.59" width="0.06" height="11.35"/><rect class="cls-160" x="49.28" y="16.59" width="0.06" height="11.35"/><rect class="cls-161" x="49.35" y="16.59" width="0.06" height="11.35"/><rect class="cls-162" x="49.41" y="16.59" width="0.06" height="11.35"/><rect class="cls-163" x="49.47" y="16.59" width="0.06" height="11.35"/><rect class="cls-164" x="49.54" y="16.59" width="0.06" height="11.35"/><rect class="cls-165" x="49.6" y="16.59" width="0.06" height="11.35"/><rect class="cls-166" x="49.66" y="16.59" width="0.06" height="11.35"/><rect class="cls-167" x="49.73" y="16.59" width="0.06" height="11.35"/><rect class="cls-168" x="49.79" y="16.59" width="0.06" height="11.35"/><rect class="cls-169" x="49.85" y="16.59" width="0.06" height="11.35"/><rect class="cls-170" x="49.91" y="16.59" width="0.06" height="11.35"/><rect class="cls-171" x="49.98" y="16.59" width="0.06" height="11.35"/><rect class="cls-6" x="50.04" y="16.59" width="0.06" height="11.35"/><rect class="cls-7" x="50.1" y="16.59" width="0.06" height="11.35"/><rect class="cls-8" x="50.17" y="16.59" width="0.06" height="11.35"/><rect class="cls-9" x="50.23" y="16.59" width="0.06" height="11.35"/><rect class="cls-10" x="50.29" y="16.59" width="0.06" height="11.35"/><rect class="cls-11" x="50.36" y="16.59" width="0.06" height="11.35"/><rect class="cls-12" x="50.42" y="16.59" width="0.06" height="11.35"/><rect class="cls-13" x="50.48" y="16.59" width="0.06" height="11.35"/><rect class="cls-14" x="50.55" y="16.59" width="0.06" height="11.35"/><rect class="cls-15" x="50.61" y="16.59" width="0.06" height="11.35"/><rect class="cls-16" x="50.67" y="16.59" width="0.06" height="11.35"/><rect class="cls-17" x="50.73" y="16.59" width="0.06" height="11.35"/><rect class="cls-18" x="50.8" y="16.59" width="0.06" height="11.35"/><rect class="cls-19" x="50.86" y="16.59" width="0.06" height="11.35"/><rect class="cls-20" x="50.92" y="16.59" width="0.06" height="11.35"/><rect class="cls-21" x="50.99" y="16.59" width="0.06" height="11.35"/><rect class="cls-22" x="51.05" y="16.59" width="0.06" height="11.35"/><rect class="cls-23" x="51.11" y="16.59" width="0.06" height="11.35"/><rect class="cls-23" x="51.18" y="16.59" width="0.05" height="11.35"/><rect class="cls-24" x="51.23" y="16.59" width="0.05" height="11.35"/><rect class="cls-25" x="51.27" y="16.59" width="0.05" height="11.35"/><rect class="cls-26" x="51.32" y="16.59" width="0.05" height="11.35"/><rect class="cls-27" x="51.37" y="16.59" width="0.05" height="11.35"/><rect class="cls-28" x="51.42" y="16.59" width="0.05" height="11.35"/><rect class="cls-29" x="51.47" y="16.59" width="0.05" height="11.35"/><rect class="cls-30" x="51.52" y="16.59" width="0.05" height="11.35"/><rect class="cls-31" x="51.57" y="16.59" width="0.05" height="11.35"/><rect class="cls-32" x="51.62" y="16.59" width="0.05" height="11.35"/><rect class="cls-33" x="51.67" y="16.59" width="0.05" height="11.35"/><rect class="cls-34" x="51.72" y="16.59" width="0.05" height="11.35"/><rect class="cls-35" x="51.77" y="16.59" width="0.05" height="11.35"/><rect class="cls-36" x="51.82" y="16.59" width="0.05" height="11.35"/><rect class="cls-37" x="51.87" y="16.59" width="0.05" height="11.35"/><rect class="cls-38" x="51.92" y="16.59" width="0.05" height="11.35"/><rect class="cls-39" x="51.97" y="16.59" width="0.05" height="11.35"/><rect class="cls-40" x="52.01" y="16.59" width="0.05" height="11.35"/><rect class="cls-41" x="52.06" y="16.59" width="0.05" height="11.35"/><rect class="cls-42" x="52.11" y="16.59" width="0.05" height="11.35"/><rect class="cls-43" x="52.16" y="16.59" width="0.05" height="11.35"/><rect class="cls-44" x="52.21" y="16.59" width="0.05" height="11.35"/><rect class="cls-45" x="52.26" y="16.59" width="0.05" height="11.35"/><rect class="cls-46" x="52.31" y="16.59" width="0.05" height="11.35"/><rect class="cls-47" x="52.36" y="16.59" width="0.05" height="11.35"/><rect class="cls-48" x="52.41" y="16.59" width="0.05" height="11.35"/><rect class="cls-49" x="52.46" y="16.59" width="0.05" height="11.35"/><rect class="cls-50" x="52.51" y="16.59" width="0.05" height="11.35"/><rect class="cls-51" x="52.56" y="16.59" width="0.05" height="11.35"/><rect class="cls-52" x="52.61" y="16.59" width="0.05" height="11.35"/><rect class="cls-53" x="52.66" y="16.59" width="0.05" height="11.35"/><rect class="cls-54" x="52.71" y="16.59" width="0.05" height="11.35"/><rect class="cls-55" x="52.76" y="16.59" width="0.05" height="11.35"/><rect class="cls-56" x="52.8" y="16.59" width="0.05" height="11.35"/><rect class="cls-57" x="52.85" y="16.59" width="0.05" height="11.35"/><rect class="cls-58" x="52.9" y="16.59" width="0.05" height="11.35"/><rect class="cls-59" x="52.95" y="16.59" width="0.05" height="11.35"/><rect class="cls-60" x="53" y="16.59" width="0.05" height="11.35"/><rect class="cls-61" x="53.05" y="16.59" width="0.05" height="11.35"/><rect class="cls-62" x="53.1" y="16.59" width="0.05" height="11.35"/><rect class="cls-63" x="53.15" y="16.59" width="0.05" height="11.35"/><rect class="cls-64" x="53.2" y="16.59" width="0.05" height="11.35"/><rect class="cls-65" x="53.25" y="16.59" width="0.05" height="11.35"/><rect class="cls-66" x="53.3" y="16.59" width="0.05" height="11.35"/><rect class="cls-67" x="53.35" y="16.59" width="0.05" height="11.35"/><rect class="cls-68" x="53.4" y="16.59" width="0.05" height="11.35"/><rect class="cls-69" x="53.45" y="16.59" width="0.05" height="11.35"/><rect class="cls-70" x="53.5" y="16.59" width="0.05" height="11.35"/><rect class="cls-71" x="53.54" y="16.59" width="0.05" height="11.35"/><rect class="cls-72" x="53.59" y="16.59" width="0.05" height="11.35"/><rect class="cls-73" x="53.64" y="16.59" width="0.05" height="11.35"/><rect class="cls-74" x="53.69" y="16.59" width="0.05" height="11.35"/><rect class="cls-75" x="53.74" y="16.59" width="0.05" height="11.35"/><rect class="cls-76" x="53.79" y="16.59" width="0.05" height="11.35"/><rect class="cls-77" x="53.84" y="16.59" width="0.05" height="11.35"/><rect class="cls-78" x="53.89" y="16.59" width="0.05" height="11.35"/><rect class="cls-79" x="53.94" y="16.59" width="0.05" height="11.35"/><rect class="cls-80" x="53.99" y="16.59" width="0.05" height="11.35"/><rect class="cls-81" x="54.04" y="16.59" width="0.05" height="11.35"/><rect class="cls-82" x="54.09" y="16.59" width="0.05" height="11.35"/><rect class="cls-83" x="54.14" y="16.59" width="0.05" height="11.35"/><rect class="cls-84" x="54.19" y="16.59" width="0.05" height="11.35"/><rect class="cls-85" x="54.24" y="16.59" width="0.05" height="11.35"/><rect class="cls-86" x="54.28" y="16.59" width="0.05" height="11.35"/><rect class="cls-87" x="54.33" y="16.59" width="0.05" height="11.35"/><rect class="cls-88" x="54.38" y="16.59" width="0.05" height="11.35"/><rect class="cls-89" x="54.43" y="16.59" width="0.05" height="11.35"/><rect class="cls-90" x="54.48" y="16.59" width="0.05" height="11.35"/><rect class="cls-91" x="54.53" y="16.59" width="0.05" height="11.35"/><rect class="cls-92" x="54.58" y="16.59" width="0.05" height="11.35"/><rect class="cls-93" x="54.63" y="16.59" width="0.05" height="11.35"/><rect class="cls-94" x="54.68" y="16.59" width="0.05" height="11.35"/><rect class="cls-95" x="54.73" y="16.59" width="0.05" height="11.35"/><rect class="cls-96" x="54.78" y="16.59" width="0.05" height="11.35"/><rect class="cls-97" x="54.83" y="16.59" width="0.05" height="11.35"/><rect class="cls-98" x="54.88" y="16.59" width="0.05" height="11.35"/><rect class="cls-99" x="54.93" y="16.59" width="0.05" height="11.35"/><rect class="cls-100" x="54.98" y="16.59" width="0.05" height="11.35"/><rect class="cls-101" x="55.02" y="16.59" width="0.05" height="11.35"/><rect class="cls-102" x="55.07" y="16.59" width="0.05" height="11.35"/><rect class="cls-103" x="55.12" y="16.59" width="0.05" height="11.35"/><rect class="cls-104" x="55.17" y="16.59" width="0.05" height="11.35"/><rect class="cls-105" x="55.22" y="16.59" width="0.05" height="11.35"/><rect class="cls-106" x="55.27" y="16.59" width="0.05" height="11.35"/><rect class="cls-107" x="55.32" y="16.59" width="0.05" height="11.35"/><rect class="cls-108" x="55.37" y="16.59" width="0.05" height="11.35"/><rect class="cls-109" x="55.42" y="16.59" width="0.05" height="11.35"/><rect class="cls-110" x="55.47" y="16.59" width="0.05" height="11.35"/><rect class="cls-111" x="55.52" y="16.59" width="0.05" height="11.35"/><rect class="cls-112" x="55.57" y="16.59" width="0.05" height="11.35"/><rect class="cls-113" x="55.62" y="16.59" width="0.05" height="11.35"/><rect class="cls-114" x="55.67" y="16.59" width="0.05" height="11.35"/><rect class="cls-115" x="55.72" y="16.59" width="0.05" height="11.35"/><rect class="cls-116" x="55.76" y="16.59" width="0.05" height="11.35"/><rect class="cls-117" x="55.81" y="16.59" width="0.05" height="11.35"/><rect class="cls-118" x="55.86" y="16.59" width="0.05" height="11.35"/><rect class="cls-119" x="55.91" y="16.59" width="0.05" height="11.35"/><rect class="cls-120" x="55.96" y="16.59" width="0.05" height="11.35"/><rect class="cls-121" x="56.01" y="16.59" width="0.05" height="11.35"/><rect class="cls-122" x="56.06" y="16.59" width="0.05" height="11.35"/><rect class="cls-123" x="56.11" y="16.59" width="0.05" height="11.35"/><rect class="cls-124" x="56.16" y="16.59" width="0.05" height="11.35"/><rect class="cls-125" x="56.21" y="16.59" width="0.05" height="11.35"/><rect class="cls-126" x="56.26" y="16.59" width="0.05" height="11.35"/><rect class="cls-127" x="56.31" y="16.59" width="0.05" height="11.35"/><rect class="cls-128" x="56.36" y="16.59" width="0.05" height="11.35"/><rect class="cls-129" x="56.41" y="16.59" width="0.05" height="11.35"/><rect class="cls-130" x="56.46" y="16.59" width="0.05" height="11.35"/><rect class="cls-131" x="56.51" y="16.59" width="0.05" height="11.35"/><rect class="cls-132" x="56.55" y="16.59" width="0.05" height="11.35"/><rect class="cls-133" x="56.6" y="16.59" width="0.05" height="11.35"/><rect class="cls-134" x="56.65" y="16.59" width="0.05" height="11.35"/><rect class="cls-135" x="56.7" y="16.59" width="0.05" height="11.35"/><rect class="cls-136" x="56.75" y="16.59" width="0.05" height="11.35"/><rect class="cls-4" x="56.8" y="16.59" width="0.05" height="11.35"/><rect class="cls-4" x="56.85" y="16.59" width="0.03" height="11.35"/><rect class="cls-172" x="56.88" y="16.59" width="0.03" height="11.35"/><rect class="cls-173" x="56.91" y="16.59" width="0.03" height="11.35"/><rect class="cls-174" x="56.93" y="16.59" width="0.03" height="11.35"/><rect class="cls-175" x="56.96" y="16.59" width="0.03" height="11.35"/><rect class="cls-176" x="56.99" y="16.59" width="0.03" height="11.35"/><rect class="cls-177" x="57.02" y="16.59" width="0.03" height="11.35"/><rect class="cls-178" x="57.05" y="16.59" width="0.03" height="11.35"/><rect class="cls-179" x="57.07" y="16.59" width="0.03" height="11.35"/><rect class="cls-180" x="57.1" y="16.59" width="0.03" height="11.35"/><rect class="cls-181" x="57.13" y="16.59" width="0.03" height="11.35"/><rect class="cls-182" x="57.16" y="16.59" width="0.03" height="11.35"/><rect class="cls-183" x="57.19" y="16.59" width="0.03" height="11.35"/><rect class="cls-184" x="57.21" y="16.59" width="0.03" height="11.35"/><rect class="cls-185" x="57.24" y="16.59" width="0.03" height="11.35"/><rect class="cls-186" x="57.27" y="16.59" width="0.03" height="11.35"/><rect class="cls-187" x="57.3" y="16.59" width="0.03" height="11.35"/><rect class="cls-188" x="57.33" y="16.59" width="0.03" height="11.35"/><rect class="cls-189" x="57.35" y="16.59" width="0.03" height="11.35"/><rect class="cls-190" x="57.38" y="16.59" width="0.03" height="11.35"/><rect class="cls-191" x="57.41" y="16.59" width="0.03" height="11.35"/><rect class="cls-192" x="57.44" y="16.59" width="0.03" height="11.35"/><rect class="cls-193" x="57.47" y="16.59" width="0.03" height="11.35"/><rect class="cls-194" x="57.49" y="16.59" width="0.03" height="11.35"/><rect class="cls-195" x="57.52" y="16.59" width="0.03" height="11.35"/><rect class="cls-196" x="57.55" y="16.59" width="0.03" height="11.35"/><rect class="cls-197" x="57.58" y="16.59" width="0.03" height="11.35"/><rect class="cls-198" x="57.61" y="16.59" width="0.03" height="11.35"/><rect class="cls-199" x="57.63" y="16.59" width="0.03" height="11.35"/><rect class="cls-200" x="57.66" y="16.59" width="0.03" height="11.35"/><rect class="cls-201" x="57.69" y="16.59" width="0.03" height="11.35"/><rect class="cls-202" x="57.72" y="16.59" width="0.03" height="11.35"/><rect class="cls-203" x="57.75" y="16.59" width="0.03" height="11.35"/><rect class="cls-204" x="57.77" y="16.59" width="0.03" height="11.35"/><rect class="cls-205" x="57.8" y="16.59" width="0.03" height="11.35"/><rect class="cls-206" x="57.83" y="16.59" width="0.03" height="11.35"/><rect class="cls-207" x="57.86" y="16.59" width="0.03" height="11.35"/><rect class="cls-208" x="57.89" y="16.59" width="0.03" height="11.35"/><rect class="cls-209" x="57.92" y="16.59" width="0.03" height="11.35"/><rect class="cls-210" x="57.94" y="16.59" width="0.03" height="11.35"/><rect class="cls-211" x="57.97" y="16.59" width="0.03" height="11.35"/><rect class="cls-212" x="58" y="16.59" width="0.03" height="11.35"/><rect class="cls-213" x="58.03" y="16.59" width="0.03" height="11.35"/><rect class="cls-214" x="58.06" y="16.59" width="0.03" height="11.35"/><rect class="cls-215" x="58.08" y="16.59" width="0.03" height="11.35"/><rect class="cls-216" x="58.11" y="16.59" width="0.03" height="11.35"/><rect class="cls-217" x="58.14" y="16.59" width="0.03" height="11.35"/><rect class="cls-218" x="58.17" y="16.59" width="0.03" height="11.35"/><rect class="cls-219" x="58.2" y="16.59" width="0.03" height="11.35"/><rect class="cls-220" x="58.22" y="16.59" width="0.03" height="11.35"/><rect class="cls-221" x="58.25" y="16.59" width="0.03" height="11.35"/><rect class="cls-222" x="58.28" y="16.59" width="0.03" height="11.35"/><rect class="cls-223" x="58.31" y="16.59" width="0.03" height="11.35"/><rect class="cls-224" x="58.34" y="16.59" width="0.03" height="11.35"/><rect class="cls-225" x="58.36" y="16.59" width="0.03" height="11.35"/><rect class="cls-226" x="58.39" y="16.59" width="0.03" height="11.35"/><rect class="cls-227" x="58.42" y="16.59" width="0.03" height="11.35"/><rect class="cls-228" x="58.45" y="16.59" width="0.03" height="11.35"/><rect class="cls-229" x="58.48" y="16.59" width="0.03" height="11.35"/><rect class="cls-230" x="58.5" y="16.59" width="0.03" height="11.35"/><rect class="cls-231" x="58.53" y="16.59" width="0.03" height="11.35"/><rect class="cls-232" x="58.56" y="16.59" width="0.03" height="11.35"/><rect class="cls-233" x="58.59" y="16.59" width="0.03" height="11.35"/><rect class="cls-234" x="58.62" y="16.59" width="0.03" height="11.35"/><rect class="cls-235" x="58.64" y="16.59" width="0.03" height="11.35"/><rect class="cls-236" x="58.67" y="16.59" width="0.03" height="11.35"/><rect class="cls-237" x="58.7" y="16.59" width="0.03" height="11.35"/><rect class="cls-238" x="58.73" y="16.59" width="0.03" height="11.35"/><rect class="cls-239" x="58.76" y="16.59" width="0.03" height="11.35"/><rect class="cls-240" x="58.78" y="16.59" width="0.03" height="11.35"/><rect class="cls-241" x="58.81" y="16.59" width="0.03" height="11.35"/><rect class="cls-242" x="58.84" y="16.59" width="0.03" height="11.35"/><rect class="cls-243" x="58.87" y="16.59" width="0.03" height="11.35"/><rect class="cls-244" x="58.9" y="16.59" width="0.03" height="11.35"/><rect class="cls-245" x="58.92" y="16.59" width="0.03" height="11.35"/><rect class="cls-246" x="58.95" y="16.59" width="0.03" height="11.35"/><rect class="cls-247" x="58.98" y="16.59" width="0.03" height="11.35"/><rect class="cls-248" x="59.01" y="16.59" width="0.03" height="11.35"/><rect class="cls-249" x="59.04" y="16.59" width="0.03" height="11.35"/><rect class="cls-250" x="59.06" y="16.59" width="0.03" height="11.35"/><rect class="cls-2" x="59.09" y="16.59" width="0.03" height="11.35"/><path class="cls-2" d="M59.12,27.94v0Z" transform="translate(0 0)"/></g><g class="cls-251"><rect class="cls-252" x="47.7" y="16.52" width="11.5" height="11.5"/></g><path class="cls-253" d="M38.37,27.6a3.36,3.36,0,0,0,2.68,1.65,2.59,2.59,0,0,0,2.88-2.77v-.61a4,4,0,0,1-3,1.25,5.07,5.07,0,0,1-5.32-5.26A5.07,5.07,0,0,1,41,16.59a4.33,4.33,0,0,1,3,1.13v-.85H46.3v9.48c0,3.18-2,4.93-5.25,4.93a5.62,5.62,0,0,1-4.56-2.44Zm2.59-9a3,3,0,0,0-3,3.27,3,3,0,0,0,3,3.27,3,3,0,0,0,2.95-3.27A2.94,2.94,0,0,0,41,18.59" transform="translate(0 0)"/><polygon class="cls-253" points="59.35 16.87 61.87 16.87 63.95 22.75 64.38 24.19 64.82 22.75 66.91 16.87 69.42 16.87 65.23 27.22 63.55 27.22 59.35 16.87"/><path class="cls-253" d="M79.94,24.91a5.61,5.61,0,0,1-4.68,2.58c-3.06,0-5.15-2.2-5.15-5.45s2.22-5.45,5-5.45a4.92,4.92,0,0,1,5,5.21v1.13H72.58a2.83,2.83,0,0,0,2.68,2.57,3.43,3.43,0,0,0,3-1.91ZM77.65,21a2.55,2.55,0,0,0-5.08,0Z" transform="translate(0 0)"/><path class="cls-253" d="M87.57,18.7a2.91,2.91,0,0,0-3.1,2.2A8.79,8.79,0,0,0,84.3,23v4.27H81.94V16.87H84.3v.87a4.68,4.68,0,0,1,3.27-1.13Z" transform="translate(0 0)"/><path class="cls-253" d="M91.51,16.87v.87a4.29,4.29,0,0,1,2.77-1.15,4,4,0,0,1,3.79,2.14,5.82,5.82,0,0,1,.5,2.7v5.79H96.19V21.43a4.72,4.72,0,0,0-.26-1.64,1.7,1.7,0,0,0-1.65-1.17,2.84,2.84,0,0,0-2.6,2.28A9.4,9.4,0,0,0,91.51,23v4.27H89.15V16.87Z" transform="translate(0 0)"/><g class="cls-254"><rect class="cls-255" width="118.71" height="71.25"/></g></g></g></svg>