<?xml version="1.0" encoding="UTF-8"?><svg xmlns="http://www.w3.org/2000/svg" viewBox="0 0 690.93 247.51"><defs><style>.d{fill:#fff;}</style></defs><g id="a"/><g id="b"><g id="c"><g><path class="d" d="M103.78,39.94C46.47,39.94,0,86.4,0,143.72s46.47,103.78,103.78,103.78,103.78-46.47,103.78-103.78S161.1,39.94,103.78,39.94Zm0,176.69c-40.26,0-72.9-32.64-72.9-72.9S63.52,70.82,103.78,70.82s72.9,32.64,72.9,72.9-32.64,72.9-72.9,72.9Z"/><polygon class="d" points="332.19 99.38 309.17 99.38 274.34 217.8 273.92 217.8 241.18 99.38 220.26 99.38 263.56 247.51 284.9 247.51 320.47 126.58 320.89 126.58 349.14 216.41 360.56 189.01 332.19 99.38"/><path class="d" d="M415.4,99.38l-61.72,148.12h23.43l14.65-36.61h70.51l10.93,26.96v-55.47l-34.85-83h-22.95Zm-16.53,93.94l28.03-68h.42l27.62,68h-56.07Z"/><polygon class="d" points="509.14 163.4 509.14 99.38 489.06 99.38 489.06 247.51 509.14 247.51 509.14 173.44 575.69 243.03 575.69 212.57 532.79 167.8 575.69 126.78 575.69 99.98 509.14 163.4"/><polygon class="d" points="611.63 228.67 611.63 181.18 681.93 181.18 681.93 162.36 611.63 162.36 611.63 118.21 687.16 118.21 687.16 99.38 591.55 99.38 591.55 99.38 591.55 247.51 690.93 247.51 690.93 228.67 611.63 228.67"/></g><g><path class="d" d="M666.91,79.87h-80.47c-13.24,0-24.01-10.77-24.01-24.01V24.01c0-13.24,10.77-24.01,24.01-24.01h80.47c13.24,0,24.01,10.77,24.01,24.01v31.84c0,13.24-10.77,24.01-24.01,24.01ZM586.44,6.46c-9.68,0-17.56,7.88-17.56,17.56v31.84c0,9.68,7.88,17.56,17.56,17.56h80.47c9.68,0,17.56-7.88,17.56-17.56V24.01c0-9.68-7.88-17.56-17.56-17.56h-80.47Z"/><g><path class="d" d="M583.42,24.17h5.59v4.92h.13c.13-.44,.48-1,1.03-1.67,.55-.67,1.26-1.3,2.13-1.9,.86-.6,1.88-1.11,3.06-1.53,1.18-.42,2.47-.63,3.89-.63,2.35,0,4.33,.49,5.92,1.46,1.6,.98,2.91,2.44,3.93,4.39,1.02-1.95,2.46-3.42,4.33-4.39,1.86-.98,3.75-1.46,5.66-1.46,2.44,0,4.44,.4,5.99,1.2,1.55,.8,2.77,1.85,3.66,3.16,.89,1.31,1.5,2.8,1.83,4.46,.33,1.67,.5,3.38,.5,5.16v18.37h-5.99v-17.57c0-1.2-.08-2.35-.23-3.46-.16-1.11-.48-2.08-.97-2.93-.49-.84-1.18-1.52-2.06-2.03-.89-.51-2.06-.77-3.53-.77-2.88,0-4.95,.89-6.19,2.66-1.24,1.77-1.86,4.06-1.86,6.85v17.24h-5.99v-16.5c0-1.51-.08-2.88-.23-4.12-.16-1.24-.47-2.32-.93-3.23-.47-.91-1.13-1.62-2-2.13-.87-.51-2.03-.77-3.49-.77-1.06,0-2.1,.21-3.09,.63-1,.42-1.87,1.05-2.63,1.9-.76,.84-1.35,1.92-1.8,3.23-.44,1.31-.67,2.85-.67,4.63v16.37h-5.99V24.17Z"/><path class="d" d="M644.64,42.13c0,1.38,.3,2.63,.9,3.76,.6,1.13,1.39,2.1,2.36,2.9,.97,.8,2.11,1.42,3.39,1.86,1.29,.45,2.62,.67,3.99,.67,1.86,0,3.48-.43,4.86-1.3,1.38-.86,2.64-2.01,3.79-3.43l4.52,3.46c-3.33,4.3-7.99,6.46-13.97,6.46-2.48,0-4.74-.42-6.75-1.26-2.02-.84-3.73-2.01-5.12-3.49-1.4-1.49-2.47-3.24-3.23-5.26-.75-2.02-1.13-4.2-1.13-6.56s.41-4.54,1.23-6.55c.82-2.02,1.95-3.77,3.39-5.26,1.44-1.49,3.16-2.65,5.16-3.5,2-.84,4.17-1.26,6.52-1.26,2.8,0,5.16,.49,7.09,1.46,1.93,.98,3.52,2.25,4.76,3.82,1.24,1.58,2.14,3.35,2.7,5.33,.55,1.97,.83,3.98,.83,6.02v2.13h-25.29Zm18.9-4.79c-.04-1.33-.26-2.55-.63-3.66-.38-1.11-.94-2.07-1.7-2.9-.75-.82-1.7-1.46-2.83-1.93-1.13-.47-2.45-.7-3.96-.7s-2.81,.28-4.03,.83c-1.22,.55-2.25,1.28-3.09,2.16-.84,.89-1.5,1.87-1.96,2.96-.47,1.09-.7,2.16-.7,3.23h18.9Z"/></g></g></g></g></svg>