<svg width="296" height="284" xmlns="http://www.w3.org/2000/svg" xmlns:xlink="http://www.w3.org/1999/xlink" overflow="hidden"><defs><clipPath id="clip0"><rect x="116" y="177" width="296" height="284"/></clipPath></defs><g clip-path="url(#clip0)" transform="translate(-116 -177)"><path d="M65.6995 77.1365C63.0308 77.2636 60.6163 78.9156 59.8539 81.4572 58.9643 83.9988 59.7268 86.7945 61.7601 88.4465L81.4572 106.11 6.73515 106.11C6.48099 106.11 6.35391 106.11 6.09976 106.11 4.44774 106.237 2.79572 107 1.65202 108.271 0.508313 109.541-0.127078 111.194 0 112.973 0.127078 114.625 0.889548 116.277 2.16033 117.42 3.43111 118.564 5.08313 119.199 6.86223 119.072L81.5843 119.072 61.8871 136.736C59.2185 139.151 58.9643 143.217 61.3788 145.886 63.7933 148.555 67.8598 148.809 70.5285 146.394L102.679 117.42C104.077 116.15 104.84 114.498 104.84 112.591 104.84 110.685 104.077 109.033 102.679 107.762L70.4014 78.7885C69.1306 77.6448 67.3515 77.0094 65.6995 77.1365L65.6995 77.1365Z" fill="#FFFFFF" transform="matrix(1 0 0 1.00307 116.716 177)"/><path d="M288.086 0 124.028 0C123.774 0 123.647 0 123.393 0L123.393 0C120.089 0.254157 117.547 3.04988 117.547 6.48099L117.547 222.133C117.547 225.691 120.47 228.614 124.028 228.614L153.002 228.614 153.002 276.904C153.002 279.064 154.019 281.097 155.925 282.241 157.704 283.385 159.992 283.639 162.025 282.749L290.755 229.122C293.17 228.106 294.695 225.818 294.695 223.149L294.695 6.48099C294.568 2.9228 291.645 0 288.086 0ZM156.815 58.5831C154.527 59.5997 153.002 61.8871 153.002 64.4287L153.002 215.652 130.509 215.652 130.509 12.962 257.969 12.962 156.815 58.5831ZM281.733 218.829 165.837 267.119 165.837 68.4952 281.733 16.266 281.733 218.829Z" fill="#FFFFFF" transform="matrix(1 0 0 1.00307 116.716 177)"/><path d="M185.153 167.489C186.932 167.489 188.584 166.854 189.728 165.583 190.999 164.312 191.634 162.66 191.634 161.008L191.634 149.19 210.188 141.184C213.364 140.167 215.144 136.863 214.381 133.686 213.619 130.509 210.569 128.349 207.265 128.73L207.265 128.73C207.138 128.73 206.883 128.73 206.756 128.857 206.248 128.984 205.613 129.112 205.104 129.366L182.612 139.024C180.197 140.04 178.672 142.328 178.672 144.996L178.672 161.135C178.672 162.914 179.307 164.566 180.578 165.71 181.722 166.727 183.374 167.489 185.153 167.489Z" fill="#34324B" transform="matrix(1 0 0 1.00307 116.716 177)"/></g></svg>