<svg width="53" height="53" xmlns="http://www.w3.org/2000/svg" xmlns:xlink="http://www.w3.org/1999/xlink" overflow="hidden"><defs><clipPath id="clip0"><rect x="301" y="405" width="53" height="53"/></clipPath></defs><g clip-path="url(#clip0)" transform="translate(-301 -405)"><path d="M354 431.5C354 446.136 342.136 458 327.5 458 312.864 458 301 446.136 301 431.5 301 416.864 312.864 405 327.5 405 342.136 405 354 416.864 354 431.5Z" fill="#34324B"/><path d="M342.001 418.992 312.999 418.992C312.252 418.992 311.644 419.6 311.644 420.348L311.644 438.566C311.644 439.313 312.252 439.921 312.999 439.921L326.683 439.921 326.683 442.383 320.892 442.383 320.892 444.008 334.088 444.008 334.088 442.383 328.307 442.383 328.307 439.921 341.991 439.921C342.738 439.921 343.346 439.313 343.346 438.566L343.346 420.348C343.346 419.6 342.748 418.992 342.001 418.992L342.001 418.992ZM342.27 438.566C342.27 438.715 342.15 438.835 342.001 438.835L312.999 438.835C312.85 438.835 312.73 438.715 312.73 438.566L312.73 420.348C312.73 420.198 312.85 420.079 312.999 420.079L342.001 420.079C342.15 420.079 342.27 420.198 342.27 420.348L342.27 438.566Z" fill="#FD7576"/><path d="M334.307 428.879 328.078 428.879 328.078 422.65 326.922 422.65 326.922 428.879 320.693 428.879 320.693 430.035 326.922 430.035 326.922 436.264 328.078 436.264 328.078 430.035 334.307 430.035Z" fill="#FD7576"/></g></svg>