<svg width="273" height="216" xmlns="http://www.w3.org/2000/svg" xmlns:xlink="http://www.w3.org/1999/xlink" overflow="hidden"><defs><clipPath id="clip0"><rect x="760" y="201" width="273" height="216"/></clipPath></defs><g clip-path="url(#clip0)" transform="translate(-760 -201)"><path d="M261.249 0 11.5932 0C5.16529 0 0 5.16529 0 11.5932L0 168.388C0 174.816 5.16529 179.982 11.5932 179.982L129.477 179.982 129.477 201.217 79.6602 201.217 79.6602 215.22 193.297 215.22 193.297 201.217 143.48 201.217 143.48 179.982 261.364 179.982C267.792 179.982 272.957 174.816 272.957 168.388L272.957 11.5932C272.842 5.16529 267.677 0 261.249 0L261.249 0ZM263.545 168.503C263.545 169.766 262.512 170.799 261.249 170.799L11.5932 170.799C10.3306 170.799 9.29752 169.766 9.29752 168.503L9.29752 11.708C9.29752 10.4454 10.3306 9.41231 11.5932 9.41231L261.249 9.41231C262.512 9.41231 263.545 10.4454 263.545 11.708L263.545 168.503Z" fill="#FFFFFF" transform="matrix(1.00058 0 0 1 760 201.39)"/><path d="M195.018 85.0551 141.414 85.0551 141.414 31.4509 131.543 31.4509 131.543 85.0551 77.8237 85.0551 77.8237 94.9266 131.543 94.9266 131.543 148.646 141.414 148.646 141.414 94.9266 195.018 94.9266Z" fill="#FD7576" transform="matrix(1.00058 0 0 1 760 201.39)"/></g></svg>