<svg width="272" height="216" xmlns="http://www.w3.org/2000/svg" xmlns:xlink="http://www.w3.org/1999/xlink" overflow="hidden"><defs><clipPath id="clip0"><rect x="457" y="201" width="272" height="216"/></clipPath></defs><g clip-path="url(#clip0)" transform="translate(-457 -201)"><path d="M260.443 0 11.5574 0C5.14935 0 0 5.14935 0 11.5574L0 167.869C0 174.277 5.14935 179.426 11.5574 179.426L129.077 179.426 129.077 200.596 79.4144 200.596 79.4144 214.556 192.7 214.556 192.7 200.596 143.037 200.596 143.037 179.426 260.557 179.426C266.965 179.426 272.114 174.277 272.114 167.869L272.114 11.5574C272 5.14935 266.851 0 260.443 0L260.443 0ZM262.731 167.983C262.731 169.242 261.701 170.272 260.443 170.272L11.5574 170.272C10.2987 170.272 9.26883 169.242 9.26883 167.983L9.26883 11.6719C9.26883 10.4131 10.2987 9.38326 11.5574 9.38326L260.443 9.38326C261.701 9.38326 262.731 10.4131 262.731 11.6719L262.731 167.983Z" fill="#FFFFFF" transform="matrix(1 0 0 1.0031 457 201.39)"/><path d="M194.416 84.7926 140.978 84.7926 140.978 31.3538 131.137 31.3538 131.137 84.7926 77.5835 84.7926 77.5835 94.6336 131.137 94.6336 131.137 148.187 140.978 148.187 140.978 94.6336 194.416 94.6336Z" fill="#FEC85D" transform="matrix(1 0 0 1.0031 457 201.39)"/></g></svg>