<svg width="297" height="67" xmlns="http://www.w3.org/2000/svg" xmlns:xlink="http://www.w3.org/1999/xlink" overflow="hidden"><defs><clipPath id="clip0"><rect x="491" y="326" width="297" height="67"/></clipPath></defs><g clip-path="url(#clip0)" transform="translate(-491 -326)"><path d="M524.726 326C506.229 326 491.231 340.999 491.231 359.495 491.231 377.991 506.229 392.99 524.726 392.99 543.222 392.99 558.221 377.991 558.221 359.495 558.221 340.999 543.232 326 524.726 326ZM547.099 381.868 536.297 378.851C532.92 380.879 528.963 382.038 524.736 382.038 512.285 382.038 502.192 371.946 502.192 359.495 502.192 347.044 512.285 336.952 524.736 336.952 537.186 336.952 547.279 347.044 547.279 359.495 547.279 363.772 546.09 367.779 544.011 371.186L547.099 381.868Z" fill="#FFFFFF"/><path d="M524.726 344.566C516.482 344.566 509.797 351.251 509.797 359.495 509.797 362.323 510.586 364.961 511.945 367.219L509.897 374.274 517.021 372.285C519.27 373.644 521.908 374.424 524.736 374.424 532.979 374.424 539.664 367.739 539.664 359.495 539.664 351.251 532.979 344.566 524.726 344.566ZM524.726 367.139C520.499 367.139 517.081 363.712 517.081 359.495 517.081 355.278 520.509 351.851 524.726 351.851 528.943 351.851 532.37 355.278 532.37 359.495 532.37 363.712 528.953 367.139 524.726 367.139Z" fill="#FFFFFF"/><path d="M639.5 347.054C639.17 347.564 638.93 347.914 638.721 348.263 634.943 354.439 631.166 360.614 627.409 366.8 626.809 367.799 626.08 368.558 624.861 368.688 622.982 368.888 621.573 367.849 621.164 365.9 620.904 364.631 620.694 363.352 620.464 362.083 618.726 352.45 616.997 342.827 615.268 333.195 615.178 332.675 615.108 332.155 615.008 331.536 617.217 331.536 619.375 331.536 621.653 331.536 623.112 339.51 624.561 347.504 626.02 355.508 626.1 355.538 626.18 355.558 626.26 355.588 626.48 355.268 626.71 354.958 626.909 354.629 630.087 349.562 633.265 344.496 636.432 339.42 636.912 338.661 637.452 338.001 638.321 337.671 639.62 337.182 641.049 337.511 641.958 338.571 642.258 338.91 642.508 339.3 642.748 339.69 645.815 344.596 648.883 349.512 651.961 354.419 652.201 354.799 652.46 355.168 652.86 355.778 653.549 352.95 653.909 350.302 654.419 347.684 654.938 344.996 655.398 342.288 655.888 339.59 656.367 336.932 656.857 334.274 657.367 331.456 659.535 331.436 661.683 331.446 663.982 331.446 663.742 332.895 663.532 334.234 663.292 335.563 661.554 345.306 659.815 355.058 658.066 364.801 657.956 365.401 657.846 366 657.646 366.58 657.237 367.769 656.357 368.458 655.138 368.658 653.839 368.868 652.73 368.458 651.931 367.359 651.691 367.019 651.481 366.66 651.261 366.3 647.594 360.284 643.927 354.259 640.259 348.243 640.06 347.894 639.83 347.554 639.5 347.054Z" fill="#FFFFFF"/><path d="M705.051 368.219C702.793 368.219 700.744 368.219 698.526 368.219 698.456 365.271 698.526 362.363 698.486 359.325 698.016 359.275 697.617 359.205 697.217 359.205 690.162 359.195 683.117 359.195 676.063 359.205 675.693 359.205 675.323 359.255 674.814 359.295 674.814 362.293 674.814 365.211 674.814 368.189 672.595 368.189 670.427 368.189 668.269 368.189 668.269 367.919 668.249 367.689 668.249 367.439 668.249 361.224 668.149 355.008 668.299 348.803 668.418 343.747 670.387 339.4 674.194 335.993 676.842 333.624 679.98 332.205 683.497 331.706 684.696 331.536 685.925 331.476 687.134 331.466 691.901 331.436 696.657 331.446 701.424 331.456 703.172 331.456 704.392 332.265 704.861 333.744 704.991 334.174 705.021 334.644 705.021 335.093 705.041 337.302 705.031 339.51 705.031 341.728 705.031 350.072 705.031 358.416 705.031 366.77 705.051 367.209 705.051 367.659 705.051 368.219ZM698.416 338.001C697.876 338.001 697.497 338.001 697.117 338.001 693.879 338.001 690.642 337.951 687.404 338.021 686.085 338.051 684.736 338.201 683.447 338.511 679.95 339.33 677.322 341.289 675.813 344.626 675.093 346.215 674.874 347.914 674.814 349.632 674.784 350.572 674.804 351.511 674.804 352.53 675.323 352.58 675.693 352.64 676.063 352.64 683.107 352.65 690.152 352.65 697.197 352.64 697.597 352.64 697.996 352.56 698.406 352.51 698.416 347.644 698.416 342.907 698.416 338.001Z" fill="#FFFFFF"/><path d="M591.116 368.718C589.287 368.718 587.449 368.788 585.63 368.708 578.056 368.348 572.35 363.022 571.451 355.528 571.361 354.739 571.291 353.929 571.301 353.14 571.331 350.132 571.191 347.104 571.501 344.116 572.26 336.762 578.266 331.246 585.63 331.026 589.367 330.916 593.105 330.906 596.842 331.026 604.546 331.276 610.682 337.372 611.001 345.086 611.131 348.323 611.131 351.571 610.991 354.799 610.661 362.373 604.636 368.348 597.062 368.708 595.083 368.798 593.095 368.718 591.116 368.718 591.116 368.708 591.116 368.718 591.116 368.718ZM591.156 362.153C591.156 362.143 591.156 362.133 591.156 362.123 593.065 362.123 594.973 362.223 596.872 362.103 600.929 361.843 604.176 358.726 604.396 354.689 604.576 351.461 604.516 348.213 604.396 344.986 604.316 342.897 603.357 341.119 601.788 339.69 600.249 338.291 598.421 337.601 596.382 337.571 592.955 337.511 589.527 337.531 586.1 337.571 585.35 337.581 584.581 337.721 583.852 337.931 580.374 338.9 578.126 341.708 577.926 345.605 577.776 348.453 577.756 351.331 577.936 354.169 578.226 358.895 581.333 361.883 586.03 362.143 587.729 362.233 589.447 362.153 591.156 362.153Z" fill="#FFFFFF"/><path d="M787.769 337.961C787.769 335.753 787.769 333.674 787.769 331.456 787.29 331.456 786.94 331.456 786.6 331.456 777.187 331.456 767.774 331.456 758.361 331.456 758.091 331.456 757.832 331.446 757.562 331.466 755.873 331.586 754.654 332.755 754.474 334.444 754.424 334.893 754.434 335.353 754.434 335.813 754.434 343.167 754.434 350.522 754.434 357.876 754.434 358.676 754.444 359.475 754.524 360.274 754.784 362.892 756.003 364.961 758.151 366.48 759.96 367.759 762.029 368.238 764.197 368.238 771.671 368.258 779.136 368.248 786.61 368.248 786.98 368.248 787.35 368.208 787.769 368.189 787.769 366.03 787.769 363.962 787.769 361.733 787.26 361.733 786.81 361.733 786.36 361.733 779.236 361.733 772.101 361.733 764.976 361.733 764.517 361.733 764.057 361.743 763.607 361.683 761.759 361.464 761.049 360.684 761.049 358.836 761.049 357.037 761.049 355.248 761.049 353.45L784.802 353.45 784.802 346.615 761.039 346.615C761.039 344.096 761.039 341.578 761.039 339.05 761.039 338.73 761.019 338.401 761.069 337.961 769.993 337.961 778.906 337.961 787.769 337.961Z" fill="#FFFFFF"/><path d="M750.677 367.999C744.492 361.973 738.216 355.948 732.071 349.962 732.131 349.802 732.231 349.762 732.241 349.732 732.261 349.702 732.281 349.662 732.301 349.632 732.381 349.542 732.451 349.462 732.531 349.383 737.667 344.386 742.803 339.39 747.949 334.394 748.739 333.624 749.528 332.845 750.317 332.075 750.367 332.026 750.427 331.976 750.477 331.916 750.527 331.856 750.557 331.796 750.597 331.726 750.607 331.696 750.617 331.656 750.607 331.626 750.597 331.586 750.597 331.466 750.447 331.466 747.809 331.466 745.231 331.496 742.563 331.446 741.844 331.436 741.364 331.686 740.874 332.175 736.558 336.532 732.181 340.849 727.904 345.246 727.055 346.115 726.325 346.455 725.136 346.555L719.001 346.555C719.001 341.548 719.001 336.552 719.001 331.546 716.812 331.546 714.704 331.546 712.536 331.546 712.536 343.797 712.536 355.968 712.536 368.208 714.694 368.208 716.772 368.208 719.001 368.208 719.001 363.192 719.001 358.186 719.001 353.19L725.386 353.19C726.405 353.3 727.075 353.659 727.844 354.439 732.161 358.855 736.558 363.192 740.904 367.579 741.404 368.079 741.894 368.308 742.603 368.288 744.202 368.238 745.801 368.278 747.409 368.278 748.469 368.278 749.528 368.278 750.587 368.278 750.797 368.258 750.847 368.139 750.677 367.999Z" fill="#FFFFFF"/><path d="M578.006 388.214C575.408 388.214 573.569 386.895 573.539 384.956L575.338 384.956C575.448 385.935 576.207 386.915 578.006 386.915 579.635 386.915 580.604 386.075 580.604 384.956 580.604 381.788 573.609 383.807 573.609 379.44 573.609 377.502 575.338 376.183 577.896 376.183 580.364 376.183 581.973 377.412 582.183 379.2L580.324 379.2C580.214 378.411 579.395 377.512 577.816 377.502 576.427 377.472 575.328 378.121 575.328 379.39 575.328 382.428 582.303 380.539 582.303 384.886 582.303 386.565 580.804 388.214 578.006 388.214Z" fill="#FFFFFF"/><path d="M594.923 382.768 588.338 382.768 588.338 388.094 586.649 388.094 586.649 376.342 588.338 376.342 588.338 381.499 594.923 381.499 594.923 376.342 596.612 376.342 596.612 388.094 594.923 388.094 594.923 382.768Z" fill="#FFFFFF"/><path d="M608.963 385.486 603.327 385.486 602.288 388.104 600.509 388.104 605.186 376.412 607.134 376.412 611.791 388.104 610.012 388.104 608.963 385.486ZM606.145 378.301 603.807 384.237 608.483 384.237 606.145 378.301Z" fill="#FFFFFF"/><path d="M619.855 376.342C622.892 376.342 624.341 377.881 624.341 379.8 624.341 381.299 623.432 382.738 621.264 383.177L624.511 388.104 622.493 388.104 619.415 383.297 617.377 383.297 617.377 388.104 615.688 388.104 615.688 376.342 619.855 376.342ZM619.855 377.611 617.367 377.611 617.367 382.068 619.855 382.068C621.763 382.068 622.603 381.129 622.603 379.81 622.593 378.471 621.783 377.611 619.855 377.611Z" fill="#FFFFFF"/><path d="M635.763 377.591 630.497 377.591 630.497 381.519 635.213 381.519 635.213 382.788 630.497 382.788 630.497 386.835 635.763 386.835 635.763 388.104 628.808 388.104 628.808 376.332 635.763 376.332 635.763 377.591Z" fill="#FFFFFF"/><path d="M645.915 376.342 647.794 376.342 650.981 382.298 654.169 376.342 656.048 376.342 651.841 383.657 651.841 388.094 650.152 388.094 650.152 383.657 645.915 376.342Z" fill="#FFFFFF"/><path d="M665.541 388.214C661.903 388.214 659.045 385.735 659.045 382.208 659.045 378.681 661.903 376.203 665.541 376.203 669.198 376.203 672.036 378.681 672.036 382.208 672.036 385.735 669.198 388.214 665.541 388.214ZM665.541 386.885C668.269 386.885 670.307 385.076 670.307 382.218 670.307 379.33 668.269 377.552 665.541 377.552 662.813 377.552 660.774 379.34 660.774 382.218 660.774 385.076 662.813 386.885 665.541 386.885Z" fill="#FFFFFF"/><path d="M676.073 376.342 677.761 376.342 677.761 383.777C677.761 385.935 679.041 386.865 680.949 386.865 682.858 386.865 684.117 385.935 684.117 383.777L684.117 376.342 685.805 376.342 685.805 383.767C685.805 386.815 683.597 388.224 680.929 388.224 678.261 388.224 676.073 386.825 676.073 383.767L676.073 376.342Z" fill="#FFFFFF"/><path d="M694.659 376.342C697.697 376.342 699.146 377.881 699.146 379.8 699.146 381.299 698.236 382.738 696.068 383.177L699.315 388.104 697.297 388.104 694.219 383.297 692.181 383.297 692.181 388.104 690.492 388.104 690.492 376.342 694.659 376.342ZM694.659 377.611 692.171 377.611 692.171 382.068 694.659 382.068C696.567 382.068 697.407 381.129 697.407 379.81 697.407 378.471 696.597 377.611 694.659 377.611Z" fill="#FFFFFF"/><path d="M710.427 376.342 712.116 376.342 712.116 388.094 710.427 388.094 710.427 376.342Z" fill="#FFFFFF"/><path d="M727.015 376.332 727.015 388.104 725.326 388.104 718.541 378.741 718.541 388.104 716.852 388.104 716.852 376.332 718.541 376.332 725.326 385.675 725.326 376.332 727.015 376.332Z" fill="#FFFFFF"/><path d="M735.848 388.214C733.25 388.214 731.411 386.895 731.381 384.956L733.18 384.956C733.29 385.935 734.049 386.915 735.848 386.915 737.477 386.915 738.446 386.075 738.446 384.956 738.446 381.788 731.451 383.807 731.451 379.44 731.451 377.502 733.18 376.183 735.738 376.183 738.206 376.183 739.815 377.412 740.025 379.2L738.166 379.2C738.056 378.411 737.237 377.512 735.658 377.502 734.269 377.472 733.17 378.121 733.17 379.39 733.17 382.428 740.145 380.539 740.145 384.886 740.145 386.565 738.646 388.214 735.848 388.214Z" fill="#FFFFFF"/><path d="M744.492 376.342 746.18 376.342 746.18 388.094 744.492 388.094 744.492 376.342Z" fill="#FFFFFF"/><path d="M761.519 379.75 759.68 379.75C759.041 378.381 757.762 377.591 756.103 377.591 753.625 377.591 751.766 379.38 751.766 382.208 751.766 385.026 753.625 386.815 756.103 386.815 758.411 386.815 760 385.326 760.23 383.007L755.543 383.007 755.543 381.758 761.869 381.758 761.869 382.938C761.599 385.855 759.291 388.204 756.103 388.204 752.795 388.204 750.197 385.745 750.197 382.218 750.197 378.691 752.795 376.213 756.103 376.213 758.581 376.213 760.64 377.492 761.519 379.75Z" fill="#FFFFFF"/><path d="M772.301 382.768 765.716 382.768 765.716 388.094 764.027 388.094 764.027 376.342 765.716 376.342 765.716 381.499 772.301 381.499 772.301 376.342 773.99 376.342 773.99 388.094 772.301 388.094 772.301 382.768Z" fill="#FFFFFF"/><path d="M777.907 376.342 786.66 376.342 786.66 377.591 783.133 377.591 783.133 388.094 781.444 388.094 781.444 377.591 777.897 377.591 777.897 376.342Z" fill="#FFFFFF"/></g></svg>