<svg width="486" height="238" xmlns="http://www.w3.org/2000/svg" xmlns:xlink="http://www.w3.org/1999/xlink" overflow="hidden"><defs><clipPath id="clip0"><rect x="397" y="241" width="486" height="238"/></clipPath></defs><g clip-path="url(#clip0)" transform="translate(-397 -241)"><path d="M45.6863 83.7731C23.2455 83.7731 4.51499 69.0659 4.51499 48.1897L4.51499 35.5835C4.51499 14.7072 23.2455 0 45.6863 0L53.8669 0C76.3077 0 95.0382 14.7072 95.0382 35.5835L95.0382 48.145C95.0382 69.0212 76.3077 83.7284 53.8669 83.7284L45.6863 83.7284ZM91.015 35.5835C91.015 16.9424 73.0891 3.53152 53.8669 3.53152L45.6863 3.53152C26.4641 3.53152 8.53824 16.9424 8.53824 35.5835L8.53824 48.145C8.53824 66.786 26.4641 80.1969 45.6863 80.1969L53.8669 80.1969C73.0891 80.1969 91.015 66.786 91.015 48.145L91.015 35.5835Z" fill="#FFFFFF" transform="matrix(1.0021 0 0 1 397 242.297)"/><path d="M188.422 82.2532 163.031 7.823 137.64 82.2532 131.471 82.2532 103.934 1.5646 108.226 1.5646 133.974 76.576 135.181 76.576 160.93 1.5646 165.222 1.5646 190.971 76.576 192.178 76.576 217.926 1.5646 222.218 1.5646 194.591 82.2532 188.422 82.2532Z" fill="#FFFFFF" transform="matrix(1.0021 0 0 1 397 242.297)"/><path d="M305.678 82.2532 293.206 57.2196 240.412 57.2196 228.074 82.2532 223.782 82.2532 263.791 1.5646 269.96 1.5646 309.969 82.2532 305.678 82.2532ZM267.457 5.09612 266.25 5.09612 242.2 53.6434 291.462 53.6434 267.457 5.09612Z" fill="#FFFFFF" transform="matrix(1.0021 0 0 1 397 242.297)"/><path d="M397.051 82.2532 356.46 35.8517 329.281 59.0077 329.281 82.2532 325.258 82.2532 325.258 1.5646 329.281 1.5646 329.281 54.0904 391.105 1.65401 396.559 1.65401 359.634 33.4377 401.521 82.2085 397.051 82.2085Z" fill="#FFFFFF" transform="matrix(1.0021 0 0 1 397 242.297)"/><path d="M424.319 82.2532C417.301 82.2532 413.993 80.1075 413.993 72.6421L413.993 1.5646 483.774 1.5646 483.774 5.14083 418.016 5.14083 418.016 40.9925 481.405 40.9925 481.405 44.5687 418.016 44.5687 418.016 72.6868C418.016 77.3359 419.894 78.7217 424.319 78.7217L484.936 78.7217 484.936 82.2979 424.319 82.2979Z" fill="#FFFFFF" transform="matrix(1.0021 0 0 1 397 242.297)"/><path d="M34.4212 235.405 0 135.137 4.15736 135.137 38.5786 235.405 34.4212 235.405Z" fill="#FFFFFF" transform="matrix(1.0021 0 0 1 397 242.297)"/><path d="M116.183 235.405 81.7615 135.137 85.9189 135.137 120.34 235.405 116.183 235.405Z" fill="#FFFFFF" transform="matrix(1.0021 0 0 1 397 242.297)"/><path d="M197.899 235.405 163.478 135.137 167.636 135.137 202.057 235.405 197.899 235.405Z" fill="#FFFFFF" transform="matrix(1.0021 0 0 1 397 242.297)"/><path d="M378.991 224.632 378.991 147.966 378.633 147.966 338.177 224.632 333.796 224.632 293.34 147.966 292.982 147.966 292.982 224.632 288.959 224.632 288.959 143.943 295.843 143.943 336.076 220.743 376.085 143.943 383.103 143.943 383.103 224.632 378.991 224.632Z" fill="#FFFFFF" transform="matrix(1.0021 0 0 1 397 242.297)"/><path d="M417.078 224.632C410.059 224.632 406.751 222.486 406.751 215.021L406.751 143.943 476.532 143.943 476.532 147.519 410.774 147.519 410.774 183.371 474.163 183.371 474.163 186.947 410.774 186.947 410.774 215.065C410.774 219.714 412.652 221.1 417.078 221.1L477.695 221.1 477.695 224.676 417.078 224.676Z" fill="#FFFFFF" transform="matrix(1.0021 0 0 1 397 242.297)"/></g></svg>