<svg xmlns="http://www.w3.org/2000/svg" viewBox="0 0 28.65 23.65"><defs><style>.cls-1{fill:#eb7172;}</style></defs><g id="Layer_2" data-name="Layer 2"><g id="레이어_1" data-name="레이어 1"><path class="cls-1" d="M1.33,23.65l1.28-1.37A9.89,9.89,0,0,0,4.9,18.76,9.94,9.94,0,0,1,0,10.65,9.45,9.45,0,0,1,4.23,3.09,17.06,17.06,0,0,1,14.32,0,17,17,0,0,1,24.41,3.09a9.46,9.46,0,0,1,4.24,7.56,9.47,9.47,0,0,1-4.24,7.57A17,17,0,0,1,14.32,21.3,19.59,19.59,0,0,1,11.05,21l-.13,0-1.27.44a38.58,38.58,0,0,1-6.47,1.83Zm13-22.37A15.78,15.78,0,0,0,5,4.12a8.2,8.2,0,0,0-3.71,6.53c0,2.78,1.66,5.4,4.55,7.19a.86.86,0,0,1,.39,1.09l-.11.26a14.37,14.37,0,0,1-1.35,2.52c1.42-.35,2.82-.83,4.47-1.4l1.28-.44a.94.94,0,0,1,.64-.12,18.32,18.32,0,0,0,3.17.28,15.74,15.74,0,0,0,9.33-2.84,8.22,8.22,0,0,0,3.72-6.54,8.19,8.19,0,0,0-3.72-6.53A15.76,15.76,0,0,0,14.32,1.28ZM10.91,21h0ZM5.07,18.39h0Z"/></g></g></svg>