<svg xmlns="http://www.w3.org/2000/svg" viewBox="0 0 27.95 29.77"><defs><style>.cls-1{fill:#fff;}</style></defs><g id="Layer_2" data-name="Layer 2"><g id="레이어_1" data-name="레이어 1"><path class="cls-1" d="M22.69,29.77a5.35,5.35,0,0,1-1.05-.11,5.26,5.26,0,0,1-4.14-6.12L8.94,18.66a5.27,5.27,0,1,1-.26-7.79L16.5,6.29a5.34,5.34,0,0,1,0-2.07A5.27,5.27,0,0,1,22.72.11a5.28,5.28,0,0,1,4.12,6.21,5.28,5.28,0,0,1-6.22,4.11,5.12,5.12,0,0,1-2.36-1.15l-7.82,4.59a5.26,5.26,0,0,1,.06,1.68l8.72,5a5.29,5.29,0,0,1,4.51-1.2h0a5.27,5.27,0,0,1-1,10.44ZM8.77,17.53l9.76,5.56-.08.34a1.17,1.17,0,0,0-.05.2,4.37,4.37,0,0,0,3.41,5.15A4.37,4.37,0,1,0,19.6,21.4l-.24.24L9.5,16l.06-.32a4.24,4.24,0,0,0-.06-1.94l-.09-.33,9-5.26.25.24a4.38,4.38,0,0,0,5.46.5,4.36,4.36,0,0,0,1.23-6.05A4.32,4.32,0,0,0,22.54,1,4.37,4.37,0,0,0,17.39,4.4a4.18,4.18,0,0,0,.06,2l.08.33L8.56,12l-.25-.24a4.35,4.35,0,0,0-5.45-.51A4.32,4.32,0,0,0,1,14a4.28,4.28,0,0,0,.64,3.28A4.34,4.34,0,0,0,4.4,19.17,4.39,4.39,0,0,0,8.53,17.8Z"/></g></g></svg>