<svg xmlns="http://www.w3.org/2000/svg" viewBox="0 0 33.88 25.67"><defs><style>.cls-1{fill:#fff;}</style></defs><g id="Layer_2" data-name="Layer 2"><g id="레이어_1" data-name="레이어 1"><circle class="cls-1" cx="28.96" cy="3.63" r="1.46"/><circle class="cls-1" cx="24" cy="6.54" r="1.46"/><circle class="cls-1" cx="29.27" cy="9.45" r="1.46"/><rect class="cls-1" x="23.6" y="4.7" width="5.75" height="0.78" transform="translate(1.06 14.08) rotate(-30.35)"/><rect class="cls-1" x="26.37" y="5.14" width="0.78" height="5.77" transform="translate(6.54 27.3) rotate(-60.31)"/><path class="cls-1" d="M19.31,13.61l-7.74,4.48a.9.9,0,0,1-1.35-.78V8.36a.9.9,0,0,1,1.35-.77l7.74,4.47A.89.89,0,0,1,19.31,13.61Z"/><path class="cls-1" d="M25.27,22.3H2.87c-.24,0-.44-.15-.44-.33a.4.4,0,0,1,.44-.34h22.4c.25,0,.44.15.44.34S25.52,22.3,25.27,22.3Z"/><path class="cls-1" d="M27.31,0a6.57,6.57,0,0,0-5.8,3.5H2.76A2.77,2.77,0,0,0,0,6.26V22.91a2.77,2.77,0,0,0,2.76,2.76H25.38a2.77,2.77,0,0,0,2.76-2.76V13.08A6.57,6.57,0,0,0,27.31,0Zm-.09,22.91a1.87,1.87,0,0,1-.14.71,1.84,1.84,0,0,1-1.7,1.13H2.76A1.85,1.85,0,0,1,.92,22.91V6.26a1.86,1.86,0,0,1,.77-1.49,1.8,1.8,0,0,1,1.07-.35H21.11a6.39,6.39,0,0,0-.37,2.15,6.53,6.53,0,0,0,1.9,4.62,5.71,5.71,0,0,0,.58.51,6.32,6.32,0,0,0,2.24,1.17,6.81,6.81,0,0,0,1.76.27h0Zm.92-10.76c-.27,0-.92.07-.92.07a5.65,5.65,0,0,1-5.56-5.65,5.5,5.5,0,0,1,.43-2.15,5,5,0,0,1,.48-.92,5.65,5.65,0,1,1,5.57,8.65Z"/><circle class="cls-1" cx="7.56" cy="21.97" r="1.79"/></g></g></svg>