<svg xmlns="http://www.w3.org/2000/svg" viewBox="0 0 28.72 29.29"><defs><style>.cls-1{fill:#fff;}</style></defs><g id="Layer_2" data-name="Layer 2"><g id="레이어_1" data-name="레이어 1"><path class="cls-1" d="M8.81,15.84a7.54,7.54,0,0,1-.32.86l0,.07a16.74,16.74,0,0,1-1,2c-.42.22-.85.43-1.46.79-1.28.75-2.18,1.28-2.5,2.14a2,2,0,0,0,.32,2.36A1.79,1.79,0,0,0,5,24.51a1.71,1.71,0,0,0,1.14-.42,4.62,4.62,0,0,0,1-1.43c.11-.18.22-.39.36-.68.57-1.11.93-1.86,1-2s0-.07.07-.11c.25-.11.53-.21.86-.36a29.15,29.15,0,0,1,2.74-1l.5-.17c.39-.15.68-.22,1-.32s.64-.22.92-.33c.25.22.5.47.82.72a4.62,4.62,0,0,0,1.65,1,3.23,3.23,0,0,0,1.42,0,1.6,1.6,0,0,0,1.32-1.64c0-.54-.28-1.46-1.67-1.71A7.84,7.84,0,0,0,16.59,16a8.2,8.2,0,0,0-1.21.11,2.55,2.55,0,0,1-.43.07,9.56,9.56,0,0,1-1-1.25,34.46,34.46,0,0,1-2-3.14c-.11-.18-.21-.39-.32-.57.07-.32.14-.68.21-1.11l.11-.5a5.79,5.79,0,0,0,.14-2.92c-.25-1.22-1.07-1.5-1.5-1.47-.21,0-1.07.15-1.42,1.4A4.14,4.14,0,0,0,9.21,9a9.14,9.14,0,0,0,1,2.39c-.18.75-.4,1.42-.79,2.57s-.54,1.64-.61,1.92Zm-2.6,5.43c-.14.25-.25.5-.36.67a4,4,0,0,1-.64,1,.38.38,0,0,1-.43,0s-.14-.1.11-.75c.14-.35.82-.78,1.43-1.17,0,.1-.08.17-.11.25Zm10.45-3.93a5.13,5.13,0,0,1,1.22.11c.35.07.46.21.46.25V18a.68.68,0,0,1-.21.07,1.86,1.86,0,0,1-.72,0,3.83,3.83,0,0,1-1.07-.68.91.91,0,0,1,.32,0Zm-6-10.42a1,1,0,0,1,.11-.25s0,.11.07.22A4.22,4.22,0,0,1,10.74,9a1,1,0,0,1-.07-.29,2.92,2.92,0,0,1,0-1.75ZM9.81,17.27l0-.07c.21-.57.21-.57.36-.93s.25-.75.64-1.89c.18-.46.28-.89.39-1.25a24.45,24.45,0,0,0,1.61,2.53c.25.33.42.61.64.86l-.32.11c-.25.1-.54.18-.93.32l-.5.18c-.89.28-1.39.46-2.21.78.1-.21.18-.43.28-.64Zm12.31-.07v3.42h-4.6a2.53,2.53,0,0,0-2.5,2.5v4.71H4.25a2.84,2.84,0,0,1-2.82-2.89V4.32A2.88,2.88,0,0,1,4.25,1.43H19.3a2.9,2.9,0,0,1,2.79,2.32,5.1,5.1,0,0,1,.78,0,3.39,3.39,0,0,1,.64,0A4.3,4.3,0,0,0,19.27,0h-15A4.27,4.27,0,0,0,0,4.32V25a4.27,4.27,0,0,0,4.25,4.31H15.88s0,0,.07,0,0,0,.07,0,0,0,.07,0a0,0,0,0,0,0,0l.1-.1,7.07-7.18s0,0,0,0l.07-.07s0,0,0-.08,0,0,0-.07,0,0,0-.07V17.2a5,5,0,0,1-.67,0,5.54,5.54,0,0,1-.72,0Zm-5.67,9.6V23.16a1,1,0,0,1,1.07-1.07h3.6ZM22.84,4.57a5.89,5.89,0,1,0,5.88,5.88,5.89,5.89,0,0,0-5.88-5.88Zm0,10.7a4.82,4.82,0,1,1,4.81-4.82,4.84,4.84,0,0,1-4.81,4.82Z"/><circle class="cls-1" cx="24.58" cy="8.07" r="1.14"/><circle class="cls-1" cx="20.69" cy="10.35" r="1.14"/><circle class="cls-1" cx="24.82" cy="12.64" r="1.14"/><rect class="cls-1" x="20.38" y="8.91" width="4.51" height="0.61" transform="translate(-1.55 12.7) rotate(-30.35)"/><rect class="cls-1" x="22.55" y="9.25" width="0.61" height="4.52" transform="translate(1.53 25.67) rotate(-60.31)"/></g></g></svg>