<svg xmlns="http://www.w3.org/2000/svg" viewBox="0 0 28.42 29.44"><defs><style>.cls-1{fill:#eb7172;}</style></defs><g id="Layer_2" data-name="Layer 2"><g id="레이어_1" data-name="레이어 1"><path class="cls-1" d="M11.58,29.44a1.09,1.09,0,0,1-1.09-1.06l-.07-2.74a.56.56,0,0,0-.19-.31L7,23.47a.45.45,0,0,0-.36,0l-2.41,1.3a1.09,1.09,0,0,1-1.46-.41L.15,19.8a1.1,1.1,0,0,1,.37-1.48l2.34-1.43A.5.5,0,0,0,3,16.58V12.86a.5.5,0,0,0-.17-.31L.52,11.11A1.08,1.08,0,0,1,.15,9.64L2.78,5.08a1.09,1.09,0,0,1,1.46-.41L6.65,6A.5.5,0,0,0,7,6l3.22-1.86a.49.49,0,0,0,.19-.3l.07-2.75A1.09,1.09,0,0,1,11.58,0h5.26a1.09,1.09,0,0,1,1.09,1.06L18,3.8a.5.5,0,0,0,.19.31L21.41,6a.5.5,0,0,0,.36,0l2.41-1.31a1.09,1.09,0,0,1,1.46.41l2.63,4.56a1.1,1.1,0,0,1-.37,1.48l-2.34,1.43a.5.5,0,0,0-.18.31v3.72a.5.5,0,0,0,.17.31l2.34,1.44a1.09,1.09,0,0,1,.38,1.47l-2.64,4.56a1.09,1.09,0,0,1-1.46.41l-2.41-1.31a.5.5,0,0,0-.36,0l-3.22,1.86a.53.53,0,0,0-.19.31l-.07,2.74a1.09,1.09,0,0,1-1.09,1.06ZM6.83,22.31a1.54,1.54,0,0,1,.74.19l3.22,1.86a1.57,1.57,0,0,1,.74,1.25l.08,2.74,5.23,0,.05-2.72a1.59,1.59,0,0,1,.74-1.24l3.22-1.86a1.58,1.58,0,0,1,1.45,0l2.41,1.31,2.58-4.52L25,17.85a1.57,1.57,0,0,1-.71-1.27V12.86A1.56,1.56,0,0,1,25,11.6l2.34-1.44L24.67,5.64,22.3,7a1.61,1.61,0,0,1-1.45,0L17.63,5.08a1.55,1.55,0,0,1-.74-1.25l-.08-2.74-5.23,0-.05,2.72a1.57,1.57,0,0,1-.74,1.24L7.57,6.94A1.58,1.58,0,0,1,6.12,7L3.71,5.65,1.11,10.2l2.33,1.4a1.57,1.57,0,0,1,.71,1.26v3.72a1.56,1.56,0,0,1-.71,1.27L1.11,19.28,3.75,23.8l2.37-1.32A1.49,1.49,0,0,1,6.83,22.31Zm7.37-.81a6.8,6.8,0,0,1-3.38-.91,6.77,6.77,0,1,1,9.26-2.48h0A6.75,6.75,0,0,1,16,21.27,7,7,0,0,1,14.2,21.5Zm0-12.44a5.73,5.73,0,0,0-4.91,2.83,5.66,5.66,0,0,0,6.36,8.3,5.67,5.67,0,0,0,3.44-2.64h0a5.66,5.66,0,0,0-4.89-8.49Z"/></g></g></svg>