<svg xmlns="http://www.w3.org/2000/svg" viewBox="0 0 33.8 25.63"><defs><style>.cls-1{fill:#fff;}</style></defs><g id="Layer_2" data-name="Layer 2"><g id="레이어_1" data-name="레이어 1"><path class="cls-1" d="M28.06,25.58V5.2a1.73,1.73,0,0,0-1.54-1.85h-25A1.72,1.72,0,0,0,0,5.2V25.63ZM1.53,4.41h25a.73.73,0,0,1,.66.79V21.79H.88V5.2a.73.73,0,0,1,.65-.79ZM.88,22.85h26.3v1.72H.88Z"/><path class="cls-1" d="M17.79,22.18h4.58a.71.71,0,0,0,.74-.66v-.63a.71.71,0,0,0-.74-.67H17.79a.71.71,0,0,0-.75.67v.62a.71.71,0,0,0,.75.67Z"/><path class="cls-1" d="M2.68,13.55a.53.53,0,0,0,.75-.19c.66-1,2.35-1.64,4.14-1.46a7.2,7.2,0,0,1,3.33,1.6,8,8,0,0,0,3.91,1.84,5.63,5.63,0,0,0,.8,0,5.07,5.07,0,0,0,4.37-2,.56.56,0,0,0-.19-.8.61.61,0,0,0-.8.19c-.66,1-2.35,1.6-4.09,1.41a7,7,0,0,1-3.34-1.6,8.06,8.06,0,0,0-3.9-1.83c-2.26-.24-4.33.56-5.22,2a.72.72,0,0,0,.24.8Z"/><path class="cls-1" d="M24,12.14a.72.72,0,0,0,.19-.11l8-6.85.95-.84A2,2,0,0,0,33.8,3a1.94,1.94,0,0,0-.44-1.39l-.81-1A1.85,1.85,0,0,0,31.25,0a1.93,1.93,0,0,0-1.4.45L21,8.12a.62.62,0,0,0-.14.18v0l0,.11-.69,3.15v.09a.63.63,0,0,0,.18.5.66.66,0,0,0,.5.19l3.18-.22.09,0Zm6.65-10.7a.67.67,0,0,1,.47-.16.64.64,0,0,1,.43.22l.84,1a.64.64,0,0,1,.15.46.63.63,0,0,1-.22.44l-.49.42L30.2,1.85Zm-9,7.89,1.71,1.75L21,11.6Z"/></g></g></svg>