<svg xmlns="http://www.w3.org/2000/svg" viewBox="0 0 29.39 22.47"><defs><style>.cls-1{fill:#fff;}</style></defs><g id="Layer_2" data-name="Layer 2"><g id="레이어_1" data-name="레이어 1"><path class="cls-1" d="M29.39,3.14a.66.66,0,0,0-.74-.64H10.94L9.45.25A.7.7,0,0,0,8.86,0H.74A.66.66,0,0,0,0,.64v21.2a.65.65,0,0,0,.74.63H28.58a.65.65,0,0,0,.74-.63Zm-1.47.63V5.94H13.15L11.64,3.77Zm-9.66,7.12c.59,0,1,.33,1,.84a.87.87,0,0,1-1,.84H8.12l1.08.92a.74.74,0,0,1,0,1.18,1,1,0,0,1-1.37,0L5.1,12.32a.74.74,0,0,1,0-1.18L7.83,8.79a1,1,0,0,1,1.37,0A.73.73,0,0,1,9.2,10l-1.08.93Zm2.58,4.16a.73.73,0,0,1,0-1.17,1,1,0,0,1,1.36,0l2.73,2.35a.74.74,0,0,1,0,1.18L22.2,19.76a1,1,0,0,1-1.36,0,.74.74,0,0,1,0-1.18l1.07-.92H11.77a.85.85,0,1,1,0-1.68H21.91Z"/></g></g></svg>