<svg xmlns="http://www.w3.org/2000/svg" viewBox="0 0 28.83 27.12"><defs><style>.cls-1{fill:#eb7172;}</style></defs><g id="Layer_2" data-name="Layer 2"><g id="레이어_1" data-name="레이어 1"><path class="cls-1" d="M18,16.78l-.49.16c-.25.08-.5.13-.76.19l-.49.08A8.63,8.63,0,0,1,6.57,7c0-.16.07-.33.11-.49a8.69,8.69,0,0,1,.45-1.3c.07-.17.15-.33.23-.5A9.63,9.63,0,0,1,8.48,3H3.54a.8.8,0,0,0-.79.79V4.7H2.28a1,1,0,0,0-1,1V6.5H1a1,1,0,0,0-1,1V26.09a1,1,0,0,0,1,1H15.74a1,1,0,0,0,1-1v-.76H17a1,1,0,0,0,1-1V23.16h.23a.79.79,0,0,0,.78-.79v-6A9.07,9.07,0,0,1,18,16.78ZM5,17.94H9.26a.33.33,0,0,1,.33.33.33.33,0,0,1-.33.33H5a.33.33,0,0,1-.33-.33A.33.33,0,0,1,5,17.94Zm0,1.87H16.81a.33.33,0,1,1,0,.66H5a.33.33,0,1,1,0-.66ZM1.75,5.73a.53.53,0,0,1,.53-.53h.47V6.5h-1ZM16.28,26.09a.54.54,0,0,1-.54.54H1a.54.54,0,0,1-.53-.54V7.53A.54.54,0,0,1,1,7h.22V24.3a1,1,0,0,0,1,1h14Zm0-1.26h-14a.53.53,0,0,1-.53-.53V7h1V22.37a.8.8,0,0,0,.79.79H16.28Zm1.25-.53a.54.54,0,0,1-.54.53h-.22V23.16h.76Z"/><path class="cls-1" d="M10.58,8.71l3.08,3.21,2.62-3,.49-.57.76-.86L18,6.93l1-1.15v-2A.79.79,0,0,0,18.25,3H10l-.19.17A7.5,7.5,0,0,0,8.6,4.7c-.1.16-.19.33-.28.5a7.62,7.62,0,0,0-.51,1.3A4.43,4.43,0,0,0,7.68,7a7.55,7.55,0,0,0,8.6,9.13l.49-.1c.26-.06.51-.13.76-.21l.49-.19a7.4,7.4,0,0,0,1-.52V7.86L18,9l-.49.57-.76.86-.49.56-2.62,3L9.5,9.79,10.27,9Z"/><polygon class="cls-1" points="19.93 4.75 19.03 5.78 19.03 7.86 20.97 5.65 19.93 4.75"/><path class="cls-1" d="M28.66,20.74,22,13.82A8.66,8.66,0,0,0,9.06,2.41c-.2.2-.4.4-.58.61H10a7.57,7.57,0,0,1,10.3,11.1,7,7,0,0,1-1.27,1v1.24a10,10,0,0,0,.9-.52l6.65,6.92a.61.61,0,0,0,.87,0l1.19-1.14A.63.63,0,0,0,28.66,20.74Z"/></g></g></svg>