<svg xmlns="http://www.w3.org/2000/svg" viewBox="0 0 14.91 20.28"><defs><style>.cls-1{fill:#eb7172;}</style></defs><g id="Layer_2" data-name="Layer 2"><g id="레이어_1" data-name="레이어 1"><path class="cls-1" d="M14.91,9.59a.52.52,0,1,0-1,0A6.43,6.43,0,0,1,1,9.59a.52.52,0,1,0-1,0A7.46,7.46,0,0,0,6.94,17v2.23H5.27a.52.52,0,1,0,0,1H9.64a.52.52,0,1,0,0-1H8V17a7.46,7.46,0,0,0,6.94-7.43Z"/><path class="cls-1" d="M7.45,14.64A5.09,5.09,0,0,0,11,13.15,5,5,0,0,0,12.5,9.59V5.05a5,5,0,1,0-10.09,0V9.59a5,5,0,0,0,1.48,3.56,5.07,5.07,0,0,0,3.56,1.49Z"/></g></g></svg>