<svg xmlns="http://www.w3.org/2000/svg" viewBox="0 0 29.28 24.68"><defs><style>.cls-1{fill:#fff;}</style></defs><g id="Layer_2" data-name="Layer 2"><g id="레이어_1" data-name="레이어 1"><path class="cls-1" d="M26,0H3.24A3.41,3.41,0,0,0,0,3.56V17.09a3.41,3.41,0,0,0,3.24,3.56H13.3V22H9.09a1.34,1.34,0,0,0-1.17,2,1.36,1.36,0,0,0,1.17.67h11.1a1.34,1.34,0,0,0,1.16-2A1.32,1.32,0,0,0,20.19,22H16V20.65H26a3.42,3.42,0,0,0,3.24-3.56V3.57A3.42,3.42,0,0,0,26,0ZM28.5,17.09A2.64,2.64,0,0,1,26,19.87H15.2v2.91h5a.58.58,0,0,1,.49.28.56.56,0,0,1,0,.56.58.58,0,0,1-.49.28H9.09a.58.58,0,0,1-.49-.28.56.56,0,0,1,0-.56.58.58,0,0,1,.49-.28h5V19.87H3.24A2.64,2.64,0,0,1,.78,17.09V3.56A2.64,2.64,0,0,1,3.24.78H26A2.65,2.65,0,0,1,28.5,3.57Z"/><path class="cls-1" d="M26,1.91H3.24A1.54,1.54,0,0,0,1.9,3.57V17.09a1.54,1.54,0,0,0,1.34,1.66H26a1.55,1.55,0,0,0,1.34-1.66V3.57A1.55,1.55,0,0,0,26,1.91ZM13.26,13.23a.71.71,0,0,1,0-1.42h7.35L19.83,11a.69.69,0,0,1,0-1,.67.67,0,0,1,1,0l2,2a.69.69,0,0,1,0,1l-2,2a.7.7,0,1,1-1-1l.78-.77ZM9.45,9.13a.7.7,0,0,1-1,1l-2-2a.69.69,0,0,1,0-1l2-2a.7.7,0,0,1,1,1l-.78.78H16a.66.66,0,0,1,.7.71.66.66,0,0,1-.7.7H8.67Z"/></g></g></svg>