<svg xmlns="http://www.w3.org/2000/svg" viewBox="0 0 24.52 26.26"><defs><style>.cls-1{fill:#fff;}</style></defs><g id="Layer_2" data-name="Layer 2"><g id="레이어_1" data-name="레이어 1"><path class="cls-1" d="M18.43,15.61l3.27,1.52h0l1.38.71a.06.06,0,0,0,.07,0,.08.08,0,0,0,.05-.05l.09-.18a12,12,0,0,0,1.23-5.36A12.26,12.26,0,1,0,12.26,24.52a11.9,11.9,0,0,0,2.94-.37l.15,0a.08.08,0,0,0,.07-.08v-3.5h0a0,0,0,0,0,0,0l0-2.39h0V17l.06-2.51Zm-.84-2.95-.06,0H12.66a.09.09,0,0,0-.09.09v4.56a.09.09,0,0,0,.09.08h2.16V18H12.65a.08.08,0,0,0-.08.09v5.13a.08.08,0,0,0,0,.07.11.11,0,0,0,.08,0l.08,0h0l.15,0a4.3,4.3,0,0,0,1.91-1.34v1.74a11.19,11.19,0,0,1-2.59.3A11.69,11.69,0,1,1,24,12.26a11.43,11.43,0,0,1-1.05,4.85l-.6-.31a11,11,0,0,0,.92-3.36c0-.18,0-.35.05-.51V12.7a.06.06,0,0,0,0-.07.09.09,0,0,0-.06,0H18.35a.09.09,0,0,0-.09.09v.2a16.28,16.28,0,0,1-.1,1.8l-.23-.11a1.58,1.58,0,0,0-.34-.13l-.08,0c0-.48.07-.92.09-1.43v-.27S17.61,12.68,17.59,12.66Z"/><path class="cls-1" d="M7.56,7.33h0l0,.16A20.1,20.1,0,0,0,7,11.69H7v.21h4.89V7.31H7.56Z"/><path class="cls-1" d="M6.94,6.33A11.77,11.77,0,0,1,9.06,2.21l.46-.53-.67.21A11,11,0,0,0,3.18,6.16L3,6.47H6.9Z"/><path class="cls-1" d="M17.87,7.57a22.35,22.35,0,0,1,.48,4.12v.2h4.84l0-.21a11,11,0,0,0-1.12-4.24L22,7.33H17.82Z"/><path class="cls-1" d="M6.14,11.69a22.35,22.35,0,0,1,.48-4.12l0-.24H2.5l-.06.11a11,11,0,0,0-1.12,4.24l0,.21H6.14Z"/><path class="cls-1" d="M16.61,6.24c-.86-2.63-2.21-4.37-3.7-4.77l-.25-.06V6.5h4Z"/><path class="cls-1" d="M7,12.92a20.1,20.1,0,0,0,.55,4.2l0,.16h4.25V12.72H7Z"/><path class="cls-1" d="M17,7.48l0-.15H12.66v4.56h4.86v-.2A20.25,20.25,0,0,0,17,7.48Z"/><path class="cls-1" d="M7.8,6.5h4V1.41l-.25.06c-1.5.4-2.85,2.14-3.7,4.77Z"/><path class="cls-1" d="M21.31,6.19a10.71,10.71,0,0,0-5.67-4.27L15,1.71l.47.53a11.09,11.09,0,0,1,2.12,4.12l0,.14h3.93Z"/><path class="cls-1" d="M6.62,17a21.72,21.72,0,0,1-.48-4.13v-.19H1.3l0,.21a11.07,11.07,0,0,0,1.12,4.24l.06.11H6.67Z"/><path class="cls-1" d="M6.94,18.25l0-.14H3l.2.31a10.75,10.75,0,0,0,5.68,4.26l.69.23-.48-.54A11.09,11.09,0,0,1,6.94,18.25Z"/><path class="cls-1" d="M7.88,18.37c.84,2.62,2.19,4.37,3.7,4.8l.25.07V18.11h-4Z"/><path class="cls-1" d="M20.88,20.94a.52.52,0,0,1,.35-.38L23,19.89,17,16.8v6.73l1.42-1.26a.75.75,0,0,1,.41-.14h.09a.63.63,0,0,1,.43.29l2.36,3.84,1.63-1-2.35-3.84A.57.57,0,0,1,20.88,20.94Z"/></g></g></svg>