<?xml version="1.0" encoding="UTF-8"?><svg xmlns="http://www.w3.org/2000/svg" viewBox="0 0 24.52 26.26"><defs><style>.d{fill:#fff;}</style></defs><g id="a"/><g id="b"><g id="c"><g><path class="d" d="M18.43,15.61l3.27,1.53h0l1.38,.71s.05,.01,.07,0c.02,0,.04-.02,.05-.04l.09-.18c.81-1.66,1.23-3.46,1.23-5.36C24.52,5.5,19.02,0,12.26,0S0,5.5,0,12.26s5.5,12.26,12.26,12.26c1.01,0,2-.12,2.95-.37l.15-.04s.07-.05,.07-.09v-3.49h0s0-.03,0-.05l-.04-2.38h0v-1.11l.06-2.51,2.97,1.12Zm-.83-2.95s-.04-.03-.06-.03h-4.87s-.09,.04-.09,.09v4.56s.04,.09,.09,.09h2.16v.65h-2.16s-.09,.04-.09,.09v5.14s.01,.05,.03,.07,.05,.02,.08,.01l.08-.02h.03l.15-.05c.66-.2,1.31-.66,1.91-1.34v1.74c-.83,.2-1.7,.3-2.59,.3C5.82,23.95,.57,18.7,.57,12.26S5.82,.57,12.26,.57s11.69,5.24,11.69,11.69c0,1.71-.35,3.34-1.04,4.85l-.6-.31c.48-1.05,.78-2.18,.91-3.36,.03-.17,.04-.34,.05-.51v-.07s0-.03,0-.04v-.12s0-.05-.02-.07-.04-.03-.06-.03h-4.84s-.09,.04-.09,.09v.2c0,.58-.03,1.17-.1,1.81l-.23-.12c-.11-.05-.22-.09-.34-.13l-.08-.03c.04-.47,.07-.92,.09-1.42v-.27s0-.05-.01-.07Z"/><path class="d" d="M7.56,7.33h0l-.04,.15c-.33,1.43-.52,2.85-.54,4.2h0c0,.06,0,.11,0,.16v.07h4.89V7.31H7.56v.02Z"/><path class="d" d="M6.94,6.33c.55-1.74,1.26-3.12,2.12-4.12l.46-.53-.67,.22c-2.3,.75-4.31,2.26-5.67,4.27l-.21,.31h3.93l.04-.14Z"/><path class="d" d="M17.87,7.57c.29,1.37,.45,2.76,.47,4.12v.19h4.84v-.21c-.1-1.49-.48-2.92-1.14-4.24l-.05-.11h-4.17l.05,.24Z"/><path class="d" d="M6.14,11.69c.03-1.36,.19-2.75,.47-4.12l.05-.24H2.5l-.05,.11c-.66,1.32-1.04,2.74-1.13,4.24v.21H6.14v-.19Z"/><path class="d" d="M16.61,6.24c-.86-2.63-2.21-4.37-3.7-4.77l-.25-.07V6.5h4.03l-.08-.26Z"/><path class="d" d="M7,12.92c.03,1.36,.21,2.77,.54,4.2l.04,.15h4.25v-4.56H7v.2Z"/><path class="d" d="M16.97,7.48l-.04-.15h-4.28v4.56h4.86v-.2c-.03-1.37-.22-2.83-.55-4.2Z"/><path class="d" d="M7.8,6.5h4.03V1.41l-.25,.07c-1.51,.4-2.85,2.14-3.7,4.77l-.08,.26Z"/><path class="d" d="M21.31,6.19c-1.35-2.02-3.36-3.54-5.67-4.27l-.68-.21,.47,.53c.88,.99,1.61,2.42,2.11,4.12l.04,.14h3.93l-.21-.31Z"/><path class="d" d="M6.62,17.04c-.29-1.4-.45-2.74-.47-4.12v-.19H1.3v.21c.1,1.49,.48,2.92,1.14,4.24l.05,.11H6.67l-.05-.24Z"/><path class="d" d="M6.94,18.25l-.04-.14H2.97l.21,.31c1.35,2.03,3.31,3.5,5.67,4.27l.69,.22-.48-.54c-.88-.99-1.61-2.42-2.11-4.12Z"/><path class="d" d="M7.88,18.37c.84,2.62,2.19,4.37,3.7,4.8l.25,.07v-5.13H7.8l.08,.26Z"/><path class="d" d="M20.88,20.94c.06-.17,.17-.32,.35-.38l1.75-.67-6.03-3.09v6.73l1.43-1.25c.12-.09,.26-.15,.41-.15h.09c.17,.03,.35,.15,.44,.29l2.36,3.84,1.63-.99-2.36-3.84c-.09-.15-.12-.32-.06-.49Z"/></g></g></g></svg>