<?xml version="1.0" encoding="UTF-8"?><svg xmlns="http://www.w3.org/2000/svg" viewBox="0 0 60.02 49.68"><defs><style>.d{fill:#fff;}</style></defs><g id="a"/><g id="b"><g id="c"><path class="d" d="M2.49,49.68l3-3.21c2.62-2.81,3.01-3.56,4.67-7.15C3.78,35.12,0,28.83,0,22.36c0-6.02,3.16-11.67,8.89-15.9C14.54,2.3,22.04,0,30.01,0s15.47,2.3,21.12,6.46c5.73,4.23,8.89,9.88,8.89,15.9s-3.16,11.67-8.89,15.9c-5.65,4.17-13.15,6.46-21.12,6.46-2.3,0-4.59-.19-6.79-.57-.08,.04-.16,.07-.25,.1-.92,.31-1.8,.62-2.65,.91-4.98,1.71-8.91,3.07-13.5,3.82l-4.34,.71ZM30.01,3c-7.34,0-14.2,2.09-19.34,5.88-4.95,3.65-7.67,8.44-7.67,13.48,0,5.73,3.42,11.13,9.39,14.83,.94,.59,1.3,1.61,.9,2.49l-.25,.55c-1.05,2.27-1.66,3.59-2.55,4.91,2.8-.73,5.6-1.69,8.86-2.81,.86-.29,1.74-.6,2.66-.91,.22-.12,.73-.4,1.42-.27,2.11,.38,4.33,.58,6.58,.58,7.34,0,14.21-2.09,19.34-5.88,4.95-3.65,7.67-8.44,7.67-13.48s-2.72-9.83-7.67-13.48h0c-5.14-3.79-12-5.88-19.34-5.88Zm-7.13,41.09h0Z"/></g></g></svg>