<svg xmlns="http://www.w3.org/2000/svg" viewBox="0 0 11.96 10.46"><defs><style>.cls-1{fill:#fff;}</style></defs><g id="Layer_2" data-name="Layer 2"><g id="Layer_1-2" data-name="Layer 1"><path class="cls-1" d="M12,5.77V1.33a.28.28,0,0,0-.3-.3H4.45L3.85.12A.27.27,0,0,0,3.61,0H.3A.28.28,0,0,0,0,.3v9.86a.28.28,0,0,0,.3.3H11.63a.28.28,0,0,0,.3-.3V6.4Zm-.6-4.14v1h-6l-.61-1Zm0,8.23H.6V.6H3.46L5,3.13a.37.37,0,0,0,.24.12h6.16Z"/><path class="cls-1" d="M8.6,6.25a.3.3,0,0,0-.43,0,.29.29,0,0,0,0,.42L8.51,7H5.38a.3.3,0,0,0,0,.6H8.51l-.34.33a.3.3,0,0,0,.43.43l.84-.85a.29.29,0,0,0,0-.42Z"/><path class="cls-1" d="M3.43,5.53H6.55a.3.3,0,1,0,0-.6H3.43l.33-.33a.3.3,0,0,0-.42-.42L2.49,5a.29.29,0,0,0,0,.42l.85.84a.3.3,0,0,0,.42-.42Z"/></g></g></svg>