<?xml version="1.0" encoding="UTF-8"?><svg xmlns="http://www.w3.org/2000/svg" viewBox="0 0 58.15 50.84"><defs><style>.d{fill:#fff;}</style></defs><g id="a"/><g id="b"><g id="c"><g><path class="d" d="M58.15,28.05V6.47c0-.88-.58-1.46-1.46-1.46H21.65L18.7,.58c-.29-.44-.73-.58-1.17-.58H1.46C.58,0,0,.58,0,1.46V49.38c0,.88,.58,1.46,1.46,1.46H56.54c.88,0,1.46-.58,1.46-1.46V31.12l.15-3.07Zm-2.92-20.12v4.96H26.01l-2.98-4.96H55.23Zm0,39.99H2.92V2.92h13.88l7.31,12.31c.29,.29,.73,.58,1.17,.58h29.95V47.92Z"/><path class="d" d="M41.79,30.39c-.58-.58-1.46-.58-2.05,0-.58,.58-.58,1.46,0,2.05l1.61,1.61h-15.19c-.88,0-1.46,.59-1.46,1.46s.58,1.46,1.46,1.46h15.19l-1.61,1.61c-.58,.58-.58,1.46,0,2.05,.58,.58,1.46,.58,2.05,0l4.09-4.09c.58-.58,.58-1.46,0-2.05l-4.09-4.09Z"/><path class="d" d="M16.66,26.89h15.19c.88,0,1.46-.58,1.46-1.46s-.58-1.46-1.46-1.46h-15.19l1.61-1.61c.58-.58,.58-1.46,0-2.05s-1.46-.58-2.05,0l-4.09,4.09c-.58,.58-.58,1.46,0,2.05l4.09,4.09c.58,.58,1.46,.58,2.05,0,.58-.58,.58-1.46,0-2.05l-1.61-1.61Z"/></g></g></g></svg>