<?xml version="1.0" encoding="utf-8"?>
<!-- Generator: Adobe Illustrator 26.2.1, SVG Export Plug-In . SVG Version: 6.00 Build 0)  -->
<svg version="1.1" id="레이어_1" xmlns="http://www.w3.org/2000/svg" xmlns:xlink="http://www.w3.org/1999/xlink" x="0px"
	 y="0px" viewBox="0 0 2560 1440" style="enable-background:new 0 0 2560 1440;" xml:space="preserve">
<style type="text/css">
	.st0{fill:#EBBC5F;}
	.st1{fill:#4FA4C4;}
	.st2{fill:#DE6D6F;}
	.st3{fill:url(#SVGID_1_);}
	.st4{fill:#FFFFFF;}
	.st5{fill:url(#SVGID_00000176755282188263558660000009640128271440835204_);}
</style>
<g>
	<g>
		<path class="st0" d="M862.2,818.1l35.2,66.8l4.3,8.5l4.3-8.5l35.6-66.8h26.8l-53.6,96.2v51.5H889v-51.3l-53.6-96.4H862.2z"/>
		<path class="st0" d="M1077.2,911.3c0,34.2-23.5,57.3-54.4,57.3c-31.3,0-54.4-23.1-54.4-57.3c0-34.2,23.1-57.3,54.4-57.3
			C1053.7,854,1077.2,877.1,1077.2,911.3z M1052.4,911.3c0-21.6-13.2-36.3-29.5-36.3s-29.5,14.8-29.5,36.3
			c0,21.6,13.2,36.3,29.5,36.3S1052.4,932.9,1052.4,911.3z"/>
		<path class="st0" d="M1170.9,965.7v-9.1c-7.6,7.2-19.2,12-29.1,12c-19.6,0-32.2-8.7-39.8-22.5c-4.1-7.8-5.2-17.5-5.2-28.4v-60.8
			h25.1v60.8c0,7,1.2,13.4,2.7,17.3c2.9,7.6,8.9,12.2,17.3,12.2c13.2,0,24.3-10.9,27.4-23.9c1-4.1,1.7-10.9,1.7-21.6v-44.9h24.9
			v108.8H1170.9z"/>
	</g>
	<g>
		<path class="st1" d="M621.6,968.6h-26.2V818.1h26.2V968.6z"/>
	</g>
	<g>
		<path class="st2" d="M411.2,501.4l-27.2,90h-21.2L316,443.7h26l28.4,93.6l2.7,11.5l2.7-11.5l27.8-93.6H425l27.8,93.6l2.7,11.5
			l2.7-11.5l28.4-93.6h26l-46.8,147.7h-21.2l-27.2-90l-3.1-11.9L411.2,501.4z"/>
		<path class="st2" d="M620,567.1c-10.9,16.5-28.9,27.2-49.2,27.2c-32.3,0-54.2-23.1-54.2-57.3c0-34.2,23.3-57.3,52.5-57.3
			c30.5,0,52.5,22.9,52.5,54.8v11.9h-78.9c2.1,14.8,13.2,27,28.2,27c13.2,0,24.9-8.4,31.1-20L620,567.1z M595.9,525.7
			c-2.9-14.6-12.6-25.1-26.8-25.1c-13.2,0-23.5,9.5-26.6,25.1H595.9z"/>
	</g>
	<linearGradient id="SVGID_1_" gradientUnits="userSpaceOnUse" x1="198.2013" y1="730.5797" x2="2161.1321" y2="730.5797">
		<stop  offset="0" style="stop-color:#4FA4C4"/>
		<stop  offset="0.3" style="stop-color:#7CBD94"/>
		<stop  offset="0.8" style="stop-color:#EBBC5F"/>
		<stop  offset="1" style="stop-color:#DE6D6F"/>
	</linearGradient>
	<polygon class="st3" points="2161.1,728.5 734.4,728.5 734.4,141.4 730.3,141.4 730.3,728.5 198.2,728.5 198.2,732.7 730.3,732.7 
		730.3,1319.7 734.4,1319.7 734.4,732.7 2161.1,732.7 	"/>
	<g>
		<g>
			<path class="st4" d="M880.6,597.9c10.7,17.1,28.7,27.2,44.3,27.2c27.8,0,47.7-15,47.7-45.8v-10.1c-11,13.1-30.9,20.8-49.2,20.8
				c-50.1,0-88-34.2-88-87.1s37.9-87.1,88-87.1c18.3,0,37,6.7,49.2,18.6v-14.1h39.1v156.8c0,52.6-33.9,81.6-86.8,81.6
				c-29.6,0-58.4-15.6-75.5-40.3L880.6,597.9z M923.4,448.8c-26.9,0-48.9,21.1-48.9,54.1s22,54.1,48.9,54.1
				c26.9,0,48.9-18.9,48.9-54.1C972.3,467.7,950.2,448.8,923.4,448.8z"/>
			<path class="st4" d="M1227.5,420.4h41.6l34.5,97.2l7,23.8l7.3-23.8l34.5-97.2h41.6l-69.4,171.1h-27.8L1227.5,420.4z"/>
			<path class="st4" d="M1568,553.3c-17.1,26-45.5,42.8-77.3,42.8c-50.7,0-85.3-36.4-85.3-90.1c0-53.8,36.7-90.1,82.5-90.1
				c48,0,82.5,36.1,82.5,86.2v18.6h-124.1c3.4,23.2,20.8,42.5,44.3,42.5c20.8,0,39.1-13.1,48.9-31.5L1568,553.3z M1530.1,488.2
				c-4.6-22.9-19.9-39.4-42.2-39.4c-20.8,0-37,15-41.9,39.4H1530.1z"/>
			<path class="st4" d="M1694.2,450.6c-25.7-1.2-46.1,14.1-51.3,36.4c-1.5,6.4-2.8,17.1-2.8,33.9v70.6H1601V420.4h39.1v14.4
				c14.4-13.4,34.2-18.6,54.1-18.6V450.6z"/>
			<path class="st4" d="M1759.3,420.4v14.4c11.9-11.3,30.3-18.9,45.8-18.9c30.9,0,50.7,13.8,62.6,35.4c6.4,12.2,8.3,27.5,8.3,44.6
				v95.6h-39.4v-95.6c0-11-1.8-21.1-4.3-27.2c-4.6-11.9-14.1-19.3-27.2-19.3c-20.8,0-38.2,17.1-43.1,37.6
				c-1.5,6.4-2.8,17.1-2.8,33.9v70.6h-39.1V420.4H1759.3z"/>
		</g>
		
			<linearGradient id="SVGID_00000097491682774031228550000010680042866277436348_" gradientUnits="userSpaceOnUse" x1="1034.7985" y1="509.8912" x2="1224.3873" y2="509.8912">
			<stop  offset="0" style="stop-color:#323049"/>
			<stop  offset="0.25" style="stop-color:#4FA4C4"/>
			<stop  offset="0.5" style="stop-color:#7CBD94"/>
			<stop  offset="0.75" style="stop-color:#EBBC5F"/>
			<stop  offset="1" style="stop-color:#DE6D6F"/>
		</linearGradient>
		<path style="fill:url(#SVGID_00000097491682774031228550000010680042866277436348_);" d="M1129.6,415.1
			c-52.4,0-94.8,42.4-94.8,94.8c0,52.4,42.4,94.8,94.8,94.8s94.8-42.4,94.8-94.8C1224.4,457.5,1181.9,415.1,1129.6,415.1z
			 M1129.6,564c-29.9,0-54.1-24.2-54.1-54.1c0-29.9,24.2-54.1,54.1-54.1s54.1,24.2,54.1,54.1C1183.7,539.8,1159.5,564,1129.6,564z"
			/>
	</g>
</g>
</svg>
