<svg xmlns="http://www.w3.org/2000/svg" xmlns:xlink="http://www.w3.org/1999/xlink" viewBox="0 0 137.49 82.53"><defs><style>.cls-1{fill:#ebbc5f;}.cls-2{fill:#4fa4c4;}.cls-3{fill:#de6d6f;}.cls-4{fill:url(#무제_그라디언트_3);}.cls-5{fill:#282732;}.cls-6{fill:url(#무제_그라디언트_2);}</style><linearGradient id="무제_그라디언트_3" y1="41.26" x2="137.49" y2="41.26" gradientUnits="userSpaceOnUse"><stop offset="0" stop-color="#4fa4c4"/><stop offset="0.3" stop-color="#7cbd94"/><stop offset="0.8" stop-color="#ebbc5f"/><stop offset="1" stop-color="#de6d6f"/></linearGradient><linearGradient id="무제_그라디언트_2" x1="58.6" y1="25.81" x2="71.88" y2="25.81" gradientUnits="userSpaceOnUse"><stop offset="0" stop-color="#323049"/><stop offset="0.25" stop-color="#4fa4c4"/><stop offset="0.5" stop-color="#7cbd94"/><stop offset="0.75" stop-color="#ebbc5f"/><stop offset="1" stop-color="#de6d6f"/></linearGradient></defs><g id="Layer_2" data-name="Layer 2"><g id="레이어_1" data-name="레이어 1"><path class="cls-1" d="M46.5,47.39,49,52.07l.3.6.3-.6,2.49-4.68h1.87l-3.75,6.74v3.6h-1.8V54.14l-3.75-6.75Z"/><path class="cls-1" d="M61.57,53.92a3.81,3.81,0,1,1-3.81-4A3.78,3.78,0,0,1,61.57,53.92Zm-1.74,0a2.11,2.11,0,1,0-4.14,0,2.12,2.12,0,1,0,4.14,0Z"/><path class="cls-1" d="M68.13,57.73v-.64a3.16,3.16,0,0,1-2,.85,3,3,0,0,1-2.79-1.58,4.27,4.27,0,0,1-.37-2V50.11h1.75v4.26a3.73,3.73,0,0,0,.19,1.21,1.26,1.26,0,0,0,1.22.86A2.08,2.08,0,0,0,68,54.77a6.75,6.75,0,0,0,.13-1.51V50.11h1.74v7.62Z"/><path class="cls-2" d="M29.65,57.94H27.82V47.39h1.83Z"/><path class="cls-3" d="M14.92,25.21,13,31.51H11.53L8.25,21.17h1.82l2,6.56.19.8.19-.8,2-6.56h1.49l1.95,6.56.19.8.19-.8,2-6.56H22L18.74,31.51H17.26l-1.91-6.3-.22-.83Z"/><path class="cls-3" d="M29.54,29.81a4.12,4.12,0,0,1-3.44,1.91,3.72,3.72,0,0,1-3.8-4,3.74,3.74,0,0,1,3.68-4,3.62,3.62,0,0,1,3.67,3.84v.83H24.13a2.07,2.07,0,0,0,2,1.89,2.54,2.54,0,0,0,2.18-1.4Zm-1.68-2.9a1.88,1.88,0,0,0-3.75,0Z"/><polygon class="cls-4" points="137.49 41.12 37.56 41.12 37.56 0 37.27 0 37.27 41.12 0 41.12 0 41.41 37.27 41.41 37.27 82.53 37.56 82.53 37.56 41.41 137.49 41.41 137.49 41.12"/><path class="cls-5" d="M47.79,32a3.91,3.91,0,0,0,3.11,1.91,3,3,0,0,0,3.34-3.21V30a4.67,4.67,0,0,1-3.45,1.46,5.87,5.87,0,0,1-6.16-6.1,5.86,5.86,0,0,1,6.16-6.1,5.07,5.07,0,0,1,3.45,1.3v-1H57v11c0,3.68-2.38,5.71-6.08,5.71a6.54,6.54,0,0,1-5.29-2.82Zm3-10.44a3.49,3.49,0,0,0-3.42,3.79,3.49,3.49,0,0,0,3.42,3.78c1.88,0,3.43-1.32,3.43-3.78S52.67,21.53,50.79,21.53Z"/><path class="cls-5" d="M72.1,19.54H75l2.42,6.8L77.92,28l.51-1.67,2.42-6.8h2.91l-4.86,12H77Z"/><path class="cls-5" d="M95.94,28.85a6.5,6.5,0,0,1-5.42,3c-3.55,0-6-2.54-6-6.31s2.57-6.31,5.78-6.31a5.7,5.7,0,0,1,5.78,6v1.31H87.42a3.27,3.27,0,0,0,3.1,3A4,4,0,0,0,94,27.33Zm-2.65-4.56a3,3,0,0,0-5.89,0Z"/><path class="cls-5" d="M104.78,21.66a3.38,3.38,0,0,0-3.6,2.54,11.46,11.46,0,0,0-.19,2.38v4.94H98.25v-12H101v1a5.47,5.47,0,0,1,3.79-1.3Z"/><path class="cls-5" d="M109.34,19.54v1a5,5,0,0,1,3.21-1.32,4.63,4.63,0,0,1,4.39,2.48,6.7,6.7,0,0,1,.58,3.12v6.7h-2.76v-6.7a5.54,5.54,0,0,0-.3-1.9,2,2,0,0,0-1.91-1.35,3.28,3.28,0,0,0-3,2.63,10.61,10.61,0,0,0-.2,2.38v4.94H106.6v-12Z"/><path class="cls-6" d="M65.24,19.17a6.64,6.64,0,1,0,6.64,6.64A6.64,6.64,0,0,0,65.24,19.17Zm0,10.43A3.79,3.79,0,1,1,69,25.81,3.79,3.79,0,0,1,65.24,29.6Z"/></g></g></svg>