<?xml version="1.0" encoding="UTF-8"?><svg xmlns="http://www.w3.org/2000/svg" viewBox="0 0 66.43 58.97"><defs><style>.d,.e{fill:#fff;}.e{fill-rule:evenodd;}</style></defs><g id="a"/><g id="b"><g id="c"><g><g><path class="d" d="M26.08,19.26l6.82,7.1,13.87-15.86,2.29,1.99-16.15,18.37-9.21-9.21,1.7-1.7,.68-.68Z"/><path class="e" d="M51.36,30.55c5.47-7.36,5-17.82-1.56-24.66-7.31-7.62-19.44-7.87-27.06-.55-7.62,7.31-7.87,19.44-.55,27.06,6.56,6.84,17,7.74,24.58,2.57l14.7,15.31c.52,.55,1.39,.56,1.94,.04l2.62-2.52c.55-.52,.56-1.39,.04-1.94l-14.7-15.31Zm-27.45,.19c-6.4-6.67-6.18-17.28,.49-23.68,6.67-6.4,17.28-6.18,23.68,.49,6.4,6.67,6.18,17.28-.49,23.68-6.67,6.4-17.28,6.18-23.68-.49Z"/></g><g><path class="d" d="M42.84,49.24H9.86V7.86h11.88c.67-.55,1.38-1.04,2.11-1.46H9.08c-.19,0-.36,.07-.49,.2-.13,.13-.2,.31-.19,.5v3.44h-3.49c-.41,0-.75,.32-.77,.73v3.4H.73C.32,14.69,0,15.03,0,15.44V58.27c0,.19,.08,.37,.22,.5,.14,.13,.32,.2,.51,.2H35.22c.19,0,.36-.07,.49-.2,.13-.13,.2-.31,.19-.5v-3.44h3.49c.41,0,.75-.32,.77-.73v-3.4h3.4c.41-.02,.74-.36,.73-.77v-12.98l-1.46-1.52v13.81Zm-8.4,8.28H1.46V16.13h2.68V54.1h0c.02,.41,.36,.74,.77,.73h29.54v2.68Zm4.26-4.14H5.6V12h2.8V49.93h0c0,.4,.28,.77,.68,.77h29.63v2.68Z"/><path class="d" d="M39.4,42.91H13.25c-.4,0-.73,.33-.73,.73s.33,.73,.73,.73h26.15c.4,0,.73-.33,.73-.73s-.33-.73-.73-.73Z"/><path class="d" d="M13.25,40.23h9.46c.4,0,.73-.33,.73-.73s-.33-.73-.73-.73H13.25c-.4,0-.73,.33-.73,.73s.33,.73,.73,.73Z"/></g></g></g></g></svg>