<svg xmlns="http://www.w3.org/2000/svg" viewBox="0 0 13.67 12.13"><defs><style>.cls-1,.cls-2{fill:#fff;}.cls-2{fill-rule:evenodd;}</style></defs><g id="Layer_2" data-name="Layer 2"><g id="Layer_1-2" data-name="Layer 1"><polygon class="cls-1" points="5.37 3.96 6.77 5.42 9.62 2.16 10.09 2.57 6.77 6.35 4.87 4.45 5.22 4.1 5.37 3.96"/><path class="cls-2" d="M10.56,6.28a3.92,3.92,0,1,0-.94.91l3,3.15a.28.28,0,0,0,.4,0l.54-.52a.28.28,0,0,0,0-.4Zm-5.64,0a3.44,3.44,0,1,1,4.87.1,3.44,3.44,0,0,1-4.87-.1"/><path class="cls-1" d="M8.81,10.13H2V1.62H4.47a2.8,2.8,0,0,1,.43-.3h-3a.1.1,0,0,0-.1,0,.12.12,0,0,0,0,.1v.71H1a.16.16,0,0,0-.16.15V3H.15A.16.16,0,0,0,0,3.18V12a.14.14,0,0,0,.05.1.12.12,0,0,0,.1,0h7.1a.14.14,0,0,0,.1,0,.18.18,0,0,0,0-.1v-.71H8.1a.16.16,0,0,0,.16-.15v-.7H9a.16.16,0,0,0,.15-.16V7.6l-.3-.31Zm-1.72,1.7H.3V3.32H.85v7.81h0a.17.17,0,0,0,.16.15H7.09ZM8,11H1.15V2.47h.58v7.8a.15.15,0,0,0,.14.16H8Z"/><path class="cls-1" d="M8.1,8.83H2.73A.14.14,0,0,0,2.58,9a.15.15,0,0,0,.15.15H8.1A.15.15,0,0,0,8.25,9a.14.14,0,0,0-.15-.15"/><path class="cls-1" d="M2.73,8.28H4.67a.15.15,0,0,0,.15-.15A.15.15,0,0,0,4.67,8H2.73a.14.14,0,0,0-.15.15.15.15,0,0,0,.15.15"/></g></g></svg>