<?xml version="1.0" encoding="UTF-8"?><svg xmlns="http://www.w3.org/2000/svg" viewBox="0 0 73.63 55.79"><defs><style>.d{fill:#fff;}</style></defs><g id="a"/><g id="b"><g id="c"><g><g><circle class="d" cx="62.94" cy="7.89" r="3.17"/><circle class="d" cx="52.15" cy="14.22" r="3.17"/><circle class="d" cx="63.6" cy="20.54" r="3.17"/><rect class="d" x="51.29" y="10.21" width="12.5" height="1.69" transform="translate(2.3 30.59) rotate(-30.35)"/><rect class="d" x="57.31" y="11.17" width="1.69" height="12.53" transform="translate(14.2 59.32) rotate(-60.31)"/></g><path class="d" d="M41.97,29.59l-16.84,9.72c-1.3,.75-2.93-.19-2.93-1.69V18.17c0-1.5,1.63-2.44,2.93-1.69l16.84,9.72c1.3,.75,1.3,2.63,0,3.38Z"/><path class="d" d="M54.91,48.47H6.24c-.53,0-.96-.33-.96-.73s.43-.73,.96-.73H54.91c.53,0,.96,.33,.96,.73s-.43,.73-.96,.73Z"/><path class="d" d="M59.35,0c-5.46,0-10.21,3.08-12.61,7.6H6.01C2.69,7.6,0,10.29,0,13.6V49.78c0,3.31,2.69,6.01,6.01,6.01H55.15c3.31,0,6.01-2.69,6.01-6.01V28.43c7.02-.9,12.47-6.89,12.47-14.15,0-7.87-6.41-14.28-14.28-14.28Zm-.19,49.78c0,.55-.11,1.08-.32,1.56-.61,1.44-2.04,2.45-3.69,2.45H6.01c-2.2,0-4.01-1.8-4.01-4.01V13.6c0-1.33,.66-2.5,1.67-3.23,.66-.48,1.46-.77,2.34-.77H45.87c-.51,1.47-.8,3.04-.8,4.68,0,3.91,1.58,7.45,4.13,10.03,.4,.4,.82,.77,1.26,1.12,1.43,1.14,3.08,2.01,4.88,2.54,1.22,.36,2.5,.57,3.83,.59h0v21.23Zm2-23.37c-.59,.09-2,.14-2,.14-6.69-.1-12.09-5.55-12.09-12.27,0-1.66,.33-3.24,.93-4.68,.29-.7,.65-1.37,1.06-2,2.19-3.37,5.98-5.6,10.29-5.6,6.78,0,12.28,5.5,12.28,12.28,0,6.16-4.55,11.25-10.47,12.13Z"/><circle class="d" cx="16.43" cy="47.73" r="3.89"/></g></g></g></svg>