<svg xmlns="http://www.w3.org/2000/svg" viewBox="0 0 15.15 11.48"><defs><style>.cls-1{fill:#fff;}</style></defs><g id="Layer_2" data-name="Layer 2"><g id="Layer_1-2" data-name="Layer 1"><path class="cls-1" d="M13.59,1.75a.66.66,0,0,1-.77.51.65.65,0,0,1-.51-.77A.65.65,0,0,1,13.08,1a.66.66,0,0,1,.51.77"/><path class="cls-1" d="M11.37,3.05a.65.65,0,0,1-1.28-.26.64.64,0,0,1,.77-.5.65.65,0,0,1,.51.76"/><path class="cls-1" d="M13.72,4.35a.65.65,0,1,1-.51-.76.64.64,0,0,1,.51.76"/><polygon class="cls-1" points="10.82 3.08 10.64 2.77 12.86 1.47 13.04 1.77 10.82 3.08"/><rect class="cls-1" x="11.79" y="2.3" width="0.35" height="2.58" transform="translate(2.92 12.2) rotate(-60.3)"/><path class="cls-1" d="M8.63,6.09l-3.46,2a.4.4,0,0,1-.6-.35v-4a.4.4,0,0,1,.6-.35l3.46,2a.4.4,0,0,1,0,.7"/><path class="cls-1" d="M12.21,0a3,3,0,0,0-2.6,1.56H1.24A1.24,1.24,0,0,0,0,2.8v7.44a1.24,1.24,0,0,0,1.24,1.24H11.35a1.24,1.24,0,0,0,1.23-1.24V5.85A2.94,2.94,0,0,0,12.21,0m0,10.24a.87.87,0,0,1-.06.32.84.84,0,0,1-.76.51H1.24a.83.83,0,0,1-.83-.83V2.8A.83.83,0,0,1,1.24,2h8.2a2.87,2.87,0,0,0-.17,1A2.94,2.94,0,0,0,10.12,5l.26.23a2.81,2.81,0,0,0,1,.52,2.61,2.61,0,0,0,.79.12Zm.41-4.81c-.12,0-.41,0-.41,0A2.52,2.52,0,0,1,9.68,2.94a2.62,2.62,0,0,1,.19-1,3.23,3.23,0,0,1,.22-.41,2.52,2.52,0,1,1,2.49,3.87"/></g></g></svg>