<svg xmlns="http://www.w3.org/2000/svg" viewBox="0 0 6.95 9.46"><defs><style>.cls-1{fill:#fff;}</style></defs><g id="Layer_2" data-name="Layer 2"><g id="Layer_1-2" data-name="Layer 1"><path class="cls-1" d="M7,4.47a.24.24,0,0,0-.24-.24.24.24,0,0,0-.24.24,3,3,0,1,1-6,0,.24.24,0,0,0-.24-.24A.24.24,0,0,0,0,4.47,3.49,3.49,0,0,0,3.24,7.94V9H2.46a.24.24,0,1,0,0,.48h2A.24.24,0,1,0,4.5,9H3.72v-1A3.47,3.47,0,0,0,7,4.47Z"/><path class="cls-1" d="M3.48,6.83A2.36,2.36,0,0,0,5.83,4.47V2.35a2.34,2.34,0,0,0-1.18-2A2.3,2.3,0,0,0,2.3.32a2.34,2.34,0,0,0-1.18,2V4.47A2.36,2.36,0,0,0,3.48,6.83Z"/></g></g></svg>