<svg width="53" height="53" xmlns="http://www.w3.org/2000/svg" xmlns:xlink="http://www.w3.org/1999/xlink" overflow="hidden"><defs><clipPath id="clip0"><rect x="307" y="317" width="53" height="53"/></clipPath></defs><g clip-path="url(#clip0)" transform="translate(-307 -317)"><path d="M360 343.5C360 358.136 348.136 370 333.5 370 318.864 370 307 358.136 307 343.5 307 328.864 318.864 317 333.5 317 348.136 317 360 328.864 360 343.5Z" fill="#34324B"/><path d="M348.001 330.992 318.999 330.992C318.252 330.992 317.644 331.6 317.644 332.348L317.644 350.566C317.644 351.313 318.252 351.921 318.999 351.921L332.683 351.921 332.683 354.383 326.892 354.383 326.892 356.008 340.088 356.008 340.088 354.383 334.307 354.383 334.307 351.921 347.991 351.921C348.738 351.921 349.346 351.313 349.346 350.566L349.346 332.348C349.346 331.6 348.748 330.992 348.001 330.992L348.001 330.992ZM348.27 350.566C348.27 350.715 348.15 350.835 348.001 350.835L318.999 350.835C318.85 350.835 318.73 350.715 318.73 350.566L318.73 332.348C318.73 332.198 318.85 332.079 318.999 332.079L348.001 332.079C348.15 332.079 348.27 332.198 348.27 332.348L348.27 350.566Z" fill="#FEC85D"/><path d="M340.307 340.879 334.078 340.879 334.078 334.65 332.922 334.65 332.922 340.879 326.693 340.879 326.693 342.035 332.922 342.035 332.922 348.264 334.078 348.264 334.078 342.035 340.307 342.035Z" fill="#FEC85D"/></g></svg>