<svg xmlns="http://www.w3.org/2000/svg" xmlns:xlink="http://www.w3.org/1999/xlink" viewBox="0 0 375.11 375.11"><defs><style>.cls-1{fill:none;}.cls-2{fill:#34324b;}.cls-3{fill:#303030;}.cls-4{fill:#fff;}.cls-5{clip-path:url(#clip-path);}.cls-6{fill:#68bab6;}.cls-7{fill:#69bab4;}.cls-8{fill:#6abbb3;}.cls-9{fill:#6bbbb2;}.cls-10{fill:#6cbcb1;}.cls-11{fill:#6dbcb0;}.cls-12{fill:#6ebcaf;}.cls-13{fill:#6fbdae;}.cls-14{fill:#6fbdad;}.cls-15{fill:#70beac;}.cls-16{fill:#71beab;}.cls-17{fill:#72bfaa;}.cls-18{fill:#73bfa9;}.cls-19{fill:#74c0a8;}.cls-20{fill:#75c0a7;}.cls-21{fill:#76c1a6;}.cls-22{fill:#77c1a5;}.cls-23{fill:#78c1a4;}.cls-24{fill:#79c2a3;}.cls-25{fill:#7ac2a2;}.cls-26{fill:#7bc3a1;}.cls-27{fill:#7bc3a0;}.cls-28{fill:#7cc49f;}.cls-29{fill:#7dc49e;}.cls-30{fill:#7ec59d;}.cls-31{fill:#7fc59c;}.cls-32{fill:#80c69b;}.cls-33{fill:#81c69a;}.cls-34{fill:#82c699;}.cls-35{fill:#83c699;}.cls-36{fill:#84c698;}.cls-37{fill:#85c698;}.cls-38{fill:#86c697;}.cls-39{fill:#87c697;}.cls-40{fill:#88c696;}.cls-41{fill:#89c696;}.cls-42{fill:#8ac695;}.cls-43{fill:#8bc695;}.cls-44{fill:#8cc694;}.cls-45{fill:#8dc694;}.cls-46{fill:#8ec693;}.cls-47{fill:#8fc693;}.cls-48{fill:#90c592;}.cls-49{fill:#91c592;}.cls-50{fill:#92c591;}.cls-51{fill:#93c591;}.cls-52{fill:#94c590;}.cls-53{fill:#95c58f;}.cls-54{fill:#96c58f;}.cls-55{fill:#97c58e;}.cls-56{fill:#98c58e;}.cls-57{fill:#99c58d;}.cls-58{fill:#9ac58d;}.cls-59{fill:#9bc58c;}.cls-60{fill:#9cc58c;}.cls-61{fill:#9dc58b;}.cls-62{fill:#9ec58b;}.cls-63{fill:#9fc58a;}.cls-64{fill:#a0c58a;}.cls-65{fill:#a1c589;}.cls-66{fill:#a2c589;}.cls-67{fill:#a3c588;}.cls-68{fill:#a4c588;}.cls-69{fill:#a5c587;}.cls-70{fill:#a6c587;}.cls-71{fill:#a7c586;}.cls-72{fill:#a8c585;}.cls-73{fill:#a9c585;}.cls-74{fill:#aac584;}.cls-75{fill:#abc584;}.cls-76{fill:#acc483;}.cls-77{fill:#adc483;}.cls-78{fill:#aec482;}.cls-79{fill:#afc482;}.cls-80{fill:#b0c481;}.cls-81{fill:#b1c481;}.cls-82{fill:#b2c480;}.cls-83{fill:#b3c480;}.cls-84{fill:#b4c47f;}.cls-85{fill:#b5c47f;}.cls-86{fill:#b6c47e;}.cls-87{fill:#b7c47e;}.cls-88{fill:#b8c47d;}.cls-89{fill:#b9c47d;}.cls-90{fill:#bbc47c;}.cls-91{fill:#bcc47b;}.cls-92{fill:#bdc47b;}.cls-93{fill:#bec47a;}.cls-94{fill:#bfc47a;}.cls-95{fill:#c0c479;}.cls-96{fill:#c1c479;}.cls-97{fill:#c2c478;}.cls-98{fill:#c3c478;}.cls-99{fill:#c4c477;}.cls-100{fill:#c5c477;}.cls-101{fill:#c6c476;}.cls-102{fill:#c7c476;}.cls-103{fill:#c8c475;}.cls-104{fill:#c9c475;}.cls-105{fill:#cac374;}.cls-106{fill:#cbc374;}.cls-107{fill:#ccc373;}.cls-108{fill:#cdc373;}.cls-109{fill:#cec372;}.cls-110{fill:#cfc371;}.cls-111{fill:#d0c371;}.cls-112{fill:#d1c370;}.cls-113{fill:#d2c370;}.cls-114{fill:#d3c36f;}.cls-115{fill:#d4c36f;}.cls-116{fill:#d5c36e;}.cls-117{fill:#d6c36e;}.cls-118{fill:#d7c36d;}.cls-119{fill:#d8c36d;}.cls-120{fill:#d9c36c;}.cls-121{fill:#dac36c;}.cls-122{fill:#dbc36b;}.cls-123{fill:#dcc36b;}.cls-124{fill:#ddc36a;}.cls-125{fill:#dec36a;}.cls-126{fill:#dfc369;}.cls-127{fill:#e0c369;}.cls-128{fill:#e1c368;}.cls-129{fill:#e2c367;}.cls-130{fill:#e3c367;}.cls-131{fill:#e4c366;}.cls-132{fill:#e5c366;}.cls-133{fill:#e6c265;}.cls-134{fill:#e7c265;}.cls-135{fill:#e8c264;}.cls-136{fill:#e9c264;}.cls-137{fill:#eac263;}.cls-138{fill:#ebc263;}.cls-139{fill:#ecc262;}.cls-140{fill:#edc262;}.cls-141{fill:#eec261;}.cls-142{fill:#efc261;}.cls-143{fill:#f0c260;}.cls-144{fill:#f1c260;}.cls-145{fill:#f2c25f;}.cls-146{fill:#f3c25f;}.cls-147{fill:#f4c25e;}.cls-148{fill:#f4c15e;}.cls-149{fill:#f4c05f;}.cls-150{fill:#f4bf5f;}.cls-151{fill:#f4be5f;}.cls-152{fill:#f3bd5f;}.cls-153{fill:#f3bc60;}.cls-154{fill:#f3bb60;}.cls-155{fill:#f3ba60;}.cls-156{fill:#f3b960;}.cls-157{fill:#f3b861;}.cls-158{fill:#f3b761;}.cls-159{fill:#f3b661;}.cls-160{fill:#f3b561;}.cls-161{fill:#f2b462;}.cls-162{fill:#f2b362;}.cls-163{fill:#f2b262;}.cls-164{fill:#f2b162;}.cls-165{fill:#f2b063;}.cls-166{fill:#f2af63;}.cls-167{fill:#f2ae63;}.cls-168{fill:#50aed0;}.cls-169{fill:#51aecf;}.cls-170{fill:#52afce;}.cls-171{fill:#53afcd;}.cls-172{fill:#54b0cc;}.cls-173{fill:#55b0cb;}.cls-174{fill:#56b1ca;}.cls-175{fill:#56b1c9;}.cls-176{fill:#57b2c8;}.cls-177{fill:#58b2c7;}.cls-178{fill:#59b3c6;}.cls-179{fill:#5ab3c5;}.cls-180{fill:#5bb3c4;}.cls-181{fill:#5cb4c3;}.cls-182{fill:#5db4c2;}.cls-183{fill:#5eb5c1;}.cls-184{fill:#5fb5c0;}.cls-185{fill:#60b6bf;}.cls-186{fill:#61b6be;}.cls-187{fill:#62b7bd;}.cls-188{fill:#62b7bc;}.cls-189{fill:#63b8bb;}.cls-190{fill:#64b8ba;}.cls-191{fill:#65b8b9;}.cls-192{fill:#66b9b8;}.cls-193{fill:#67b9b7;}.cls-194{fill:#f2ad63;}.cls-195{fill:#f2ac64;}.cls-196{fill:#f1ab64;}.cls-197{fill:#f1aa64;}.cls-198{fill:#f1a964;}.cls-199{fill:#f1a865;}.cls-200{fill:#f1a765;}.cls-201{fill:#f1a665;}.cls-202{fill:#f1a565;}.cls-203{fill:#f1a466;}.cls-204{fill:#f1a366;}.cls-205{fill:#f0a266;}.cls-206{fill:#f0a166;}.cls-207{fill:#f0a067;}.cls-208{fill:#f09f67;}.cls-209{fill:#f09e67;}.cls-210{fill:#f09d67;}.cls-211{fill:#f09c68;}.cls-212{fill:#f09b68;}.cls-213{fill:#f09a68;}.cls-214{fill:#ef9868;}.cls-215{fill:#ef9769;}.cls-216{fill:#ef9669;}.cls-217{fill:#ef9569;}.cls-218{fill:#ef9469;}.cls-219{fill:#ef936a;}.cls-220{fill:#ef926a;}.cls-221{fill:#ef916a;}.cls-222{fill:#ee906a;}.cls-223{fill:#ee8f6b;}.cls-224{fill:#ee8e6b;}.cls-225{fill:#ee8d6b;}.cls-226{fill:#ee8c6b;}.cls-227{fill:#ee8b6c;}.cls-228{fill:#ee8a6c;}.cls-229{fill:#ee896c;}.cls-230{fill:#ee886c;}.cls-231{fill:#ed876d;}.cls-232{fill:#ed866d;}.cls-233{fill:#ed856d;}.cls-234{fill:#ed846d;}.cls-235{fill:#ed836e;}.cls-236{fill:#ed826e;}.cls-237{fill:#ed816e;}.cls-238{fill:#ed806e;}.cls-239{fill:#ed7f6f;}.cls-240{fill:#ec7e6f;}.cls-241{fill:#ec7d6f;}.cls-242{fill:#ec7c6f;}.cls-243{fill:#ec7b70;}.cls-244{fill:#ec7a70;}.cls-245{fill:#ec7970;}.cls-246{fill:#ec7870;}.cls-247{fill:#ec7771;}.cls-248{fill:#ec7671;}.cls-249{fill:#eb7571;}.cls-250{fill:#eb7471;}.cls-251{fill:#eb7372;}.cls-252{fill:#eb7272;}.cls-253{fill:#eb7172;}</style><clipPath id="clip-path" transform="translate(34.38 34.38)"><path class="cls-1" d="M125.33,257.08a107.47,107.47,0,1,1,27.91,3.69,107.56,107.56,0,0,1-27.91-3.69M5.26,113.54A152.95,152.95,0,1,0,153.08,0,153.15,153.15,0,0,0,5.26,113.54"/></clipPath></defs><g id="Layer_2" data-name="Layer 2"><g id="Layer_1-2" data-name="Layer 1"><path class="cls-2" d="M158.81,7.38A153.14,153.14,0,1,0,312,160.52,153.14,153.14,0,0,0,158.81,7.38m0,260.71A107.57,107.57,0,1,1,266.38,160.52,107.57,107.57,0,0,1,158.81,268.09" transform="translate(34.38 34.38)"/><polygon class="cls-3" points="273.21 185.23 202.86 185.23 202.86 114.88 183.52 114.88 183.52 185.23 113.16 185.23 113.16 204.57 183.52 204.57 183.52 274.93 202.86 274.93 202.86 204.57 273.21 204.57 273.21 185.23"/><polygon class="cls-4" points="265.67 175.01 195.31 175.01 195.31 104.66 175.97 104.66 175.97 175.01 105.62 175.01 105.62 194.35 175.97 194.35 175.97 264.71 195.31 264.71 195.31 194.35 265.67 194.35 265.67 175.01"/><path class="cls-2" d="M162.17,231.57H140.35V161.21H70V139.4h70.35V69h21.82V139.4h70.36v21.81H162.17Zm-19.34-2.48h16.86V158.73h70.36V141.88H159.69V71.52H142.83v70.36H72.48v16.85h70.35Z" transform="translate(34.38 34.38)"/><g class="cls-5"><rect class="cls-6" x="-58.12" y="125.2" width="215.14" height="0.37" transform="translate(-50.08 175.08) rotate(-75)"/><rect class="cls-7" x="-57.12" y="124.8" width="215.14" height="1.7" transform="translate(-49.6 176.24) rotate(-75)"/><rect class="cls-8" x="-55.47" y="125.24" width="215.14" height="1.7" transform="translate(-48.8 178.16) rotate(-75)"/><rect class="cls-9" x="-53.83" y="125.68" width="215.14" height="1.7" transform="translate(-48.01 180.07) rotate(-75)"/><rect class="cls-10" x="-52.19" y="126.12" width="215.14" height="1.7" transform="translate(-47.22 181.99) rotate(-75)"/><rect class="cls-11" x="-50.54" y="126.56" width="215.14" height="1.7" transform="translate(-46.42 183.9) rotate(-75)"/><rect class="cls-12" x="-48.9" y="127" width="215.14" height="1.7" transform="translate(-45.63 185.81) rotate(-75)"/><rect class="cls-13" x="-47.26" y="127.44" width="215.14" height="1.7" transform="translate(-44.84 187.73) rotate(-75)"/><rect class="cls-14" x="-45.61" y="127.88" width="215.14" height="1.7" transform="translate(-44.05 189.64) rotate(-75)"/><rect class="cls-15" x="-43.97" y="128.32" width="215.14" height="1.7" transform="translate(-43.25 191.56) rotate(-75)"/><rect class="cls-16" x="-42.33" y="128.76" width="215.14" height="1.7" transform="translate(-42.46 193.47) rotate(-75)"/><rect class="cls-17" x="-40.68" y="129.2" width="215.14" height="1.7" transform="translate(-41.67 195.38) rotate(-75)"/><rect class="cls-18" x="-39.04" y="129.65" width="215.14" height="1.7" transform="translate(-40.88 197.3) rotate(-75)"/><rect class="cls-19" x="-37.39" y="130.09" width="215.14" height="1.7" transform="translate(-40.08 199.21) rotate(-75)"/><rect class="cls-20" x="-35.75" y="130.53" width="215.14" height="1.7" transform="translate(-39.29 201.13) rotate(-75)"/><rect class="cls-21" x="-34.11" y="130.97" width="215.14" height="1.7" transform="translate(-38.5 203.04) rotate(-75)"/><rect class="cls-22" x="-32.46" y="131.41" width="215.14" height="1.7" transform="translate(-37.7 204.95) rotate(-75)"/><rect class="cls-23" x="-30.82" y="131.85" width="215.14" height="1.7" transform="translate(-36.91 206.87) rotate(-75)"/><rect class="cls-24" x="-29.18" y="132.29" width="215.14" height="1.7" transform="translate(-36.12 208.78) rotate(-75)"/><rect class="cls-25" x="-27.53" y="132.73" width="215.14" height="1.7" transform="translate(-35.33 210.7) rotate(-75)"/><rect class="cls-26" x="-25.89" y="133.17" width="215.14" height="1.7" transform="translate(-34.53 212.61) rotate(-75)"/><rect class="cls-27" x="-24.25" y="133.61" width="215.14" height="1.7" transform="translate(-33.74 214.52) rotate(-75)"/><rect class="cls-28" x="-22.6" y="134.05" width="215.14" height="1.7" transform="translate(-32.95 216.44) rotate(-75)"/><rect class="cls-29" x="-20.96" y="134.49" width="215.14" height="1.7" transform="translate(-32.15 218.35) rotate(-75)"/><rect class="cls-30" x="-19.32" y="134.93" width="215.14" height="1.7" transform="translate(-31.36 220.27) rotate(-75)"/><rect class="cls-31" x="-17.67" y="135.37" width="215.14" height="1.7" transform="translate(-30.57 222.18) rotate(-75)"/><rect class="cls-32" x="-16.03" y="135.81" width="215.14" height="1.7" transform="translate(-29.78 224.09) rotate(-75)"/><rect class="cls-33" x="-14.38" y="136.25" width="215.14" height="1.7" transform="translate(-28.98 226.01) rotate(-75)"/><rect class="cls-33" x="-12.92" y="136.83" width="215.14" height="1.33" transform="translate(-28.28 227.71) rotate(-75)"/><rect class="cls-34" x="-11.63" y="137.17" width="215.14" height="1.33" transform="translate(-27.66 229.21) rotate(-75)"/><rect class="cls-35" x="-10.35" y="137.52" width="215.14" height="1.33" transform="translate(-27.04 230.71) rotate(-75)"/><rect class="cls-36" x="-9.06" y="137.86" width="215.14" height="1.33" transform="translate(-26.41 232.21) rotate(-75)"/><rect class="cls-37" x="-7.78" y="138.21" width="215.14" height="1.33" transform="translate(-25.79 233.7) rotate(-75)"/><rect class="cls-38" x="-6.49" y="138.55" width="215.14" height="1.33" transform="translate(-25.17 235.2) rotate(-75)"/><rect class="cls-39" x="-5.2" y="138.9" width="215.14" height="1.33" transform="translate(-24.55 236.7) rotate(-75)"/><rect class="cls-40" x="-3.92" y="139.24" width="215.14" height="1.33" transform="translate(-23.93 238.2) rotate(-75)"/><rect class="cls-41" x="-2.63" y="139.59" width="215.14" height="1.33" transform="translate(-23.31 239.7) rotate(-75)"/><rect class="cls-42" x="-1.34" y="139.93" width="215.14" height="1.33" transform="translate(-22.69 241.19) rotate(-75)"/><rect class="cls-43" x="-0.06" y="140.28" width="215.14" height="1.33" transform="translate(-22.07 242.69) rotate(-75)"/><rect class="cls-44" x="1.23" y="140.62" width="215.14" height="1.33" transform="translate(-21.45 244.19) rotate(-75)"/><rect class="cls-45" x="2.52" y="140.96" width="215.14" height="1.33" transform="translate(-20.83 245.69) rotate(-75)"/><rect class="cls-46" x="3.8" y="141.31" width="215.14" height="1.33" transform="translate(-20.21 247.19) rotate(-75)"/><rect class="cls-47" x="5.09" y="141.65" width="215.14" height="1.33" transform="translate(-19.59 248.68) rotate(-75)"/><rect class="cls-48" x="6.37" y="142" width="215.14" height="1.33" transform="translate(-18.97 250.18) rotate(-75)"/><rect class="cls-49" x="7.66" y="142.34" width="215.14" height="1.33" transform="translate(-18.35 251.68) rotate(-75)"/><rect class="cls-50" x="8.95" y="142.69" width="215.14" height="1.33" transform="translate(-17.73 253.18) rotate(-75)"/><rect class="cls-51" x="10.23" y="143.03" width="215.14" height="1.33" transform="translate(-17.11 254.68) rotate(-75)"/><rect class="cls-52" x="11.52" y="143.38" width="215.14" height="1.33" transform="translate(-16.49 256.17) rotate(-75)"/><rect class="cls-53" x="12.81" y="143.72" width="215.14" height="1.33" transform="translate(-15.87 257.67) rotate(-75)"/><rect class="cls-54" x="14.09" y="144.07" width="215.14" height="1.33" transform="translate(-15.25 259.17) rotate(-75)"/><rect class="cls-55" x="15.38" y="144.41" width="215.14" height="1.33" transform="translate(-14.63 260.67) rotate(-75)"/><rect class="cls-56" x="16.66" y="144.76" width="215.14" height="1.33" transform="translate(-14.01 262.16) rotate(-75)"/><rect class="cls-57" x="17.95" y="145.1" width="215.14" height="1.33" transform="translate(-13.39 263.66) rotate(-75)"/><rect class="cls-58" x="19.24" y="145.44" width="215.14" height="1.33" transform="translate(-12.77 265.16) rotate(-75)"/><rect class="cls-59" x="20.52" y="145.79" width="215.14" height="1.33" transform="translate(-12.14 266.66) rotate(-75)"/><rect class="cls-60" x="21.81" y="146.13" width="215.14" height="1.33" transform="translate(-11.52 268.16) rotate(-75)"/><rect class="cls-61" x="23.1" y="146.48" width="215.14" height="1.33" transform="translate(-10.9 269.65) rotate(-75)"/><rect class="cls-62" x="24.38" y="146.82" width="215.14" height="1.33" transform="translate(-10.28 271.15) rotate(-75)"/><rect class="cls-63" x="25.67" y="147.17" width="215.14" height="1.33" transform="translate(-9.66 272.65) rotate(-75)"/><rect class="cls-64" x="26.95" y="147.51" width="215.14" height="1.33" transform="translate(-9.04 274.15) rotate(-75)"/><rect class="cls-65" x="28.24" y="147.86" width="215.14" height="1.33" transform="translate(-8.42 275.65) rotate(-75)"/><rect class="cls-66" x="29.53" y="148.2" width="215.14" height="1.33" transform="translate(-7.8 277.14) rotate(-75)"/><rect class="cls-67" x="30.81" y="148.55" width="215.14" height="1.33" transform="translate(-7.18 278.64) rotate(-75)"/><rect class="cls-68" x="32.1" y="148.89" width="215.14" height="1.33" transform="translate(-6.56 280.14) rotate(-75)"/><rect class="cls-69" x="33.39" y="149.24" width="215.14" height="1.33" transform="translate(-5.94 281.64) rotate(-75)"/><rect class="cls-70" x="34.67" y="149.58" width="215.14" height="1.33" transform="translate(-5.32 283.14) rotate(-75)"/><rect class="cls-71" x="35.96" y="149.93" width="215.14" height="1.33" transform="translate(-4.7 284.63) rotate(-75)"/><rect class="cls-72" x="37.24" y="150.27" width="215.14" height="1.33" transform="translate(-4.08 286.13) rotate(-75)"/><rect class="cls-73" x="38.53" y="150.61" width="215.14" height="1.33" transform="translate(-3.46 287.63) rotate(-75)"/><rect class="cls-74" x="39.82" y="150.96" width="215.14" height="1.33" transform="translate(-2.84 289.13) rotate(-75)"/><rect class="cls-75" x="41.1" y="151.3" width="215.14" height="1.33" transform="translate(-2.22 290.62) rotate(-75)"/><rect class="cls-76" x="42.39" y="151.65" width="215.14" height="1.33" transform="translate(-1.6 292.12) rotate(-75)"/><rect class="cls-77" x="43.68" y="151.99" width="215.14" height="1.33" transform="translate(-0.98 293.62) rotate(-75)"/><rect class="cls-78" x="44.96" y="152.34" width="215.14" height="1.33" transform="translate(-0.36 295.12) rotate(-75)"/><rect class="cls-79" x="46.25" y="152.68" width="215.14" height="1.33" transform="translate(0.26 296.62) rotate(-75)"/><rect class="cls-80" x="47.53" y="153.03" width="215.14" height="1.33" transform="translate(0.88 298.11) rotate(-75)"/><rect class="cls-81" x="48.82" y="153.37" width="215.14" height="1.33" transform="translate(1.5 299.61) rotate(-75)"/><rect class="cls-82" x="50.11" y="153.72" width="215.14" height="1.33" transform="translate(2.13 301.11) rotate(-75)"/><rect class="cls-83" x="51.39" y="154.06" width="215.14" height="1.33" transform="translate(2.75 302.61) rotate(-75)"/><rect class="cls-84" x="52.68" y="154.41" width="215.14" height="1.33" transform="translate(3.37 304.11) rotate(-75)"/><rect class="cls-85" x="53.97" y="154.75" width="215.14" height="1.33" transform="translate(3.99 305.6) rotate(-75)"/><rect class="cls-86" x="55.25" y="155.1" width="215.14" height="1.33" transform="translate(4.61 307.1) rotate(-75)"/><rect class="cls-87" x="56.54" y="155.44" width="215.14" height="1.33" transform="translate(5.23 308.6) rotate(-75)"/><rect class="cls-88" x="57.82" y="155.78" width="215.14" height="1.33" transform="translate(5.85 310.1) rotate(-75)"/><rect class="cls-89" x="59.11" y="156.13" width="215.14" height="1.33" transform="translate(6.47 311.59) rotate(-75)"/><rect class="cls-90" x="60.4" y="156.47" width="215.14" height="1.33" transform="translate(7.09 313.09) rotate(-75)"/><rect class="cls-91" x="61.68" y="156.82" width="215.14" height="1.33" transform="translate(7.71 314.59) rotate(-75)"/><rect class="cls-92" x="62.97" y="157.16" width="215.14" height="1.33" transform="translate(8.33 316.09) rotate(-75)"/><rect class="cls-93" x="64.26" y="157.51" width="215.14" height="1.33" transform="translate(8.95 317.59) rotate(-75)"/><rect class="cls-94" x="65.54" y="157.85" width="215.14" height="1.33" transform="translate(9.57 319.08) rotate(-75)"/><rect class="cls-95" x="66.83" y="158.2" width="215.14" height="1.33" transform="translate(10.19 320.58) rotate(-75)"/><rect class="cls-96" x="68.11" y="158.54" width="215.14" height="1.33" transform="translate(10.81 322.08) rotate(-75)"/><rect class="cls-97" x="69.4" y="158.89" width="215.14" height="1.33" transform="translate(11.43 323.58) rotate(-75)"/><rect class="cls-98" x="70.69" y="159.23" width="215.14" height="1.33" transform="translate(12.05 325.08) rotate(-75)"/><rect class="cls-99" x="71.97" y="159.58" width="215.14" height="1.33" transform="translate(12.67 326.57) rotate(-75)"/><rect class="cls-100" x="73.26" y="159.92" width="215.14" height="1.33" transform="translate(13.29 328.07) rotate(-75)"/><rect class="cls-101" x="74.55" y="160.26" width="215.14" height="1.33" transform="translate(13.91 329.57) rotate(-75)"/><rect class="cls-102" x="75.83" y="160.61" width="215.14" height="1.33" transform="translate(14.53 331.07) rotate(-75)"/><rect class="cls-103" x="77.12" y="160.95" width="215.14" height="1.33" transform="translate(15.15 332.57) rotate(-75)"/><rect class="cls-104" x="78.4" y="161.3" width="215.14" height="1.33" transform="translate(15.78 334.06) rotate(-75)"/><rect class="cls-105" x="79.69" y="161.64" width="215.14" height="1.33" transform="translate(16.4 335.56) rotate(-75)"/><rect class="cls-106" x="80.98" y="161.99" width="215.14" height="1.33" transform="translate(17.02 337.06) rotate(-75)"/><rect class="cls-107" x="82.26" y="162.33" width="215.14" height="1.33" transform="translate(17.64 338.56) rotate(-75)"/><rect class="cls-108" x="83.55" y="162.68" width="215.14" height="1.33" transform="translate(18.26 340.05) rotate(-75)"/><rect class="cls-109" x="84.84" y="163.02" width="215.14" height="1.33" transform="translate(18.88 341.55) rotate(-75)"/><rect class="cls-110" x="86.12" y="163.37" width="215.14" height="1.33" transform="translate(19.5 343.05) rotate(-75)"/><rect class="cls-111" x="87.41" y="163.71" width="215.14" height="1.33" transform="translate(20.12 344.55) rotate(-75)"/><rect class="cls-112" x="88.69" y="164.06" width="215.14" height="1.33" transform="translate(20.74 346.05) rotate(-75)"/><rect class="cls-113" x="89.98" y="164.4" width="215.14" height="1.33" transform="translate(21.36 347.54) rotate(-75)"/><rect class="cls-114" x="91.27" y="164.75" width="215.14" height="1.33" transform="translate(21.98 349.04) rotate(-75)"/><rect class="cls-115" x="92.55" y="165.09" width="215.14" height="1.33" transform="translate(22.6 350.54) rotate(-75)"/><rect class="cls-116" x="93.84" y="165.43" width="215.14" height="1.33" transform="translate(23.22 352.04) rotate(-75)"/><rect class="cls-117" x="95.13" y="165.78" width="215.14" height="1.33" transform="translate(23.84 353.54) rotate(-75)"/><rect class="cls-118" x="96.41" y="166.12" width="215.14" height="1.33" transform="translate(24.46 355.03) rotate(-75)"/><rect class="cls-119" x="97.7" y="166.47" width="215.14" height="1.33" transform="translate(25.08 356.53) rotate(-75)"/><rect class="cls-120" x="98.98" y="166.81" width="215.14" height="1.33" transform="translate(25.7 358.03) rotate(-75)"/><rect class="cls-121" x="100.27" y="167.16" width="215.14" height="1.33" transform="translate(26.32 359.53) rotate(-75)"/><rect class="cls-122" x="101.56" y="167.5" width="215.14" height="1.33" transform="translate(26.94 361.02) rotate(-75)"/><rect class="cls-123" x="102.84" y="167.85" width="215.14" height="1.33" transform="translate(27.56 362.52) rotate(-75)"/><rect class="cls-124" x="104.13" y="168.19" width="215.14" height="1.33" transform="translate(28.18 364.02) rotate(-75)"/><rect class="cls-125" x="105.42" y="168.54" width="215.14" height="1.33" transform="translate(28.8 365.52) rotate(-75)"/><rect class="cls-126" x="106.7" y="168.88" width="215.14" height="1.33" transform="translate(29.42 367.02) rotate(-75)"/><rect class="cls-127" x="107.99" y="169.23" width="215.14" height="1.33" transform="translate(30.05 368.51) rotate(-75)"/><rect class="cls-128" x="109.27" y="169.57" width="215.14" height="1.33" transform="translate(30.67 370.01) rotate(-75)"/><rect class="cls-129" x="110.56" y="169.92" width="215.14" height="1.33" transform="translate(31.29 371.51) rotate(-75)"/><rect class="cls-130" x="111.85" y="170.26" width="215.14" height="1.33" transform="translate(31.91 373.01) rotate(-75)"/><rect class="cls-131" x="113.13" y="170.6" width="215.14" height="1.33" transform="translate(32.53 374.51) rotate(-75)"/><rect class="cls-132" x="114.42" y="170.95" width="215.14" height="1.33" transform="translate(33.15 376) rotate(-75)"/><rect class="cls-133" x="115.71" y="171.29" width="215.14" height="1.33" transform="translate(33.77 377.5) rotate(-75)"/><rect class="cls-134" x="116.99" y="171.64" width="215.14" height="1.33" transform="translate(34.39 379) rotate(-75)"/><rect class="cls-135" x="118.28" y="171.98" width="215.14" height="1.33" transform="translate(35.01 380.5) rotate(-75)"/><rect class="cls-136" x="119.56" y="172.33" width="215.14" height="1.33" transform="translate(35.63 382) rotate(-75)"/><rect class="cls-137" x="120.85" y="172.67" width="215.14" height="1.33" transform="translate(36.25 383.49) rotate(-75)"/><rect class="cls-138" x="122.14" y="173.02" width="215.14" height="1.33" transform="translate(36.87 384.99) rotate(-75)"/><rect class="cls-139" x="123.42" y="173.36" width="215.14" height="1.33" transform="translate(37.49 386.49) rotate(-75)"/><rect class="cls-140" x="124.71" y="173.71" width="215.14" height="1.33" transform="translate(38.11 387.99) rotate(-75)"/><rect class="cls-141" x="126" y="174.05" width="215.14" height="1.33" transform="translate(38.73 389.48) rotate(-75)"/><rect class="cls-142" x="127.28" y="174.4" width="215.14" height="1.33" transform="translate(39.35 390.98) rotate(-75)"/><rect class="cls-143" x="128.57" y="174.74" width="215.14" height="1.33" transform="translate(39.97 392.48) rotate(-75)"/><rect class="cls-144" x="129.85" y="175.08" width="215.14" height="1.33" transform="translate(40.59 393.98) rotate(-75)"/><rect class="cls-145" x="131.14" y="175.43" width="215.14" height="1.33" transform="translate(41.21 395.48) rotate(-75)"/><rect class="cls-146" x="132.43" y="175.77" width="215.14" height="1.33" transform="translate(41.83 396.97) rotate(-75)"/><rect class="cls-147" x="133.71" y="176.12" width="215.14" height="1.33" transform="translate(42.45 398.47) rotate(-75)"/><rect class="cls-147" x="134.72" y="176.68" width="215.14" height="0.76" transform="translate(42.94 399.65) rotate(-75)"/><rect class="cls-148" x="135.45" y="176.87" width="215.14" height="0.76" transform="translate(43.29 400.5) rotate(-75)"/><rect class="cls-149" x="136.18" y="177.07" width="215.14" height="0.76" transform="translate(43.65 401.35) rotate(-75)"/><rect class="cls-150" x="136.91" y="177.26" width="215.14" height="0.76" transform="translate(44 402.2) rotate(-75)"/><rect class="cls-151" x="137.64" y="177.46" width="215.14" height="0.76" transform="translate(44.35 403.05) rotate(-75)"/><rect class="cls-152" x="138.37" y="177.66" width="215.14" height="0.76" transform="translate(44.7 403.9) rotate(-75)"/><rect class="cls-153" x="139.1" y="177.85" width="215.14" height="0.76" transform="translate(45.05 404.75) rotate(-75)"/><rect class="cls-154" x="139.84" y="178.05" width="215.14" height="0.76" transform="translate(45.41 405.6) rotate(-75)"/><rect class="cls-155" x="140.57" y="178.24" width="215.14" height="0.76" transform="translate(45.76 406.45) rotate(-75)"/><rect class="cls-156" x="141.3" y="178.44" width="215.14" height="0.76" transform="translate(46.11 407.3) rotate(-75)"/><rect class="cls-157" x="142.03" y="178.63" width="215.14" height="0.76" transform="translate(46.46 408.15) rotate(-75)"/><rect class="cls-158" x="142.76" y="178.83" width="215.14" height="0.76" transform="translate(46.82 409) rotate(-75)"/><rect class="cls-159" x="143.49" y="179.03" width="215.14" height="0.76" transform="translate(47.17 409.85) rotate(-75)"/><rect class="cls-160" x="144.22" y="179.22" width="215.14" height="0.76" transform="translate(47.52 410.7) rotate(-75)"/><rect class="cls-161" x="144.95" y="179.42" width="215.14" height="0.76" transform="translate(47.87 411.56) rotate(-75)"/><rect class="cls-162" x="145.68" y="179.61" width="215.14" height="0.76" transform="translate(48.23 412.41) rotate(-75)"/><rect class="cls-163" x="146.41" y="179.81" width="215.14" height="0.76" transform="translate(48.58 413.26) rotate(-75)"/><rect class="cls-164" x="147.14" y="180" width="215.14" height="0.76" transform="translate(48.93 414.11) rotate(-75)"/><rect class="cls-165" x="147.87" y="180.2" width="215.14" height="0.76" transform="translate(49.28 414.96) rotate(-75)"/><rect class="cls-166" x="148.6" y="180.4" width="215.14" height="0.76" transform="translate(49.64 415.81) rotate(-75)"/><rect class="cls-167" x="149.24" y="180.66" width="215.14" height="0.56" transform="translate(49.94 416.55) rotate(-75)"/><path class="cls-168" d="M44.89-34.38-34.38,261.46Z" transform="translate(34.38 34.38)"/><rect class="cls-168" x="-147.06" y="112.91" width="306.28" height="1.7" transform="translate(-71 124.57) rotate(-75)"/><rect class="cls-169" x="-145.42" y="113.35" width="306.28" height="1.7" transform="translate(-70.21 126.48) rotate(-75)"/><rect class="cls-170" x="-143.77" y="113.79" width="306.28" height="1.7" transform="translate(-69.42 128.4) rotate(-75)"/><rect class="cls-171" x="-142.13" y="114.23" width="306.28" height="1.7" transform="translate(-68.62 130.31) rotate(-75)"/><rect class="cls-172" x="-140.49" y="114.67" width="306.28" height="1.7" transform="translate(-67.83 132.22) rotate(-75)"/><rect class="cls-173" x="-138.84" y="115.11" width="306.28" height="1.7" transform="translate(-67.04 134.14) rotate(-75)"/><rect class="cls-174" x="-137.2" y="115.55" width="306.28" height="1.7" transform="translate(-66.24 136.05) rotate(-75)"/><rect class="cls-175" x="-135.55" y="115.99" width="306.28" height="1.7" transform="translate(-65.45 137.97) rotate(-75)"/><rect class="cls-176" x="-133.91" y="116.43" width="306.28" height="1.7" transform="translate(-64.66 139.88) rotate(-75)"/><rect class="cls-177" x="-132.27" y="116.87" width="306.28" height="1.7" transform="translate(-63.87 141.79) rotate(-75)"/><rect class="cls-178" x="-130.62" y="117.31" width="306.28" height="1.7" transform="translate(-63.07 143.71) rotate(-75)"/><rect class="cls-179" x="-128.98" y="117.75" width="306.28" height="1.7" transform="translate(-62.28 145.62) rotate(-75)"/><rect class="cls-180" x="-127.34" y="118.19" width="306.28" height="1.7" transform="translate(-61.49 147.54) rotate(-75)"/><rect class="cls-181" x="-125.69" y="118.64" width="306.28" height="1.7" transform="translate(-60.69 149.45) rotate(-75)"/><rect class="cls-182" x="-124.05" y="119.08" width="306.28" height="1.7" transform="translate(-59.9 151.36) rotate(-75)"/><rect class="cls-183" x="-122.41" y="119.52" width="306.28" height="1.7" transform="translate(-59.11 153.28) rotate(-75)"/><rect class="cls-184" x="-120.76" y="119.96" width="306.28" height="1.7" transform="translate(-58.32 155.19) rotate(-75)"/><rect class="cls-185" x="-119.12" y="120.4" width="306.28" height="1.7" transform="translate(-57.52 157.1) rotate(-75)"/><rect class="cls-186" x="-117.48" y="120.84" width="306.28" height="1.7" transform="translate(-56.73 159.02) rotate(-75)"/><rect class="cls-187" x="-115.83" y="121.28" width="306.28" height="1.7" transform="translate(-55.94 160.93) rotate(-75)"/><rect class="cls-188" x="-114.19" y="121.72" width="306.28" height="1.7" transform="translate(-55.15 162.85) rotate(-75)"/><rect class="cls-189" x="-112.55" y="122.16" width="306.28" height="1.7" transform="translate(-54.35 164.76) rotate(-75)"/><rect class="cls-190" x="-110.9" y="122.6" width="306.28" height="1.7" transform="translate(-53.56 166.67) rotate(-75)"/><rect class="cls-191" x="-109.26" y="123.04" width="306.28" height="1.7" transform="translate(-52.77 168.59) rotate(-75)"/><rect class="cls-192" x="-107.61" y="123.48" width="306.28" height="1.7" transform="translate(-51.97 170.5) rotate(-75)"/><rect class="cls-193" x="-105.97" y="123.92" width="306.28" height="1.7" transform="translate(-51.18 172.42) rotate(-75)"/><rect class="cls-6" x="-104.33" y="124.36" width="306.28" height="1.7" transform="translate(-50.39 174.33) rotate(-75)"/><rect class="cls-7" x="-102.68" y="124.8" width="306.28" height="1.7" transform="translate(-49.6 176.24) rotate(-75)"/><rect class="cls-8" x="-101.04" y="125.24" width="306.28" height="1.7" transform="translate(-48.8 178.16) rotate(-75)"/><rect class="cls-9" x="-99.4" y="125.68" width="306.28" height="1.7" transform="translate(-48.01 180.07) rotate(-75)"/><rect class="cls-10" x="-97.75" y="126.12" width="306.28" height="1.7" transform="translate(-47.22 181.99) rotate(-75)"/><rect class="cls-11" x="-96.11" y="126.56" width="306.28" height="1.7" transform="translate(-46.42 183.9) rotate(-75)"/><rect class="cls-12" x="-94.47" y="127" width="306.28" height="1.7" transform="translate(-45.63 185.81) rotate(-75)"/><rect class="cls-13" x="-92.82" y="127.44" width="306.28" height="1.7" transform="translate(-44.84 187.73) rotate(-75)"/><rect class="cls-14" x="-91.18" y="127.88" width="306.28" height="1.7" transform="translate(-44.05 189.64) rotate(-75)"/><rect class="cls-15" x="-89.54" y="128.32" width="306.28" height="1.7" transform="translate(-43.25 191.56) rotate(-75)"/><rect class="cls-16" x="-87.89" y="128.76" width="306.28" height="1.7" transform="translate(-42.46 193.47) rotate(-75)"/><rect class="cls-17" x="-86.25" y="129.2" width="306.28" height="1.7" transform="translate(-41.67 195.38) rotate(-75)"/><rect class="cls-18" x="-84.6" y="129.65" width="306.28" height="1.7" transform="translate(-40.88 197.3) rotate(-75)"/><rect class="cls-19" x="-82.96" y="130.09" width="306.28" height="1.7" transform="translate(-40.08 199.21) rotate(-75)"/><rect class="cls-20" x="-81.32" y="130.53" width="306.28" height="1.7" transform="translate(-39.29 201.13) rotate(-75)"/><rect class="cls-21" x="-79.67" y="130.97" width="306.28" height="1.7" transform="translate(-38.5 203.04) rotate(-75)"/><rect class="cls-22" x="-78.03" y="131.41" width="306.28" height="1.7" transform="translate(-37.7 204.95) rotate(-75)"/><rect class="cls-23" x="-76.39" y="131.85" width="306.28" height="1.7" transform="translate(-36.91 206.87) rotate(-75)"/><rect class="cls-24" x="-74.74" y="132.29" width="306.28" height="1.7" transform="translate(-36.12 208.78) rotate(-75)"/><rect class="cls-25" x="-73.1" y="132.73" width="306.28" height="1.7" transform="translate(-35.33 210.7) rotate(-75)"/><rect class="cls-26" x="-71.46" y="133.17" width="306.28" height="1.7" transform="translate(-34.53 212.61) rotate(-75)"/><rect class="cls-27" x="-69.81" y="133.61" width="306.28" height="1.7" transform="translate(-33.74 214.52) rotate(-75)"/><rect class="cls-28" x="-68.17" y="134.05" width="306.28" height="1.7" transform="translate(-32.95 216.44) rotate(-75)"/><rect class="cls-29" x="-66.53" y="134.49" width="306.28" height="1.7" transform="translate(-32.15 218.35) rotate(-75)"/><rect class="cls-30" x="-64.88" y="134.93" width="306.28" height="1.7" transform="translate(-31.36 220.27) rotate(-75)"/><rect class="cls-31" x="-63.24" y="135.37" width="306.28" height="1.7" transform="translate(-30.57 222.18) rotate(-75)"/><rect class="cls-32" x="-61.59" y="135.81" width="306.28" height="1.7" transform="translate(-29.78 224.09) rotate(-75)"/><rect class="cls-33" x="-59.95" y="136.25" width="306.28" height="1.7" transform="translate(-28.98 226.01) rotate(-75)"/><rect class="cls-33" x="-58.49" y="136.83" width="306.28" height="1.33" transform="translate(-28.28 227.71) rotate(-75)"/><rect class="cls-34" x="-57.2" y="137.17" width="306.28" height="1.33" transform="translate(-27.66 229.21) rotate(-75)"/><rect class="cls-35" x="-55.91" y="137.52" width="306.28" height="1.33" transform="translate(-27.04 230.71) rotate(-75)"/><rect class="cls-36" x="-54.63" y="137.86" width="306.28" height="1.33" transform="translate(-26.42 232.21) rotate(-75)"/><rect class="cls-37" x="-53.34" y="138.21" width="306.28" height="1.33" transform="translate(-25.79 233.7) rotate(-75)"/><rect class="cls-38" x="-52.06" y="138.55" width="306.28" height="1.33" transform="translate(-25.17 235.2) rotate(-75)"/><rect class="cls-39" x="-50.77" y="138.9" width="306.28" height="1.33" transform="translate(-24.55 236.7) rotate(-75)"/><rect class="cls-40" x="-49.48" y="139.24" width="306.28" height="1.33" transform="translate(-23.93 238.2) rotate(-75)"/><rect class="cls-41" x="-48.2" y="139.59" width="306.28" height="1.33" transform="translate(-23.31 239.7) rotate(-75)"/><rect class="cls-42" x="-46.91" y="139.93" width="306.28" height="1.33" transform="translate(-22.69 241.19) rotate(-75)"/><rect class="cls-43" x="-45.62" y="140.28" width="306.28" height="1.33" transform="translate(-22.07 242.69) rotate(-75)"/><rect class="cls-44" x="-44.34" y="140.62" width="306.28" height="1.33" transform="translate(-21.45 244.19) rotate(-75)"/><rect class="cls-45" x="-43.05" y="140.96" width="306.28" height="1.33" transform="translate(-20.83 245.69) rotate(-75)"/><rect class="cls-46" x="-41.77" y="141.31" width="306.28" height="1.33" transform="translate(-20.21 247.19) rotate(-75)"/><rect class="cls-47" x="-40.48" y="141.65" width="306.28" height="1.33" transform="translate(-19.59 248.68) rotate(-75)"/><rect class="cls-48" x="-39.19" y="142" width="306.28" height="1.33" transform="translate(-18.97 250.18) rotate(-75)"/><rect class="cls-49" x="-37.91" y="142.34" width="306.28" height="1.33" transform="translate(-18.35 251.68) rotate(-75)"/><rect class="cls-50" x="-36.62" y="142.69" width="306.28" height="1.33" transform="translate(-17.73 253.18) rotate(-75)"/><rect class="cls-51" x="-35.33" y="143.03" width="306.28" height="1.33" transform="translate(-17.11 254.68) rotate(-75)"/><rect class="cls-52" x="-34.05" y="143.38" width="306.28" height="1.33" transform="translate(-16.49 256.17) rotate(-75)"/><rect class="cls-53" x="-32.76" y="143.72" width="306.28" height="1.33" transform="translate(-15.87 257.67) rotate(-75)"/><rect class="cls-54" x="-31.48" y="144.07" width="306.28" height="1.33" transform="translate(-15.25 259.17) rotate(-75)"/><rect class="cls-55" x="-30.19" y="144.41" width="306.28" height="1.33" transform="translate(-14.63 260.67) rotate(-75)"/><rect class="cls-56" x="-28.9" y="144.76" width="306.28" height="1.33" transform="translate(-14.01 262.16) rotate(-75)"/><rect class="cls-57" x="-27.62" y="145.1" width="306.28" height="1.33" transform="translate(-13.39 263.66) rotate(-75)"/><rect class="cls-58" x="-26.33" y="145.44" width="306.28" height="1.33" transform="translate(-12.77 265.16) rotate(-75)"/><rect class="cls-59" x="-25.04" y="145.79" width="306.28" height="1.33" transform="translate(-12.14 266.66) rotate(-75)"/><rect class="cls-60" x="-23.76" y="146.13" width="306.28" height="1.33" transform="translate(-11.52 268.16) rotate(-75)"/><rect class="cls-61" x="-22.47" y="146.48" width="306.28" height="1.33" transform="translate(-10.9 269.65) rotate(-75)"/><rect class="cls-62" x="-21.19" y="146.82" width="306.28" height="1.33" transform="translate(-10.28 271.15) rotate(-75)"/><rect class="cls-63" x="-19.9" y="147.17" width="306.28" height="1.33" transform="translate(-9.66 272.65) rotate(-75)"/><rect class="cls-64" x="-18.61" y="147.51" width="306.28" height="1.33" transform="translate(-9.04 274.15) rotate(-75)"/><rect class="cls-65" x="-17.33" y="147.86" width="306.28" height="1.33" transform="translate(-8.42 275.65) rotate(-75)"/><rect class="cls-66" x="-16.04" y="148.2" width="306.28" height="1.33" transform="translate(-7.8 277.14) rotate(-75)"/><rect class="cls-67" x="-14.75" y="148.55" width="306.28" height="1.33" transform="translate(-7.18 278.64) rotate(-75)"/><rect class="cls-68" x="-13.47" y="148.89" width="306.28" height="1.33" transform="translate(-6.56 280.14) rotate(-75)"/><rect class="cls-69" x="-12.18" y="149.24" width="306.28" height="1.33" transform="translate(-5.94 281.64) rotate(-75)"/><rect class="cls-70" x="-10.89" y="149.58" width="306.28" height="1.33" transform="translate(-5.32 283.14) rotate(-75)"/><rect class="cls-71" x="-9.61" y="149.93" width="306.28" height="1.33" transform="translate(-4.7 284.63) rotate(-75)"/><rect class="cls-72" x="-8.32" y="150.27" width="306.28" height="1.33" transform="translate(-4.08 286.13) rotate(-75)"/><rect class="cls-73" x="-7.04" y="150.61" width="306.28" height="1.33" transform="translate(-3.46 287.63) rotate(-75)"/><rect class="cls-74" x="-5.75" y="150.96" width="306.28" height="1.33" transform="translate(-2.84 289.13) rotate(-75)"/><rect class="cls-75" x="-4.46" y="151.3" width="306.28" height="1.33" transform="translate(-2.22 290.62) rotate(-75)"/><rect class="cls-76" x="-3.18" y="151.65" width="306.28" height="1.33" transform="translate(-1.6 292.12) rotate(-75)"/><rect class="cls-77" x="-1.89" y="151.99" width="306.28" height="1.33" transform="translate(-0.98 293.62) rotate(-75)"/><rect class="cls-78" x="-0.6" y="152.34" width="306.28" height="1.33" transform="translate(-0.36 295.12) rotate(-75)"/><rect class="cls-79" x="0.68" y="152.68" width="306.28" height="1.33" transform="translate(0.26 296.62) rotate(-75)"/><rect class="cls-80" x="1.97" y="153.03" width="306.28" height="1.33" transform="translate(0.88 298.11) rotate(-75)"/><rect class="cls-81" x="3.25" y="153.37" width="306.28" height="1.33" transform="translate(1.5 299.61) rotate(-75)"/><rect class="cls-82" x="4.54" y="153.72" width="306.28" height="1.33" transform="translate(2.13 301.11) rotate(-75)"/><rect class="cls-83" x="5.83" y="154.06" width="306.28" height="1.33" transform="translate(2.75 302.61) rotate(-75)"/><rect class="cls-84" x="7.11" y="154.41" width="306.28" height="1.33" transform="translate(3.37 304.11) rotate(-75)"/><rect class="cls-85" x="8.4" y="154.75" width="306.28" height="1.33" transform="translate(3.99 305.6) rotate(-75)"/><rect class="cls-86" x="9.69" y="155.1" width="306.28" height="1.33" transform="translate(4.61 307.1) rotate(-75)"/><rect class="cls-87" x="10.97" y="155.44" width="306.28" height="1.33" transform="translate(5.23 308.6) rotate(-75)"/><rect class="cls-88" x="12.26" y="155.78" width="306.28" height="1.33" transform="translate(5.85 310.1) rotate(-75)"/><rect class="cls-89" x="13.54" y="156.13" width="306.28" height="1.33" transform="translate(6.47 311.59) rotate(-75)"/><rect class="cls-90" x="14.83" y="156.47" width="306.28" height="1.33" transform="translate(7.09 313.09) rotate(-75)"/><rect class="cls-91" x="16.12" y="156.82" width="306.28" height="1.33" transform="translate(7.71 314.59) rotate(-75)"/><rect class="cls-92" x="17.4" y="157.16" width="306.28" height="1.33" transform="translate(8.33 316.09) rotate(-75)"/><rect class="cls-93" x="18.69" y="157.51" width="306.28" height="1.33" transform="translate(8.95 317.59) rotate(-75)"/><rect class="cls-94" x="19.98" y="157.85" width="306.28" height="1.33" transform="translate(9.57 319.08) rotate(-75)"/><rect class="cls-95" x="21.26" y="158.2" width="306.28" height="1.33" transform="translate(10.19 320.58) rotate(-75)"/><rect class="cls-96" x="22.55" y="158.54" width="306.28" height="1.33" transform="translate(10.81 322.08) rotate(-75)"/><rect class="cls-97" x="23.83" y="158.89" width="306.28" height="1.33" transform="translate(11.43 323.58) rotate(-75)"/><rect class="cls-98" x="25.12" y="159.23" width="306.28" height="1.33" transform="translate(12.05 325.08) rotate(-75)"/><rect class="cls-99" x="26.41" y="159.58" width="306.28" height="1.33" transform="translate(12.67 326.57) rotate(-75)"/><rect class="cls-100" x="27.69" y="159.92" width="306.28" height="1.33" transform="translate(13.29 328.07) rotate(-75)"/><rect class="cls-101" x="28.98" y="160.26" width="306.28" height="1.33" transform="translate(13.91 329.57) rotate(-75)"/><rect class="cls-102" x="30.27" y="160.61" width="306.28" height="1.33" transform="translate(14.53 331.07) rotate(-75)"/><rect class="cls-103" x="31.55" y="160.95" width="306.28" height="1.33" transform="translate(15.15 332.57) rotate(-75)"/><rect class="cls-104" x="32.84" y="161.3" width="306.28" height="1.33" transform="translate(15.78 334.06) rotate(-75)"/><rect class="cls-105" x="34.12" y="161.64" width="306.28" height="1.33" transform="translate(16.4 335.56) rotate(-75)"/><rect class="cls-106" x="35.41" y="161.99" width="306.28" height="1.33" transform="translate(17.02 337.06) rotate(-75)"/><rect class="cls-107" x="36.7" y="162.33" width="306.28" height="1.33" transform="translate(17.64 338.56) rotate(-75)"/><rect class="cls-108" x="37.98" y="162.68" width="306.28" height="1.33" transform="translate(18.26 340.05) rotate(-75)"/><rect class="cls-109" x="39.27" y="163.02" width="306.28" height="1.33" transform="translate(18.88 341.55) rotate(-75)"/><rect class="cls-110" x="40.56" y="163.37" width="306.28" height="1.33" transform="translate(19.5 343.05) rotate(-75)"/><rect class="cls-111" x="41.84" y="163.71" width="306.28" height="1.33" transform="translate(20.12 344.55) rotate(-75)"/><rect class="cls-112" x="43.13" y="164.06" width="306.28" height="1.33" transform="translate(20.74 346.05) rotate(-75)"/><rect class="cls-113" x="44.41" y="164.4" width="306.28" height="1.33" transform="translate(21.36 347.54) rotate(-75)"/><rect class="cls-114" x="45.7" y="164.75" width="306.28" height="1.33" transform="translate(21.98 349.04) rotate(-75)"/><rect class="cls-115" x="46.99" y="165.09" width="306.28" height="1.33" transform="translate(22.6 350.54) rotate(-75)"/><rect class="cls-116" x="48.27" y="165.43" width="306.28" height="1.33" transform="translate(23.22 352.04) rotate(-75)"/><rect class="cls-117" x="49.56" y="165.78" width="306.28" height="1.33" transform="translate(23.84 353.54) rotate(-75)"/><rect class="cls-118" x="50.85" y="166.12" width="306.28" height="1.33" transform="translate(24.46 355.03) rotate(-75)"/><rect class="cls-119" x="52.13" y="166.47" width="306.28" height="1.33" transform="translate(25.08 356.53) rotate(-75)"/><rect class="cls-120" x="53.42" y="166.81" width="306.28" height="1.33" transform="translate(25.7 358.03) rotate(-75)"/><rect class="cls-121" x="54.7" y="167.16" width="306.28" height="1.33" transform="translate(26.32 359.53) rotate(-75)"/><rect class="cls-122" x="55.99" y="167.5" width="306.28" height="1.33" transform="translate(26.94 361.02) rotate(-75)"/><rect class="cls-123" x="57.28" y="167.85" width="306.28" height="1.33" transform="translate(27.56 362.52) rotate(-75)"/><rect class="cls-124" x="58.56" y="168.19" width="306.28" height="1.33" transform="translate(28.18 364.02) rotate(-75)"/><rect class="cls-125" x="59.85" y="168.54" width="306.28" height="1.33" transform="translate(28.8 365.52) rotate(-75)"/><rect class="cls-126" x="61.14" y="168.88" width="306.28" height="1.33" transform="translate(29.42 367.02) rotate(-75)"/><rect class="cls-127" x="62.42" y="169.23" width="306.28" height="1.33" transform="translate(30.05 368.51) rotate(-75)"/><rect class="cls-128" x="63.71" y="169.57" width="306.28" height="1.33" transform="translate(30.67 370.01) rotate(-75)"/><rect class="cls-129" x="64.99" y="169.92" width="306.28" height="1.33" transform="translate(31.29 371.51) rotate(-75)"/><rect class="cls-130" x="66.28" y="170.26" width="306.28" height="1.33" transform="translate(31.91 373.01) rotate(-75)"/><rect class="cls-131" x="67.57" y="170.6" width="306.28" height="1.33" transform="translate(32.53 374.51) rotate(-75)"/><rect class="cls-132" x="68.85" y="170.95" width="306.28" height="1.33" transform="translate(33.15 376) rotate(-75)"/><rect class="cls-133" x="70.14" y="171.29" width="306.28" height="1.33" transform="translate(33.77 377.5) rotate(-75)"/><rect class="cls-134" x="71.43" y="171.64" width="306.28" height="1.33" transform="translate(34.39 379) rotate(-75)"/><rect class="cls-135" x="72.71" y="171.98" width="306.28" height="1.33" transform="translate(35.01 380.5) rotate(-75)"/><rect class="cls-136" x="74" y="172.33" width="306.28" height="1.33" transform="translate(35.63 382) rotate(-75)"/><rect class="cls-137" x="75.28" y="172.67" width="306.28" height="1.33" transform="translate(36.25 383.49) rotate(-75)"/><rect class="cls-138" x="76.57" y="173.02" width="306.28" height="1.33" transform="translate(36.87 384.99) rotate(-75)"/><rect class="cls-139" x="77.86" y="173.36" width="306.28" height="1.33" transform="translate(37.49 386.49) rotate(-75)"/><rect class="cls-140" x="79.14" y="173.71" width="306.28" height="1.33" transform="translate(38.11 387.99) rotate(-75)"/><rect class="cls-141" x="80.43" y="174.05" width="306.28" height="1.33" transform="translate(38.73 389.48) rotate(-75)"/><rect class="cls-142" x="81.72" y="174.4" width="306.28" height="1.33" transform="translate(39.35 390.98) rotate(-75)"/><rect class="cls-143" x="83" y="174.74" width="306.28" height="1.33" transform="translate(39.97 392.48) rotate(-75)"/><rect class="cls-144" x="84.29" y="175.08" width="306.28" height="1.33" transform="translate(40.59 393.98) rotate(-75)"/><rect class="cls-145" x="85.57" y="175.43" width="306.28" height="1.33" transform="translate(41.21 395.48) rotate(-75)"/><rect class="cls-146" x="86.86" y="175.77" width="306.28" height="1.33" transform="translate(41.83 396.97) rotate(-75)"/><rect class="cls-147" x="88.15" y="176.12" width="306.28" height="1.33" transform="translate(42.45 398.47) rotate(-75)"/><rect class="cls-147" x="89.16" y="176.68" width="306.28" height="0.76" transform="translate(42.94 399.65) rotate(-75)"/><rect class="cls-148" x="89.89" y="176.87" width="306.28" height="0.76" transform="translate(43.29 400.5) rotate(-75)"/><rect class="cls-149" x="90.62" y="177.07" width="306.28" height="0.76" transform="translate(43.65 401.35) rotate(-75)"/><rect class="cls-150" x="91.35" y="177.26" width="306.28" height="0.76" transform="translate(44 402.2) rotate(-75)"/><rect class="cls-151" x="92.08" y="177.46" width="306.28" height="0.76" transform="translate(44.35 403.05) rotate(-75)"/><rect class="cls-152" x="92.81" y="177.66" width="306.28" height="0.76" transform="translate(44.7 403.9) rotate(-75)"/><rect class="cls-153" x="93.54" y="177.85" width="306.28" height="0.76" transform="translate(45.05 404.75) rotate(-75)"/><rect class="cls-154" x="94.27" y="178.05" width="306.28" height="0.76" transform="translate(45.41 405.6) rotate(-75)"/><rect class="cls-155" x="95" y="178.24" width="306.28" height="0.76" transform="translate(45.76 406.45) rotate(-75)"/><rect class="cls-156" x="95.73" y="178.44" width="306.28" height="0.76" transform="translate(46.11 407.3) rotate(-75)"/><rect class="cls-157" x="96.46" y="178.63" width="306.28" height="0.76" transform="translate(46.46 408.15) rotate(-75)"/><rect class="cls-158" x="97.19" y="178.83" width="306.28" height="0.76" transform="translate(46.82 409) rotate(-75)"/><rect class="cls-159" x="97.92" y="179.03" width="306.28" height="0.76" transform="translate(47.17 409.85) rotate(-75)"/><rect class="cls-160" x="98.65" y="179.22" width="306.28" height="0.76" transform="translate(47.52 410.7) rotate(-75)"/><rect class="cls-161" x="99.38" y="179.42" width="306.28" height="0.76" transform="translate(47.87 411.56) rotate(-75)"/><rect class="cls-162" x="100.11" y="179.61" width="306.28" height="0.76" transform="translate(48.23 412.41) rotate(-75)"/><rect class="cls-163" x="100.84" y="179.81" width="306.28" height="0.76" transform="translate(48.58 413.26) rotate(-75)"/><rect class="cls-164" x="101.57" y="180" width="306.28" height="0.76" transform="translate(48.93 414.11) rotate(-75)"/><rect class="cls-165" x="102.3" y="180.2" width="306.28" height="0.76" transform="translate(49.28 414.96) rotate(-75)"/><rect class="cls-166" x="103.03" y="180.4" width="306.28" height="0.76" transform="translate(49.64 415.81) rotate(-75)"/><rect class="cls-167" x="103.77" y="180.59" width="306.28" height="0.76" transform="translate(49.99 416.66) rotate(-75)"/><rect class="cls-194" x="104.5" y="180.79" width="306.28" height="0.76" transform="translate(50.34 417.51) rotate(-75)"/><rect class="cls-195" x="105.23" y="180.98" width="306.28" height="0.76" transform="translate(50.69 418.36) rotate(-75)"/><rect class="cls-196" x="105.96" y="181.18" width="306.28" height="0.76" transform="translate(51.04 419.21) rotate(-75)"/><rect class="cls-197" x="106.69" y="181.37" width="306.28" height="0.76" transform="translate(51.4 420.06) rotate(-75)"/><rect class="cls-198" x="107.42" y="181.57" width="306.28" height="0.76" transform="translate(51.75 420.91) rotate(-75)"/><rect class="cls-199" x="108.15" y="181.77" width="306.28" height="0.76" transform="translate(52.1 421.76) rotate(-75)"/><rect class="cls-200" x="108.88" y="181.96" width="306.28" height="0.76" transform="translate(52.45 422.61) rotate(-75)"/><rect class="cls-201" x="109.61" y="182.16" width="306.28" height="0.76" transform="translate(52.81 423.46) rotate(-75)"/><rect class="cls-202" x="110.34" y="182.35" width="306.28" height="0.76" transform="translate(53.16 424.32) rotate(-75)"/><rect class="cls-203" x="111.07" y="182.55" width="306.28" height="0.76" transform="translate(53.51 425.17) rotate(-75)"/><rect class="cls-204" x="111.8" y="182.74" width="306.28" height="0.76" transform="translate(53.86 426.02) rotate(-75)"/><rect class="cls-205" x="112.53" y="182.94" width="306.28" height="0.76" transform="translate(54.22 426.87) rotate(-75)"/><rect class="cls-206" x="113.26" y="183.14" width="306.28" height="0.76" transform="translate(54.57 427.72) rotate(-75)"/><rect class="cls-207" x="113.99" y="183.33" width="306.28" height="0.76" transform="translate(54.92 428.57) rotate(-75)"/><rect class="cls-208" x="114.72" y="183.53" width="306.28" height="0.76" transform="translate(55.27 429.42) rotate(-75)"/><rect class="cls-209" x="115.45" y="183.72" width="306.28" height="0.76" transform="translate(55.63 430.27) rotate(-75)"/><rect class="cls-210" x="116.18" y="183.92" width="306.28" height="0.76" transform="translate(55.98 431.12) rotate(-75)"/><rect class="cls-211" x="116.91" y="184.11" width="306.28" height="0.76" transform="translate(56.33 431.97) rotate(-75)"/><rect class="cls-212" x="117.64" y="184.31" width="306.28" height="0.76" transform="translate(56.68 432.82) rotate(-75)"/><rect class="cls-213" x="118.37" y="184.51" width="306.28" height="0.76" transform="translate(57.03 433.67) rotate(-75)"/><rect class="cls-214" x="119.1" y="184.7" width="306.28" height="0.76" transform="translate(57.39 434.52) rotate(-75)"/><rect class="cls-215" x="119.84" y="184.9" width="306.28" height="0.76" transform="translate(57.74 435.37) rotate(-75)"/><rect class="cls-216" x="120.57" y="185.09" width="306.28" height="0.76" transform="translate(58.09 436.22) rotate(-75)"/><rect class="cls-217" x="121.3" y="185.29" width="306.28" height="0.76" transform="translate(58.44 437.08) rotate(-75)"/><rect class="cls-218" x="122.03" y="185.48" width="306.28" height="0.76" transform="translate(58.8 437.93) rotate(-75)"/><rect class="cls-219" x="122.76" y="185.68" width="306.28" height="0.76" transform="translate(59.15 438.78) rotate(-75)"/><rect class="cls-220" x="123.49" y="185.88" width="306.28" height="0.76" transform="translate(59.5 439.63) rotate(-75)"/><rect class="cls-221" x="124.22" y="186.07" width="306.28" height="0.76" transform="translate(59.85 440.48) rotate(-75)"/><rect class="cls-222" x="124.95" y="186.27" width="306.28" height="0.76" transform="translate(60.21 441.33) rotate(-75)"/><rect class="cls-223" x="125.68" y="186.46" width="306.28" height="0.76" transform="translate(60.56 442.18) rotate(-75)"/><rect class="cls-224" x="126.41" y="186.66" width="306.28" height="0.76" transform="translate(60.91 443.03) rotate(-75)"/><rect class="cls-225" x="127.14" y="186.85" width="306.28" height="0.76" transform="translate(61.26 443.88) rotate(-75)"/><rect class="cls-226" x="127.87" y="187.05" width="306.28" height="0.76" transform="translate(61.62 444.73) rotate(-75)"/><rect class="cls-227" x="128.6" y="187.25" width="306.28" height="0.76" transform="translate(61.97 445.58) rotate(-75)"/><rect class="cls-228" x="129.33" y="187.44" width="306.28" height="0.76" transform="translate(62.32 446.43) rotate(-75)"/><rect class="cls-229" x="130.06" y="187.64" width="306.28" height="0.76" transform="translate(62.67 447.28) rotate(-75)"/><rect class="cls-230" x="130.79" y="187.83" width="306.28" height="0.76" transform="translate(63.02 448.13) rotate(-75)"/><rect class="cls-231" x="131.52" y="188.03" width="306.28" height="0.76" transform="translate(63.38 448.98) rotate(-75)"/><rect class="cls-232" x="132.25" y="188.22" width="306.28" height="0.76" transform="translate(63.73 449.83) rotate(-75)"/><rect class="cls-233" x="132.98" y="188.42" width="306.28" height="0.76" transform="translate(64.08 450.69) rotate(-75)"/><rect class="cls-234" x="133.71" y="188.62" width="306.28" height="0.76" transform="translate(64.43 451.54) rotate(-75)"/><rect class="cls-235" x="134.44" y="188.81" width="306.28" height="0.76" transform="translate(64.79 452.39) rotate(-75)"/><rect class="cls-236" x="135.18" y="189.01" width="306.28" height="0.76" transform="translate(65.14 453.24) rotate(-75)"/><rect class="cls-237" x="135.91" y="189.2" width="306.28" height="0.76" transform="translate(65.49 454.09) rotate(-75)"/><rect class="cls-238" x="136.64" y="189.4" width="306.28" height="0.76" transform="translate(65.84 454.94) rotate(-75)"/><rect class="cls-239" x="137.37" y="189.6" width="306.28" height="0.76" transform="translate(66.2 455.79) rotate(-75)"/><rect class="cls-240" x="138.1" y="189.79" width="306.28" height="0.76" transform="translate(66.55 456.64) rotate(-75)"/><rect class="cls-241" x="138.83" y="189.99" width="306.28" height="0.76" transform="translate(66.9 457.49) rotate(-75)"/><rect class="cls-242" x="139.56" y="190.18" width="306.28" height="0.76" transform="translate(67.25 458.34) rotate(-75)"/><rect class="cls-243" x="140.29" y="190.38" width="306.28" height="0.76" transform="translate(67.61 459.19) rotate(-75)"/><rect class="cls-244" x="141.02" y="190.57" width="306.28" height="0.76" transform="translate(67.96 460.04) rotate(-75)"/><rect class="cls-245" x="141.75" y="190.77" width="306.28" height="0.76" transform="translate(68.31 460.89) rotate(-75)"/><rect class="cls-246" x="142.48" y="190.97" width="306.28" height="0.76" transform="translate(68.66 461.74) rotate(-75)"/><rect class="cls-247" x="143.21" y="191.16" width="306.28" height="0.76" transform="translate(69.01 462.59) rotate(-75)"/><rect class="cls-248" x="143.94" y="191.36" width="306.28" height="0.76" transform="translate(69.37 463.45) rotate(-75)"/><rect class="cls-249" x="144.67" y="191.55" width="306.28" height="0.76" transform="translate(69.72 464.3) rotate(-75)"/><rect class="cls-250" x="145.4" y="191.75" width="306.28" height="0.76" transform="translate(70.07 465.15) rotate(-75)"/><rect class="cls-251" x="146.13" y="191.94" width="306.28" height="0.76" transform="translate(70.42 466) rotate(-75)"/><rect class="cls-252" x="146.86" y="192.14" width="306.28" height="0.76" transform="translate(70.78 466.85) rotate(-75)"/><rect class="cls-253" x="147.59" y="192.34" width="306.28" height="0.76" transform="translate(71.13 467.7) rotate(-75)"/><path class="cls-253" d="M261.46,340.73,340.73,44.89Z" transform="translate(34.38 34.38)"/></g></g></g></svg>