<?xml version="1.0" encoding="UTF-8"?><svg id="a" xmlns="http://www.w3.org/2000/svg" xmlns:xlink="http://www.w3.org/1999/xlink" viewBox="0 0 115.33 115.33"><defs><style>.c{fill:url(#b);}.d{fill:#fff;}</style><linearGradient id="b" x1="0" y1="57.67" x2="115.33" y2="57.67" gradientTransform="matrix(1, 0, 0, 1, 0, 0)" gradientUnits="userSpaceOnUse"><stop offset="0" stop-color="#33314a"/><stop offset=".25" stop-color="#50aed0"/><stop offset=".5" stop-color="#81c69a"/><stop offset=".75" stop-color="#f4c25e"/><stop offset="1" stop-color="#eb7172"/></linearGradient></defs><path class="c" d="M57.67,0C25.82,0,0,25.82,0,57.67s25.82,57.67,57.67,57.67,57.67-25.82,57.67-57.67S89.52,0,57.67,0Zm0,98.17c-22.37,0-40.51-18.14-40.51-40.51S35.29,17.16,57.67,17.16s40.51,18.14,40.51,40.51-18.14,40.51-40.51,40.51Z"/><polygon class="d" points="76.42 46.9 57.69 67.56 38.91 46.84 36.68 49.3 55.46 70.02 55.45 70.03 57.68 72.49 78.66 49.36 76.42 46.9"/></svg>