<svg xmlns="http://www.w3.org/2000/svg" viewBox="0 0 12.84 13.1"><defs><style>.cls-1{fill:#fff;}</style></defs><g id="Layer_2" data-name="Layer 2"><g id="Layer_1-2" data-name="Layer 1"><path class="cls-1" d="M3.94,7.08c0,.15,0,.15-.14.38l0,0a7.72,7.72,0,0,1-.43.91c-.19.09-.38.19-.65.35-.58.33-1,.57-1.12,1a.89.89,0,0,0,.14,1.06.85.85,0,0,0,.51.19.78.78,0,0,0,.51-.19,1.84,1.84,0,0,0,.43-.64c.05-.08.1-.18.16-.3L3.78,9s0,0,0,0l.39-.16c.52-.22.75-.29,1.22-.45l.23-.08.43-.14.41-.14c.12.09.23.2.37.32a2,2,0,0,0,.73.44,1.53,1.53,0,0,0,.64,0,.72.72,0,0,0,.59-.74c0-.24-.13-.65-.75-.76a3.37,3.37,0,0,0-.65,0,3.74,3.74,0,0,0-.54,0l-.2,0a4.05,4.05,0,0,1-.44-.56,15.55,15.55,0,0,1-.88-1.4c-.05-.08-.09-.18-.14-.26s.06-.3.09-.49l.05-.22A2.58,2.58,0,0,0,5.42,3c-.11-.55-.47-.67-.67-.66s-.47.07-.63.62A1.78,1.78,0,0,0,4.12,4a3.9,3.9,0,0,0,.44,1.07,10.29,10.29,0,0,1-.35,1.15C4.05,6.75,4,7,3.94,7.08ZM2.78,9.51a3.1,3.1,0,0,0-.16.3,1.72,1.72,0,0,1-.29.46.17.17,0,0,1-.19,0s-.07,0,0-.34.36-.35.63-.53c0,0,0,.08,0,.12M7.45,7.75A2.21,2.21,0,0,1,8,7.8c.16,0,.21.1.21.11V8a.19.19,0,0,1-.1,0,.57.57,0,0,1-.31,0,1.46,1.46,0,0,1-.48-.3.32.32,0,0,1,.14,0M4.75,3.09,4.8,3s0,0,0,.1A1.71,1.71,0,0,1,4.8,4a.7.7,0,0,1,0-.12,1.34,1.34,0,0,1,0-.79M4.39,7.72v0l.16-.42c0-.11.11-.33.29-.84A4.78,4.78,0,0,0,5,5.87c.24.41.44.73.72,1.13A4.65,4.65,0,0,0,6,7.38l-.14,0-.42.15-.22.08a9.61,9.61,0,0,0-1,.35C4.31,7.91,4.34,7.82,4.39,7.72Zm5.5,0V9.22H7.83a1.13,1.13,0,0,0-1.11,1.12v2.1H1.9A1.27,1.27,0,0,1,.64,11.15V1.93A1.29,1.29,0,0,1,1.9.64H8.63a1.28,1.28,0,0,1,1.24,1h.64A1.92,1.92,0,0,0,8.61,0H1.9A1.91,1.91,0,0,0,0,1.93v9.24A1.92,1.92,0,0,0,1.9,13.1H7.1l0,0s0,0,0,0h0a0,0,0,0,0,0,0l0,0,3.16-3.2s0,0,0,0l0,0s0,0,0,0,0,0,0,0a.06.06,0,0,1,0,0V7.69H9.89ZM7.35,12V10.35a.47.47,0,0,1,.48-.48H9.44ZM10.21,2a2.63,2.63,0,1,0,2.63,2.63A2.63,2.63,0,0,0,10.21,2m0,4.79a2.16,2.16,0,1,1,2.15-2.16A2.17,2.17,0,0,1,10.21,6.83Z"/><path class="cls-1" d="M11.49,3.71a.51.51,0,1,1-1-.2.51.51,0,1,1,1,.2"/><path class="cls-1" d="M9.75,4.73a.51.51,0,0,1-1-.2.51.51,0,0,1,1,.2"/><path class="cls-1" d="M11.6,5.75a.51.51,0,1,1-1-.2.5.5,0,0,1,.6-.4.51.51,0,0,1,.4.6"/><rect class="cls-1" x="9.11" y="3.98" width="2.02" height="0.27" transform="translate(-0.69 5.67) rotate(-30.32)"/><rect class="cls-1" x="10.08" y="4.14" width="0.27" height="2.02" transform="translate(0.69 11.48) rotate(-60.32)"/></g></g></svg>