<?xml version="1.0" encoding="UTF-8"?><svg xmlns="http://www.w3.org/2000/svg" viewBox="0 0 55.45 56.55"><defs><style>.d{fill:#eb7172;}</style></defs><g id="a"/><g id="b"><g id="c"><g><path class="d" d="M17.02,30.58q-.21,.62-.62,1.65l-.07,.14c-.48,1.31-1.31,2.89-1.86,3.93-.83,.41-1.65,.83-2.82,1.52-2.48,1.45-4.2,2.48-4.82,4.13-.34,.9-1.17,3.1,.62,4.55,.62,.55,1.45,.83,2.2,.83,.83,0,1.58-.28,2.2-.83,.83-.76,1.17-1.45,1.86-2.76,.21-.34,.41-.76,.69-1.31,1.1-2.14,1.79-3.58,1.93-3.79,0-.07,.07-.14,.14-.21,.48-.21,1.03-.41,1.65-.69,2.27-.96,3.24-1.24,5.3-1.93l.96-.34c.76-.28,1.31-.41,1.86-.62,.69-.28,1.24-.41,1.79-.62,.48,.41,.96,.9,1.58,1.38,1.31,1.1,2.2,1.65,3.17,1.93,.83,.21,2,.14,2.76-.07,2.41-.62,2.48-2.41,2.55-3.17,.07-1.03-.55-2.82-3.24-3.31-1.24-.21-2.07-.21-2.82-.21s-1.38,.07-2.34,.21c-.28,.07-.62,.14-.83,.14-.69-.69-1.17-1.38-1.93-2.41-1.45-2.07-2.34-3.51-3.79-6.06-.21-.34-.41-.76-.62-1.1,.14-.62,.28-1.31,.41-2.14l.21-.96c.55-2.62,.69-3.51,.28-5.65-.48-2.34-2.07-2.89-2.89-2.82-.41,0-2.07,.28-2.76,2.69-.48,1.65-.41,2.89,0,4.62,.28,1.24,.9,2.76,1.93,4.62-.34,1.45-.76,2.76-1.52,4.96-.69,2.27-1.03,3.17-1.17,3.72h0Zm-5.03,10.47c-.28,.48-.48,.96-.69,1.31-.69,1.31-.83,1.58-1.24,2-.28,.21-.62,.07-.83-.07-.07-.07-.28-.21,.21-1.45,.28-.69,1.58-1.52,2.76-2.27,0,.21-.14,.34-.21,.48h0Zm20.18-7.58c.69,0,1.38,0,2.34,.21,.69,.14,.9,.41,.9,.48v.48s-.07,.07-.41,.14c-.48,.14-1.17,.14-1.38,.07-.34-.14-.9-.34-2.07-1.31,.21-.07,.41-.07,.62-.07h0ZM20.53,13.36c.07-.21,.14-.41,.21-.48,.07,.07,.07,.21,.14,.41,.28,1.52,.28,2-.14,4-.07-.21-.14-.41-.14-.55-.34-1.51-.41-2.27-.07-3.38h0Zm-1.58,19.98l.07-.14q.41-1.1,.69-1.79c.14-.48,.48-1.45,1.24-3.65,.34-.9,.55-1.72,.76-2.41,1.03,1.79,1.86,3.17,3.1,4.89,.48,.62,.83,1.17,1.24,1.65-.21,.07-.41,.14-.62,.21-.48,.21-1.03,.34-1.79,.62l-.96,.34c-1.72,.55-2.69,.9-4.27,1.52,.21-.41,.34-.83,.55-1.24h0Zm23.76-.14v6.61h-8.89c-2.62,0-4.82,2.2-4.82,4.82v9.09H8.2c-3.03,0-5.44-2.48-5.44-5.58V8.34c0-3.03,2.48-5.58,5.44-5.58h29.07c2.62,0,4.82,1.93,5.37,4.48,.48-.07,1.03-.07,1.52-.07,.41,0,.83,0,1.24,.07-.55-4.06-3.99-7.23-8.2-7.23H8.2C3.65,0,0,3.72,0,8.34V48.22c0,4.62,3.65,8.34,8.2,8.34H30.65q.07,0,.14-.07t.14-.07c.07,0,.07-.07,.14-.07,0,0,.07,0,.07-.07l.21-.21,13.64-13.85s0-.07,.07-.07l.14-.14c0-.07,.07-.07,.07-.14s.07-.07,.07-.14,0-.07,.07-.14v-8.4c-.41,.07-.9,.07-1.31,.07-.48,0-.96,0-1.38-.07h0Zm-10.95,18.53v-7.03c0-1.17,.9-2.07,2.07-2.07h6.96l-9.02,9.09ZM44.09,8.82c-6.27,0-11.37,5.1-11.37,11.37s5.1,11.37,11.37,11.37c6.27,0,11.37-5.1,11.37-11.37s-5.1-11.37-11.37-11.37h0Zm0,20.67c-5.1,0-9.3-4.2-9.3-9.3s4.2-9.3,9.3-9.3c5.1,0,9.3,4.2,9.3,9.3s-4.13,9.3-9.3,9.3h0Z"/><g><circle class="d" cx="47.46" cy="15.58" r="2.21"/><circle class="d" cx="39.94" cy="19.99" r="2.21"/><circle class="d" cx="47.92" cy="24.39" r="2.21"/><rect class="d" x="39.34" y="17.2" width="8.71" height="1.18" transform="translate(-3 24.52) rotate(-30.35)"/><rect class="d" x="43.54" y="17.87" width="1.18" height="8.73" transform="translate(2.96 49.55) rotate(-60.31)"/></g></g></g></g></svg>