<svg xmlns="http://www.w3.org/2000/svg" viewBox="0 0 12.75 10.69"><defs><style>.cls-1{fill:#fff;}</style></defs><g id="Layer_2" data-name="Layer 2"><g id="Layer_1-2" data-name="Layer 1"><path class="cls-1" d="M9.14,4.32a.31.31,0,0,0-.44.44L9,5.11H5.76a.3.3,0,0,0-.32.32.3.3,0,0,0,.32.31H9l-.34.35a.31.31,0,1,0,.44.44L10,5.65a.3.3,0,0,0,0-.44Z"/><path class="cls-1" d="M3.7,3.56H7a.3.3,0,0,0,.32-.31A.3.3,0,0,0,7,2.93H3.7l.35-.35a.31.31,0,0,0-.44-.44L2.72,3a.33.33,0,0,0,0,.45l.89.88a.31.31,0,1,0,.44-.44Z"/><path class="cls-1" d="M11.47,0H1.28A1.36,1.36,0,0,0,0,1.42V7.47A1.36,1.36,0,0,0,1.28,8.89H6v.95H3.89a.42.42,0,0,0-.37.22.45.45,0,0,0,0,.42.44.44,0,0,0,.37.21h5a.44.44,0,0,0,.37-.21.45.45,0,0,0,0-.42.42.42,0,0,0-.37-.22H6.8V8.89h4.67a1.36,1.36,0,0,0,1.28-1.42v-6A1.36,1.36,0,0,0,11.47,0Zm.43,7.47c0,.31-.2.57-.43.57H1.27C1,8,.85,7.77.85,7.47v-6A.52.52,0,0,1,1.28.86H11.47a.52.52,0,0,1,.43.56Z"/></g></g></svg>