<svg xmlns="http://www.w3.org/2000/svg" viewBox="0 0 10.92 12.16"><defs><style>.cls-1{fill:#fff;}</style></defs><g id="Layer_2" data-name="Layer 2"><g id="Layer_1-2" data-name="Layer 1"><path class="cls-1" d="M5.36,9.68v-2h1V7.16h-1V5.39H7.27c0,.25,0,.5,0,.74a.73.73,0,0,1,.25.08l.26.12a9.49,9.49,0,0,0,.06-1H9.68A4.52,4.52,0,0,1,9.23,7.1l.48.24a5,5,0,0,0,.51-2.23,5.11,5.11,0,1,0-5.11,5.11,4.92,4.92,0,0,0,1.22-.16V8.86a1.84,1.84,0,0,1-1,.82ZM9.68,4.87H7.79a9.89,9.89,0,0,0-.2-1.78H9.21a4.6,4.6,0,0,1,.47,1.78M8.9,2.57H7.45A4.86,4.86,0,0,0,6.53.78,4.46,4.46,0,0,1,8.9,2.57M5.36.59c.63.16,1.18.92,1.52,2H5.36Zm0,2.5H7a9.71,9.71,0,0,1,.23,1.78H5.36ZM3.68.77a5.14,5.14,0,0,0-.92,1.78H1.3A4.62,4.62,0,0,1,3.68.77M1,3.09H2.62a9.87,9.87,0,0,0-.21,1.78H.52A4.61,4.61,0,0,1,1,3.09M.52,5.39H2.41a9.65,9.65,0,0,0,.21,1.77H1A4.52,4.52,0,0,1,.52,5.39m.78,2.3H2.76a4.94,4.94,0,0,0,.92,1.79A4.59,4.59,0,0,1,1.3,7.69m3.54,2c-.63-.18-1.17-.92-1.52-2H4.84Zm0-2.52H3.18A8.23,8.23,0,0,1,3,5.39H4.84Zm0-2.29H2.94a8.33,8.33,0,0,1,.23-1.78H4.83V4.87Zm0-2.3H3.32c.35-1.08.89-1.82,1.52-2Z"/><path class="cls-1" d="M10.92,8.75a.25.25,0,0,0-.14-.24L7.23,6.69A.27.27,0,0,0,7,6.7a.3.3,0,0,0-.13.23l0,4a.26.26,0,0,0,.43.2l.82-.73,1,1.65a.28.28,0,0,0,.23.13.37.37,0,0,0,.14,0l1.16-.72a.25.25,0,0,0,.12-.16.39.39,0,0,0,0-.21l-1-1.64,1-.41A.26.26,0,0,0,10.92,8.75ZM9.25,9a.27.27,0,0,0-.16.17.28.28,0,0,0,0,.22l1,1.68-.71.44-1-1.69a.33.33,0,0,0-.19-.13h0A.34.34,0,0,0,8,9.76l-.62.55V7.36L10,8.71Z"/></g></g></svg>