<?xml version="1.0" encoding="UTF-8"?><svg xmlns="http://www.w3.org/2000/svg" viewBox="0 0 53.08 59.1"><defs><style>.d{fill:#eb7172;}</style></defs><g id="a"/><g id="b"><g id="c"><g><path class="d" d="M26.07,47.06v-9.68h4.66v-2.55h-4.66v-8.63h9.25c-.06,1.24-.12,2.42-.25,3.6,.43,.06,.87,.19,1.24,.37l1.24,.62c.19-1.49,.31-3.04,.31-4.66h9.19c-.19,2.98-.93,5.84-2.17,8.38l2.3,1.18c1.61-3.29,2.48-6.95,2.48-10.86C49.66,11.11,38.49,0,24.83,0S0,11.17,0,24.83s11.17,24.83,24.83,24.83c2.05,0,4.03-.25,5.96-.74v-5.84c-1.43,2.11-3.04,3.48-4.72,3.97h0Zm20.98-23.4h-9.19c-.06-3.04-.43-5.96-.99-8.63h7.88c1.3,2.61,2.11,5.53,2.3,8.63h0Zm-3.79-11.17h-7.08c-1.06-3.54-2.61-6.58-4.47-8.69,4.72,1.49,8.82,4.59,11.55,8.69ZM26.07,2.86c3.04,.81,5.71,4.47,7.39,9.62h-7.39V2.86Zm0,12.17h8.13c.62,2.61,1.06,5.59,1.12,8.63h-9.25V15.02ZM17.88,3.72c-1.86,2.17-3.35,5.15-4.47,8.69H6.33c2.73-4.03,6.77-7.14,11.55-8.69h0ZM4.84,15.02h7.88c-.56,2.67-.93,5.59-.99,8.63H2.55c.19-3.1,.99-6.02,2.3-8.63h0Zm-2.3,11.17H11.73c.06,3.1,.43,5.96,.99,8.63H4.84c-1.3-2.61-2.11-5.53-2.3-8.63h0Zm3.79,11.17h7.08c1.06,3.54,2.61,6.58,4.47,8.69-4.78-1.55-8.82-4.59-11.55-8.69Zm17.2,9.68c-3.04-.87-5.71-4.47-7.39-9.68h7.39v9.68Zm0-12.23H15.46c-.62-2.67-1.06-5.59-1.12-8.63h9.19v8.63Zm0-11.17H14.28c.06-3.04,.5-5.96,1.12-8.63h8.07v8.63h.06Zm0-11.17h-7.39c1.68-5.21,4.35-8.82,7.39-9.62V12.48Z"/><path class="d" d="M53.08,42.52c0-.5-.25-.99-.68-1.18l-17.26-8.82c-.37-.19-.87-.19-1.24,.06s-.62,.62-.62,1.12l.06,19.31c0,.5,.31,.93,.74,1.18,.43,.19,.99,.12,1.37-.19l3.97-3.54,4.9,8.01c.25,.37,.68,.62,1.12,.62,.25,0,.43-.06,.68-.19l5.65-3.48c.31-.19,.5-.43,.56-.81,.06-.31,0-.68-.12-.99l-4.9-8.01,4.97-1.99c.5-.19,.81-.62,.81-1.12h0Zm-8.13,1.24c-.37,.12-.62,.43-.74,.81-.12,.37-.06,.74,.12,1.06l5.03,8.19-3.48,2.11-5.03-8.19c-.19-.31-.56-.56-.93-.62h-.19c-.31,0-.62,.12-.87,.31l-3.04,2.67v-14.34l12.85,6.58-3.72,1.43Z"/></g></g></g></svg>