<?xml version="1.0" encoding="UTF-8"?><svg xmlns="http://www.w3.org/2000/svg" viewBox="0 0 73.46 55.69"><defs><style>.d{fill:#eb7172;}</style></defs><g id="a"/><g id="b"><g id="c"><g><path class="d" d="M60.97,55.6V11.3c0-2.2-1.51-4.03-3.33-4.03H3.33c-1.83,0-3.33,1.82-3.33,4.03V55.69l60.97-.1ZM3.33,9.58H57.63c.79,0,1.43,.77,1.43,1.73V47.35H1.91V11.3c0-.96,.64-1.73,1.43-1.73h0ZM1.9,49.65H59.06v3.74H1.9v-3.74Z"/><path class="d" d="M38.65,48.2h9.95c.9,0,1.61-.64,1.61-1.44v-1.36c0-.8-.72-1.44-1.61-1.44h-9.95c-.9,0-1.61,.64-1.61,1.44v1.36c0,.8,.72,1.45,1.61,1.45h0Z"/><path class="d" d="M5.82,29.45c.61,.31,1.33,.2,1.63-.41,1.43-2.25,5.11-3.58,8.99-3.17,2.86,.31,5.31,2.04,7.25,3.47,2.25,1.74,5.01,3.58,8.48,3.98,.61,.1,1.23,.1,1.74,.1,4.19,0,7.87-1.63,9.5-4.29,.41-.61,.2-1.33-.41-1.74-.61-.31-1.33-.2-1.74,.41-1.43,2.25-5.11,3.47-8.89,3.07-2.86-.31-5.21-1.94-7.25-3.47-2.15-1.63-5.01-3.58-8.48-3.98-4.9-.51-9.4,1.23-11.34,4.29-.2,.61,0,1.43,.51,1.74h0Z"/><path class="d" d="M52.21,26.38c.15-.05,.3-.13,.42-.23l17.37-14.9,2.04-1.82c.81-.73,1.31-1.75,1.4-2.85s-.26-2.18-.95-3.02l-1.75-2.11c-.72-.84-1.74-1.35-2.84-1.44s-2.19,.27-3.02,.99l-19.34,16.64c-.12,.11-.22,.24-.29,.38v.08l-.09,.24-1.5,6.85v.19c-.05,.4,.09,.8,.38,1.09,.28,.29,.68,.44,1.08,.41l6.92-.47c.06-.01,.12-.03,.19-.06h0ZM66.68,3.12c.28-.24,.64-.36,1.01-.33s.71,.2,.95,.48l1.82,2.1c.24,.28,.36,.64,.33,1.01s-.2,.71-.48,.95l-1.06,.91-3.61-4.2,1.04-.91Zm-19.61,17.15l3.72,3.8-5.21,1.13,1.49-4.93Z"/></g></g></g></svg>