<svg xmlns="http://www.w3.org/2000/svg" viewBox="0 0 15.11 11.46"><defs><style>.cls-1{fill:#fff;}</style></defs><g id="Layer_2" data-name="Layer 2"><g id="Layer_1-2" data-name="Layer 1"><path class="cls-1" d="M12.54,11.44V2.33a.77.77,0,0,0-.68-.83H.69A.77.77,0,0,0,0,2.33v9.13ZM.69,2H11.86a.33.33,0,0,1,.29.36V9.74H.39V2.33A.33.33,0,0,1,.69,2Zm-.3,8.24H12.15V11H.39Z"/><path class="cls-1" d="M8,9.91H10a.31.31,0,0,0,.33-.29V9.34A.31.31,0,0,0,10,9H8a.31.31,0,0,0-.33.3v.28A.31.31,0,0,0,8,9.91"/><path class="cls-1" d="M1.2,6.06A.23.23,0,0,0,1.53,6a2,2,0,0,1,1.85-.65A3.06,3.06,0,0,1,4.87,6a3.7,3.7,0,0,0,1.75.82,2.3,2.3,0,0,0,.36,0A2.25,2.25,0,0,0,8.93,6a.24.24,0,0,0-.08-.35.26.26,0,0,0-.36.08,2,2,0,0,1-1.83.63,3.09,3.09,0,0,1-1.49-.71,3.57,3.57,0,0,0-1.75-.82,2.44,2.44,0,0,0-2.33.88A.32.32,0,0,0,1.2,6.06Z"/><path class="cls-1" d="M10.74,5.43l.09,0L14.4,2.31l.42-.37a.88.88,0,0,0,.29-.59.85.85,0,0,0-.2-.62L14.55.3a.84.84,0,0,0-1.2-.09l-4,3.42a.16.16,0,0,0-.06.08v0l0,0L9,5.18v0a.27.27,0,0,0,.08.23.27.27,0,0,0,.22.08l1.42-.09Zm3-4.79a.29.29,0,0,1,.2-.07.3.3,0,0,1,.2.1l.37.43a.27.27,0,0,1,.07.21.26.26,0,0,1-.1.19l-.22.19L13.5.83Zm-4,3.53.77.78-1.07.23Z"/></g></g></svg>